# File generated by ImageToStl.com - Free Image and 3D model conversion tools

o obj1
v -16.41598129 9.62385464 14.34859753
v -16.62558365 9.58416843 14.13998604
v -16.44857216 9.66887856 13.98096657
v -16.48742294 9.66618156 14.39782429
v -16.3091011 9.73538971 14.32646656
v -16.33600998 9.78564739 14.00287247
v -14.97444725 10.24258614 13.47497272
v -15.197299 10.13306427 13.41309929
v -15.03339863 10.2612009 13.24035168
v -14.99844265 10.28998661 13.5490551
v -14.98486805 10.34259796 13.28284073
v -15.12446785 10.3180542 13.17545605
v -15.10630608 10.16622829 13.54465294
v -15.3344593 10.1435957 13.49587631
v -15.29157066 10.26135063 13.19742966
v -15.35797215 10.18370914 13.50972176
v -16.62175369 9.63487339 14.33685589
v -16.64866257 9.68513203 14.01325989
v -16.28371239 9.68839073 14.25259399
v -16.30026245 9.70927238 14.06707382
v -15.11642838 10.23974133 13.62080002
v -15.25022221 10.1945467 13.21864414
v -16.47034073 9.75433922 13.94190311
v -17.92698479 10.43728447 8.21461487
v -18.59346581 9.53279305 6.7347641
v -18.17940331 10.27100945 6.70931721
v -18.04236984 10.99744225 6.81860256
v -18.20537758 10.00717449 8.01603794
v -18.99363518 9.40607548 6.05572939
v -20.51323318 11.59922028 9.34354591
v -20.10545158 10.99963093 9.84326363
v -19.9249649 11.59135628 10.01585007
v -19.78699112 11.54474068 10.37349987
v -19.59509468 12.37037468 9.17492962
v -21.39268303 10.99962997 8.81454277
v -16.94245911 9.80939102 15.03943729
v -14.89818192 11.00971222 11.97994995
v -14.45270729 10.85493088 13.6066246
v -18.00596428 9.63715649 14.14014244
v -14.46372128 10.9931488 12.82613659
v -18.77694321 11.53724575 13.33736515
v -18.67526245 11.05673981 13.80081654
v -18.72628403 11.51449585 13.85316753
v -18.50089455 11.50472164 14.4286232
v -18.72273254 11.1554575 13.17455769
v -18.43307877 12.4696064 10.64253235
v -17.9261837 12.4696064 10.35091496
v -18.82135391 12.42664814 9.38126659
v -18.13428116 12.1859293 8.98599339
v -19.50842667 12.1859293 9.77653885
v -17.99403381 12.39967155 10.81933594
v -20.08974457 12.51232052 5.17346621
v -20.64705467 11.57187462 4.72460699
v -20.572752 12.19777107 4.89945555
v -20.84837532 11.27997494 4.7252841
v -19.95652199 12.76884079 5.41208982
v -22.2305336 11.29351521 8.63839626
v -22.88666725 11.18953419 8.13982677
v -22.79397774 11.0024271 8.30238438
v -22.2305336 10.711339 8.63839626
v -20.31119728 10.00717449 9.22751522
v -20.37437439 9.15372276 8.14742565
v -19.52355385 9.46131802 8.77429867
v -21.22375679 9.53279305 8.24796867
v -19.93825912 9.20242119 8.16163826
v -19.29470634 9.68123722 9.65358639
v -20.76168251 9.69710541 5.00961542
v -21.5580883 9.45405006 5.70341825
v -21.62230301 9.96049118 5.33173037
v -20.72086525 10.10789108 4.7975316
v -20.21229553 9.3161459 5.26010132
v -21.82068825 9.8103981 5.61091852
v -17.73919106 12.83855057 13.99027443
v -16.68105507 13.28290081 13.38133526
v -17.52985191 13.06072617 13.13022327
v -18.28086472 12.22702122 14.30199909
v -16.59719467 12.89561081 14.63038635
v -16.79401398 13.08698654 12.3118763
v -18.17374039 9.41517544 12.85862064
v -14.97823715 10.63843441 11.67323685
v -14.78347683 10.65524006 11.91909409
v -18.03182983 9.56893253 12.25827026
v -16.69157028 10.19221497 11.15395832
v -16.08623886 10.38595963 11.1386137
v -19.19536781 10.56457806 11.40250206
v -19.78697777 10.45449924 10.37349129
v -18.90139008 9.75344467 10.91195107
v -18.66811752 9.83575726 11.2071352
v -20.27946854 10.43728447 9.56799984
v -17.3199482 12.16350269 10.43153572
v -17.46403694 12.09281254 10.83254242
v -16.91293716 11.44904995 10.51378727
v -17.21263504 11.22736073 11.07525253
v -16.88518143 11.43375301 10.07256794
v -19.59070396 9.29760265 5.57484293
v -20.46215439 9.90355968 4.87401962
v -20.64579964 10.43389893 4.72422743
v -23.42876625 11.71193123 6.55298567
v -24.62233925 11.422575 3.87844205
v -23.05996132 11.41625881 7.78315544
v -24.77347946 11.00242519 3.9647193
v -22.46531105 11.7121582 8.24120426
v -23.14606094 11.92943954 6.39160347
v -21.78655815 10.30020523 6.47421694
v -23.89391518 10.5846777 3.46262336
v -21.86524391 10.60878658 5.98108959
v -23.74143219 11.00242424 3.37557888
v -21.832901 10.00334644 7.0826931
v -15.78652 9.76267719 15.09265995
v -16.33551407 11.50296021 15.40859604
v -16.39185333 9.56893253 15.10800457
v -15.22548485 9.97744465 14.88454247
v -16.94084549 11.30921459 15.42394161
v -15.03466892 12.65486336 13.68398571
v -15.50178242 12.35651398 14.8181715
v -14.99525547 12.12624073 14.30428505
v -14.76366329 10.19221306 14.5040226
v -18.9525528 11.71193218 3.97577333
v -17.88954926 11.40907383 5.26273727
v -20.55605888 11.22980976 1.53679538
v -17.97547531 11.7121582 5.65614653
v -18.00223351 11.0024271 4.87058115
v -20.8340683 11.55137825 1.698403
v -18.25699615 10.07511806 5.81979656
v -18.9525528 10.29292107 3.97577333
v -17.78737259 10.61832237 5.54680109
v -17.89221573 10.46456623 6.14136791
v -19.23398018 10.0754137 4.13936996
v -18.07339859 10.58859444 4.91195059
v -16.48300552 11.38090038 9.50640488
v -16.37160683 11.187953 9.50666332
v -16.38945389 10.96853352 -1.1991787
v -16.45511246 11.15782738 9.82451439
v -16.35707664 11.10324287 9.42296028
v -16.66956139 11.45369625 -1.19982922
v -17.18985176 10.38406944 9.50436211
v -17.5709343 10.7502594 8.84665012
v -17.37881851 10.60843372 -1.20146775
v -17.60943031 10.96854019 8.77960777
v -16.66956139 10.48337173 -1.19982922
v -18.04884529 11.05673981 14.88931942
v -17.69606209 11.53724575 15.21557522
v -18.12510109 9.65460968 13.8369894
v -15.35445309 12.82602978 12.61789703
v -15.52722931 12.37871552 11.98917389
v -15.11592007 12.77458763 13.1857872
v -16.04485512 12.27999783 11.63348389
v -16.11554909 12.65486336 11.80577564
v -17.33087921 12.35651398 11.63980865
v -15.72561932 12.77458668 12.12633419
v -21.49957275 12.08755875 8.30695915
v -21.93019485 10.43389893 5.46313953
v -21.77591705 9.35884285 6.47155523
v -21.92923737 11.57187462 5.46224546
v -21.86354828 9.67423725 5.89339685
v -21.45388985 10.27100945 8.5931282
v -20.30154991 13.20876217 6.80835104
v -19.80187035 13.06373692 6.0879941
v -20.66066551 13.13598824 6.18412685
v -20.0000248 13.01037312 5.80406046
v -21.175457 13.06373692 6.8782177
v -19.56851578 13.07319927 7.25540447
v -20.22133446 10.96854782 21.69867516
v -20.2854538 10.83432293 11.34315968
v -20.16184235 10.55618 10.99284649
v -20.2854538 11.10275745 11.34315968
v -20.19074821 10.77925301 10.67482853
v -19.94122505 10.48338604 21.69843292
v -19.34733391 11.51558208 11.17282486
v -19.23196602 11.32864857 21.69781494
v -19.07181931 11.18682098 11.64913654
v -19.10089874 10.96854782 21.69770432
v -19.56383514 11.52025414 21.69810486
v -23.05995941 10.58859444 7.78315639
v -24.62233925 10.58227539 3.87844205
v -23.42876434 10.29292107 6.55298567
v -23.14606094 10.07541275 6.39160442
v -22.65426636 10.61832333 8.34907055
v -21.81204224 11.0024271 8.66442108
v -21.90159798 11.41043091 8.62008858
v -21.48830795 10.86351395 8.52545929
v -17.77649498 10.99963093 8.50341797
v -17.88993073 10.07738972 8.84393883
v -17.22483444 10.80908966 11.23597336
v -17.46403885 9.90644741 10.83254242
v -16.91352844 10.54910851 10.51511478
v -17.52962875 9.7061615 10.55216408
v -16.80027771 10.99877739 10.26189995
v -17.45829391 10.53965092 11.37028122
v -18.02050781 10.80908966 11.69372177
v -18.80015755 10.54910851 11.60049343
v -18.24902534 9.90644741 11.2841444
v -19.07598305 10.99877739 11.57111168
v -17.88642883 10.44983959 11.462883
v -18.45843697 12.2930994 11.0865078
v -21.50524139 10.77504253 2.08856177
v -19.84453773 10.30020523 5.35686636
v -20.27793312 10.61197662 4.98318815
v -20.41711235 11.0024271 4.87087727
v -21.39254761 10.58467865 2.02305174
v -17.89221573 11.54028702 6.14136791
v -17.69960594 11.00242615 6.02940226
v -18.02627945 11.25147533 6.48542023
v -17.75767136 11.0024271 5.40252113
v -18.99309349 9.46131802 8.46912575
v -19.29034996 9.14627743 7.82053089
v -19.10733795 9.15372276 7.41849995
v -19.31427193 9.20242119 7.80265856
v -17.88685989 12.16537476 11.85651302
v -18.40965271 12.40851974 13.24165058
v -16.88876915 12.81553459 11.90268993
v -17.73624039 11.51723862 11.64528465
v -17.98140144 11.23855019 11.84690094
v -18.34042168 11.9325695 12.22078419
v -17.98713493 10.80821609 11.88441753
v -20.6858902 9.1544981 5.54767609
v -20.05194855 9.10367393 5.60594273
v -16.65679741 10.96854115 10.05622959
v -16.45511246 10.77925396 9.82451439
v -16.93338776 11.40552044 9.95241261
v -16.86745453 10.35965538 9.67029953
v -16.48300552 10.55618 9.50640488
v -16.74979591 10.57765198 9.95526218
v -18.93714523 9.92103004 5.41405249
v -21.03064919 10.40824509 1.81267858
v -18.81014061 10.04721928 6.14134264
v -18.24497414 11.1564579 6.64090252
v -18.46024704 10.30269527 6.46719408
v -19.08856201 11.94604874 5.96148729
v -18.011549 9.2996521 13.77679825
v -17.99406815 11.90818405 8.60633373
v -17.47819328 11.54474068 9.04524994
v -18.00351524 11.59922028 7.89970779
v -18.50301361 12.30374908 8.18718338
v -17.4578743 12.24581528 10.08149624
v -20.28355026 13.07319927 7.66676283
v -19.22720146 12.95510674 7.05904531
v -21.06202316 9.1327076 7.68883944
v -21.60961914 9.40607548 7.56070518
v -21.42281914 9.07947254 7.00820494
v -21.23669815 9.15607357 7.36043644
v -21.81469917 11.60104752 5.32570648
v -21.26778793 12.11485481 5.12881136
v -21.83598518 10.99378014 5.28004789
v -21.59270859 12.536376 5.72333765
v -21.86192894 12.32558727 5.9009099
v -21.66810608 12.68995285 7.1722064
v -19.85218811 11.72934723 5.3419652
v -21.03064919 11.59660816 1.81267858
v -21.50524139 11.22980881 2.08856177
v -20.27793312 11.39287663 4.98318815
v -19.89791489 11.9294405 4.52532053
v -20.51695633 11.0024271 1.51406324
v -20.66741371 10.5822773 1.6015259
v -19.94122505 11.45371056 21.69843483
v -20.16184235 11.38090038 10.99284649
v -20.18754578 11.16015339 21.69864655
v -19.78180885 11.60031223 10.99251556
v -19.38100815 10.48338604 21.69794655
v -19.07181931 10.7502594 11.64913654
v -19.18117714 10.56443596 11.46007729
v -20.31171989 10.96854019 11.01909637
v -19.8021965 10.85651207 10.39227772
v -20.09464455 11.32428265 10.6747427
v -19.80219841 11.08056736 10.39227772
v -19.712883 10.53155994 10.54540825
v -24.25745583 10.40824413 3.67014956
v -22.81258774 9.99903393 6.20124197
v -23.68399429 11.00242615 6.69868279
v -17.25260735 9.97744656 11.36207771
v -17.71442986 9.76267815 11.74259758
v -17.40284729 10.48048019 11.46807575
v -17.74684715 10.48799515 11.71833038
v -16.63523102 12.12624073 11.45455074
v -15.96848774 12.16537571 15.19000721
v -15.50694847 12.81553459 14.30383682
v -17.15805054 12.12217522 15.25401974
v -15.81313133 13.0869875 14.01632214
v -16.51132584 11.9325695 15.39914513
v -17.15902519 10.69139957 11.52160263
v -17.78704834 11.45960808 11.55941486
v -18.24902725 12.09281254 11.2841444
v -17.95605087 11.31470966 11.65664005
v -17.56360245 11.47692871 11.75435638
v -17.45829201 11.45960808 11.37027931
v -18.80160332 11.44904995 11.60033417
v -18.73829651 12.06504822 5.75612116
v -19.23398018 11.9294405 4.13936996
v -18.63438606 11.82830429 6.32702971
v -19.56291389 11.55560303 10.80789185
v -19.72543716 11.37531376 10.52252483
v -19.75839806 10.41684246 21.69827271
v -19.56291389 10.3814764 10.80789185
v -19.99117088 10.41296864 10.99269772
v -21.87302399 11.7051754 8.43431187
v -21.49664879 11.52977753 8.38432217
v -22.19229889 12.0838232 7.28785324
v -24.45492744 11.5513773 3.78287578
v -24.05998039 11.5513773 3.55742216
v -21.49664879 10.47507668 8.38432312
v -21.87302208 10.2996788 8.43431187
v -21.72505188 10.09928703 8.10636711
v -22.1825161 10.07511806 8.07977295
v -21.55440331 10.17654991 8.00777054
v -21.64277267 10.05880547 7.4314971
v -21.90334892 11.00242615 5.76862478
v -21.22746468 12.47382832 8.23921585
v -21.52326012 12.86041069 7.06995964
v -20.62486649 12.95510674 7.86312151
v -21.32130623 13.01037312 6.56419277
v -19.58654594 12.70324898 5.57889128
v -18.17827415 11.72238731 6.70998859
v -18.59916878 12.47382832 6.7271595
v -18.82135391 9.57261181 9.38126564
v -17.99403381 9.59958935 10.81933498
v -16.21587563 13.16510868 12.50919151
v -16.84455872 10.85651398 10.10582638
v -16.84455872 11.08056831 10.10582638
v -17.00638962 10.43303776 9.82283211
v -17.08251953 11.55560398 9.68945312
v -17.29693794 11.51558208 9.32383633
v -17.46217918 11.37264442 9.03605747
v -17.37881851 11.32863426 -1.20146775
v -17.5709343 11.18682098 8.84665012
v -18.33761787 11.52977753 6.56589413
v -17.78440857 11.00242615 6.24893284
v -18.19220161 10.872262 6.63599682
v -18.1055603 10.2996788 6.26538706
v -20.5905056 12.536376 5.14677
v -21.43777847 12.89983845 6.26692438
v -16.65367699 11.52411175 9.50601101
v -16.87038994 10.76590347 11.78623486
v -17.73706436 10.81438255 12.28499031
v -17.45448303 11.50008488 12.12236977
v -17.49289513 10.50449181 12.14447498
v -17.10861206 10.76395893 11.36406994
v -17.07669449 11.19054413 11.36047363
v -16.83057976 9.45467091 14.97503567
v -14.3408041 10.5002203 13.54220772
v -19.29491997 10.00334644 5.6220293
v -18.90139008 12.24581528 10.91195107
v -19.12258911 12.02679634 11.03983688
v -21.79560852 11.72934628 6.46012163
v -22.47911453 11.92943954 6.01087952
v -23.8925705 11.422575 3.46185589
v -21.64277267 11.94604874 7.43149948
v -21.87615585 11.3943367 5.94542742
v -17.48284531 10.51306438 11.70789719
v -17.86973572 11.18604088 11.93047523
v -17.71417999 10.5946846 11.84098434
v -17.40208626 11.47692871 11.66143608
v -19.07970047 9.13662338 6.96819973
v -18.13428116 9.8133316 8.98599339
v -19.16110039 9.13055706 6.59465122
v -19.5628891 9.08149529 5.9371562
v -19.35421562 9.15607357 6.27744579
v -21.99614334 9.93980598 7.63147402
v -17.42877007 12.40851974 14.94609928
v -18.11658478 11.5144968 14.9126215
v -20.75899315 9.19091129 7.91753531
v -17.24877357 10.37138557 9.43864059
v -17.23656464 9.9720335 9.95561504
v -18.99309349 12.53794289 8.46912575
v -18.60592651 11.72253609 12.61388779
v -16.88602829 10.56457806 10.07394123
v -17.9261837 9.52965355 10.35091496
v -18.43307877 9.52965355 10.64253235
v -21.47823906 11.15645885 8.50209522
v -19.34243393 11.63478088 11.15189934
v -21.45893288 9.09893322 6.42028618
v -18.46348381 11.90556717 6.22886944
v -19.76679039 11.51356983 10.6744585
v -19.46128273 12.86041069 5.88370657
v -19.00956345 12.59382057 6.0437417
v -19.08856583 10.05880547 5.96148634
v -18.53987312 12.12217522 12.85287285
v -22.96567345 10.86537933 8.03404999
v -21.96754837 11.0024271 7.21968174
v -22.96567345 11.13947487 8.03404999
v -21.8730793 10.81532001 7.38517475
v -21.81735802 11.14781761 7.4827857
v -21.78030968 11.0024271 7.5476861
v -17.62267113 10.50187874 11.46484756
v -18.20484352 10.99962997 11.64606667
v -16.35707664 10.83383751 9.42296028
v -16.98821068 10.96854019 9.48366451
v -16.98807716 11.10324287 9.42604923
v -16.35828018 10.83432293 9.15648651
v -16.98746109 11.10275745 9.15957928
v -16.33489227 10.96854019 9.09909153
v -16.98746109 10.83432293 9.15957928
v -15.69326401 13.16510868 13.41731834
v -17.09595299 11.18604088 11.48531818
v -17.34712982 11.50490093 11.48188782
v -17.17337227 10.99962997 11.0526638
v -21.20035553 9.15678215 5.84018755
v -21.27808189 9.201478 6.00402069
v -21.42589378 9.15225983 6.43070173
v -21.72505379 11.90556717 8.1063652
v -21.62686157 11.95763493 7.76257944
v -21.8278656 10.70135212 5.2901516
v -19.65640259 11.15641499 11.2047472
v -19.65628624 11.10275841 11.3380661
v -19.65651703 10.83383751 11.07159424
v -19.65640259 10.7806654 11.2047472
v -17.8517952 10.81532001 5.24079084
v -17.90366173 11.13947487 5.11938
v -19.07895088 10.86537933 5.62573767
v -19.07895088 11.13947487 5.62573767
v -18.95661354 10.85703659 5.83619022
v -19.01309776 11.18953419 5.73902035
v -22.81878662 10.85703659 8.23049641
v -17.1007328 11.48726559 11.91879272
v -20.50601006 9.201478 5.55984926
v -19.11273956 9.19091129 6.97044659
v -19.87016487 9.13216114 5.74730921
vn 0.31972 -0.93665 -0.14306
vn -0.29644 0.93969 0.1706
vn 0.47469 -0.85995 -0.1875
vn -0.29644 0.93969 0.17059
vn 0.0519 -0.97628 0.21022
vn -0.29644 0.93969 0.17059
vn -0.066 -0.96597 0.25008
vn -0.29644 0.93969 0.1706
vn 0.34737 -0.92656 -0.14427
vn 0.90914 0.41634 -0.01094
vn -0.0753 -0.72238 0.68738
vn 0.94512 0.30799 0.10906
vn 0.24484 -0.53259 -0.81018
vn -0.76386 -0.56932 -0.30396
vn 0.44257 -0.25342 0.86018
vn 0.65356 -0.51651 0.55324
vn -0.98662 -0.15221 0.0584
vn -0.16021 -0.78604 -0.59706
vn -0.1778 -0.4462 -0.87709
vn 0.53509 -0.23465 -0.81155
vn -0.01863 -0.31307 -0.94955
vn -0.29644 0.93969 0.17059
vn 0.46036 -0.88253 -0.09594
vn 0.61658 -0.55718 0.55621
vn 0.6025 0.05635 -0.79613
vn 0.88332 -0.39447 -0.25325
vn -0.8592 -0.38884 -0.33253
vn -0.2821 -0.45659 0.84377
vn -0.0766 -0.80827 0.58381
vn -0.29644 0.93969 0.17059
vn -0.21746 -0.94611 -0.23996
vn 0.30684 -0.88029 -0.36184
vn 0.59323 -0.53833 0.59857
vn -0.29644 0.93969 0.1706
vn 0.33245 -0.93345 -0.13472
vn 0.86554 0.50041 -0.02089
vn 0.45418 -0.43906 -0.77521
vn -0.29644 0.93969 0.17059
vn 0.86718 -0.48955 -0.09134
vn 0.97594 -0.16218 -0.14574
vn 0.85113 -0.52092 -0.06493
vn 0.79926 -0.46157 -0.38488
vn -0.75183 0.03732 0.65829
vn -0.91194 0.16912 0.37385
vn -0.51891 0.71893 0.46246
vn -0.60888 0.22088 0.76189
vn 0.29644 -0.93969 -0.17059
vn 0.29644 -0.93969 -0.17059
vn 0.29644 -0.93969 -0.17059
vn -0.98844 -0.12066 0.09176
vn -0.92227 -0.14383 0.35878
vn -0.98572 -0.161 0.04934
vn -0.01664 0.99944 -0.02892
vn 0.20205 0.95229 -0.22872
vn -0.29929 0.95229 0.0597
vn 0.09209 0.9828 0.16007
vn 0.37702 0.20741 -0.90268
vn -0.4234 0.29003 -0.85826
vn -0.04192 0.69209 -0.72059
vn -0.60359 0.33112 0.72528
vn -0.51219 -0 0.85887
vn -0.17691 -0.76718 0.61655
vn -0.26259 -0.74955 0.60763
vn 0.09392 -0.93827 0.33292
vn -0.40829 -0.8549 0.32008
vn -0.43527 -0.5679 -0.69859
vn -0.42419 -0.3818 -0.82115
vn -0.26958 -0.76947 -0.57901
vn -0.51292 -0.54923 -0.65974
vn -0.29644 0.93969 0.17059
vn -0.75169 0.65939 -0.01263
vn -0.21587 0.92842 0.30237
vn -0.20696 0.96598 -0.1551
vn 0.29644 -0.93969 -0.1706
vn 0.29644 -0.93969 -0.17059
vn 0.29644 -0.93969 -0.1706
vn -0.70587 -0.53594 0.46316
vn -0.56155 -0.56763 0.60205
vn -0.70637 -0.55153 0.44368
vn 0.7883 0.49167 0.36992
vn 0.4698 0.82495 0.31423
vn 0.75021 0.37135 0.54707
vn 0.86644 0.49789 0.03724
vn 0.62661 -0.0002 -0.77934
vn 0.62752 -0.00239 -0.77859
vn 0.62688 -0.00298 -0.77911
vn -0.86476 0.36341 0.3466
vn -0.85873 0.3796 0.34422
vn -0.62084 0.69934 0.35422
vn -0.54561 0.8237 0.15438
vn 0.61234 -0.62257 -0.48729
vn 0.72103 -0.38344 -0.57713
vn 0.41978 -0.82791 -0.37194
vn 0.07467 -0.15527 0.98505
vn 0.36524 -0.0535 0.92938
vn 0.07467 -0.15527 0.98505
vn 0.70004 0.56486 0.4369
vn 0.73754 0.15617 0.657
vn 0.93628 0.29449 0.19148
vn 0.76905 0.29932 -0.56478
vn 0.64327 0.668 -0.37413
vn 0.76028 0.32931 -0.55994
vn 0.5266 0.69866 -0.48432
vn 0.63051 -0.70657 -0.32128
vn 0.74571 -0.66504 -0.04049
vn 0.48023 -0.83147 -0.27935
vn 0.47501 -0.86268 -0.17361
vn 0.86597 0.49995 -0.01169
vn 0.8349 0.48238 0.26506
vn 0.98472 0.17407 -0.00521
vn 0.86597 0.49995 -0.01169
vn -0.69019 -0.72362 -0.00298
vn -0.9838 -0.17851 -0.01629
vn -0.17358 -0.98466 -0.01757
vn -0.55237 -0.40206 0.73023
vn -0.42537 -0.27347 0.86272
vn -0.80928 -0.29311 0.50907
vn 0.29644 -0.93969 -0.1706
vn 0.83369 0.35732 -0.42105
vn 0.79544 0.36874 -0.48094
vn 0.86373 0.38247 -0.32815
vn 0.44938 0.44165 -0.77654
vn 0.49924 0.30474 -0.81111
vn 0.02057 0.42072 -0.90696
vn 0.46018 0.48767 -0.7419
vn -0.98865 -0.00094 0.15025
vn -0.98881 0.00095 0.14918
vn -0.98892 -0.0027 0.14842
vn -0.9886 -0.00114 0.15055
vn 0.06585 0.98605 -0.15284
vn 0.05695 0.97323 -0.22266
vn -0.16523 0.98605 -0.0199
vn 0.21109 0.97618 -0.05011
vn -0.90853 -0.41767 0.01104
vn -0.99998 -0 0.00619
vn -0.95268 -0.2827 -0.11171
vn -0.86593 -0.49995 0.01445
vn 0.76424 0.64492 0.00308
vn 0.93964 0.342 0.01015
vn 0.49998 0.86598 0.0099
vn -0.86476 -0.36341 0.3466
vn -0.54561 -0.8237 0.15438
vn -0.38848 -0.86269 0.32381
vn -0.85873 -0.3796 0.34422
vn -0.06207 -0 0.99807
vn 0.0157 0.11141 0.99365
vn 0.21628 -0.39093 0.89465
vn 0.97143 -0.18136 -0.15306
vn 0.97106 -0.17817 -0.15907
vn 0.76843 -0.41959 0.48318
vn 0.79194 -0.5691 0.22127
vn 0.91716 -0.00661 0.39846
vn 0.7655 -0.42052 0.487
vn 0.03144 -0.41959 0.90717
vn -0.11656 -0.0066 0.99316
vn -0.0763 -0.49226 0.8671
vn 0.25735 -0.45256 0.85379
vn -0.00073 0.92927 0.3694
vn 0.42162 0.88592 0.19334
vn -0.70153 -0.66349 0.26007
vn -0.66103 -0.01987 0.75009
vn -0.90337 -0.21533 0.37089
vn -0.76809 -0.56097 0.30879
vn 0.93707 0.34572 -0.04879
vn 0.8449 0.19921 0.49645
vn 0.95602 0.2796 -0.08855
vn 0.9438 0.32731 -0.04601
vn 0.47352 -0.85785 0.19967
vn 0.62192 -0.76718 0.15698
vn 0.20215 -0.91415 0.35138
vn -0.80402 -0.46181 -0.37456
vn -0.48261 0.77442 -0.4091
vn -0.58613 0.73095 -0.34953
vn -0.48668 0.77566 -0.40187
vn -0.66945 0.05286 -0.74097
vn -0.76196 -0.04616 -0.64598
vn -0.6522 0.0936 -0.75225
vn 0.00021 -0.54918 -0.8357
vn -0.31644 -0.50333 -0.80406
vn 0.41035 -0.37253 -0.83236
vn 0.27776 -0.75573 -0.59307
vn -0.09786 0.81077 0.57713
vn 0.75429 -0 0.65654
vn 0.6122 0.52745 0.58908
vn 0.45453 -0.89073 -0.00186
vn -0.06905 -0.99753 -0.01261
vn 0.86597 -0.49995 -0.01169
vn 0.5415 -0.76055 0.35824
vn 0.32202 -0.928 -0.18738
vn -0.04039 -0.99301 -0.11086
vn 0.13461 -0.98001 0.14653
vn -0.63177 0.00158 0.77516
vn -0.63137 -0.00731 0.77544
vn -0.62545 0.02964 0.7797
vn 0.29644 -0.93969 -0.17059
vn 0.29644 -0.93969 -0.1706
vn -0.95213 -0.30474 0.02413
vn -0.9286 -0.24184 -0.28144
vn -0.92822 -0.35226 0.11965
vn 0.70438 0.64687 -0.29225
vn 0.90471 -0.07897 -0.41864
vn 0.72337 0.62903 -0.28471
vn 0.72916 0.56009 -0.39323
vn 0.08835 0.98418 0.15357
vn 0.29208 0.95411 -0.06612
vn -0.48203 -0.81589 0.31933
vn 0.88315 0.01068 -0.46898
vn -0.4823 -0.77243 0.41321
vn -0.73732 -0.66062 0.14123
vn -0.98853 -0.0023 0.15103
vn -0.97307 0.01179 0.23019
vn -0.47634 0.17698 -0.86126
vn -0.50611 0.08229 -0.85854
vn -0.63259 0.4253 -0.64726
vn -0.33064 0.27086 -0.90405
vn -0.98883 0.00154 0.14907
vn -0.98877 0.00477 0.14938
vn -0.54763 0.82282 0.15191
vn -0.72751 0.62944 0.273
vn -0.69757 0.68593 0.20713
vn 0.72857 -0.3796 -0.57017
vn 0.78513 -0.19382 -0.58822
vn 0.73365 -0.36341 -0.57419
vn -0.76599 0.64275 0.01141
vn -0.91082 0.41275 0.00632
vn -0.49999 0.86602 0.00441
vn 0.86595 -0.49995 0.01337
vn 0.8561 -0.51666 0.01262
vn -0.98477 0.17365 0.00835
vn -0.93924 0.33733 -0.06359
vn -0.59848 0.1054 -0.79418
vn -0.95785 0.16886 -0.23239
vn -0.69473 -0 -0.71927
vn -0.45203 -0.47888 -0.75256
vn 0.27155 -0.91402 -0.30138
vn 0.28023 -0.90951 -0.30701
vn -0.85318 0.39557 0.33999
vn -0.62901 -0.02413 -0.77702
vn -0.58821 -0.05329 -0.80695
vn 0.03769 0.69305 -0.71991
vn 0.24831 0.7148 0.65376
vn 0.01978 0.61883 0.78527
vn 0.21811 0.72921 0.6486
vn 0.22023 0.81542 0.53533
vn -0.20982 0.18278 0.9605
vn 0.01618 0.02861 0.99946
vn -0.32374 -0.23464 0.91659
vn 0.57058 -0.70464 -0.4218
vn 0.28796 -0.62141 0.72865
vn 0.10964 0.46248 0.87983
vn -0.43419 0.79307 0.42721
vn 0.40073 0.59518 0.69655
vn 0.00907 0.43455 0.9006
vn 0.02365 0.99104 -0.13147
vn -0.24992 0.95953 0.12975
vn -0.12595 0.99104 -0.04451
vn -0.07992 0.91554 0.3942
vn -0.4383 0.86702 0.23698
vn 0.86444 0.00439 -0.50271
vn 0.85997 -0.01823 -0.51002
vn 0.86461 0 -0.50244
vn 0.87177 -0.0106 -0.4898
vn 0.41761 -0.90857 0.01045
vn -0.07251 -0.99737 0.00194
vn 0.17364 -0.9848 -0.00441
vn -0.14486 0.53761 0.83066
vn 0.33151 0.47986 0.8123
vn -0.24345 0.59223 0.76811
vn -0.04819 0.99166 -0.11953
vn -0.54561 0.8237 0.15438
vn -0.37279 0.89569 0.24243
vn -0.06285 0.99193 -0.11011
vn 0.24255 -0.25359 0.93641
vn 0.40146 -0.68972 0.60259
vn 0.20892 -0.33792 0.91769
vn -0.33518 -0.63579 0.69529
vn 0.98845 -1E-05 -0.15157
vn 0.98844 1E-05 -0.15161
vn 0.9895 0.02481 -0.14237
vn 0.98771 0.01147 -0.15589
vn -0.37032 0.59659 0.712
vn -0.72237 0.62509 0.29571
vn -0.57695 0.72075 0.38425
vn -0.42145 0.82386 0.379
vn -0.7948 0.58992 -0.14245
vn -0.71054 0.57233 0.40936
vn 0.62703 0.00071 -0.779
vn 0.62671 0.00095 -0.77925
vn 0.62615 -0.00013 -0.7797
vn 0.81821 0.57477 0.01307
vn 0.86911 0.48857 -0.07709
vn 0.62394 0.77988 0.04976
vn 0.09396 -0.93827 0.33289
vn 0.06283 -0.99203 0.10921
vn 0.51509 -0.55778 0.65081
vn 0.03549 -0.82495 0.56409
vn 0.32698 -0.5963 0.73315
vn -0.07399 0.98229 -0.17213
vn 0.93252 0.35489 -0.0668
vn 0.56209 -0.32966 0.75854
vn 0.4153 -0.31887 0.85197
vn 0.63185 -0.65956 0.40711
vn -0.86809 -0 0.49642
vn -0.86817 9E-05 0.49627
vn -0.87146 -0.00669 0.49042
vn -0.86268 0.00159 0.50575
vn -0.48397 -0.52092 0.70315
vn -0.3048 -0.81408 0.49435
vn -0.62714 0.27788 0.72765
vn -0.8589 0.51206 -0.00919
vn -0.64565 0.76359 -0.00854
vn -0.9838 0.17851 -0.01629
vn -0.86634 -0.00204 0.49945
vn -0.86596 -0.00088 0.50012
vn -0.86664 -0.00262 0.49892
vn 0.59777 0.48391 0.63914
vn 0.81258 0.4911 0.31389
vn 0.53668 -0.46185 0.70617
vn 0.49457 0.01372 0.86903
vn 0.70672 -0.27225 0.65301
vn -0.38983 -0.08821 0.91665
vn -0.12668 0.85506 -0.50281
vn -0.08772 0.84369 -0.52962
vn -0.30067 0.81676 -0.49244
vn -0.7042 0.41273 -0.57771
vn -0.38218 0.64237 -0.66431
vn -0.17359 0.98469 -0.0158
vn -0.1565 0.98754 -0.01632
vn 0.0704 0.9975 -0.00667
vn -0.49879 0 -0.86673
vn -0.49879 0 -0.86673
vn -0.42333 0.02404 -0.90566
vn -0.37044 0.07017 -0.9262
vn -0.12153 0.1559 -0.98027
vn 0.29644 -0.93969 -0.1706
vn 0.29644 -0.93969 -0.1706
vn 0.59828 0.08844 0.79639
vn 0.88612 0.15135 0.43805
vn -0.50256 -0 -0.86454
vn -0.50256 0 -0.86454
vn -0.50256 -0 -0.86454
vn -0.39694 -0.91402 0.08371
vn -0.22484 -0.9744 -0.00112
vn -0.53234 -0.82791 0.17654
vn -0.2072 0.56879 0.79596
vn -0.06992 -0.02212 0.99731
vn -0.35854 0.92249 0.14303
vn -0.59098 0.75801 0.27598
vn -0.23391 0.90799 0.34762
vn 0.50655 0.74114 -0.4406
vn -0.07843 0.99166 -0.10227
vn 0.41942 0.82545 -0.37779
vn 0.98803 -0.00596 -0.15413
vn 0.98812 -0.00147 -0.15368
vn 0.88735 -0.03518 0.45976
vn 0.83653 0.35907 0.41388
vn 0.49867 0 0.86679
vn 0.49867 0 0.86679
vn 0.49867 -0 0.86679
vn 0.66119 -0.74704 0.06895
vn 0.47464 -0.85578 -0.20582
vn 0.51851 -0.81586 -0.25598
vn 0.59922 -0.77285 -0.20891
vn 0.85364 -0.0126 -0.52071
vn 0.50912 -0.72143 -0.46939
vn 0.00087 -0 1
vn 0.00087 -0 1
vn 0.00086 -0 1
vn -0.64276 -0.76602 0.00804
vn -0.1868 -0.98018 0.06604
vn 0.085 -0.99234 -0.08962
vn -0.28874 -0.94315 0.16464
vn -0.23548 -0.97162 -0.02266
vn 0.03283 -0.95297 0.30129
vn 0.43679 -0.89805 0.05225
vn 0.01434 -0.85032 0.52606
vn -0.49576 -0 -0.86846
vn -0.49576 0 -0.86846
vn -0.49576 0 -0.86846
vn 0.72068 0.37852 -0.58082
vn 0.77457 0.21465 -0.59495
vn 0.61775 0.61136 -0.4946
vn -0.88121 0.4364 0.18173
vn -0.5659 0.79847 0.20541
vn -0.91191 0.39618 0.10704
vn -0.87753 0.32855 0.34928
vn -0.48046 0.39031 0.78538
vn -0.55071 0.39618 0.73468
vn -0.18737 0.10817 0.97631
vn -0.11751 0.67359 0.72971
vn 0.11527 -0.93201 -0.34362
vn 0.75472 0.53641 -0.37771
vn 0.80252 0.56797 -0.18265
vn 0.71903 -0.31683 -0.61856
vn 0.68403 -0.56937 -0.45598
vn -0.50146 -0.70655 -0.49932
vn 0.86499 -0.00331 -0.50179
vn 0.8699 0.00669 -0.49319
vn 0.86279 0.00197 -0.50556
vn 0.19536 0.92006 0.33958
vn -0.05522 0.89514 0.44235
vn 0.1425 0.92881 0.34205
vn -0.27275 0.78078 0.56213
vn 0.2289 0.89564 0.38136
vn 0.64279 0.76602 -0.00599
vn 0.54904 0.65574 0.51823
vn -0.61531 -0.05381 -0.78645
vn -0.83759 -0.1471 -0.52613
vn -0.80635 -0.07797 -0.58628
vn -0.82249 -0.12774 -0.55424
vn 0.40726 0.8237 -0.39454
vn -0.50256 -0 -0.86454
vn -0.50257 -0 -0.86454
vn 0.30388 0.92249 -0.23805
vn 0.35437 0.93391 0.04723
vn 0.52624 0.76713 -0.36686
vn 0.55745 -0.72928 -0.39675
vn 0.8357 -0.42489 -0.34796
vn 0.20205 -0.95229 -0.22872
vn 0.41974 -0.87379 -0.2456
vn -0.01664 -0.99944 -0.02892
vn 0.35437 -0.93391 0.04723
vn 0.98844 -0 -0.1516
vn 0.988 -0 -0.15444
vn 0.41475 0.05817 0.90808
vn -0.28631 0.58046 0.76229
vn -0.3253 0.69985 0.63591
vn -0.46044 0.47296 0.7512
vn -0.85886 -0.02253 0.51171
vn -0.86941 0.02809 0.49329
vn -0.85847 0.03741 0.5115
vn -0.63272 -0.77427 0.01324
vn -0.6863 -0.60898 -0.39767
vn -0.66893 -0.69048 -0.27528
vn -0.94143 -0.2249 -0.25125
vn -0.60489 -0.76153 0.23276
vn -0.34816 -0.92337 0.16181
vn -0.4667 -0.52752 0.70987
vn -0.04479 -0.88592 0.46166
vn 0.09209 -0.9828 0.16007
vn -0.19509 -0.89396 0.40345
vn 0.47028 0.28456 0.83538
vn 0.50818 0.6631 0.54959
vn -0.62664 0.00107 0.77931
vn -0.63666 0.00514 0.77112
vn 0.21347 0.97681 0.01655
vn -0.17364 0.9848 0.00318
vn -0.02589 0.96413 -0.26417
vn -0.39242 0.45534 -0.79917
vn -0.36768 0.63581 -0.67864
vn -0.47396 0.87768 0.07098
vn -0.68263 0.73075 -0.00426
vn -0.27547 0.83356 -0.47884
vn -0.69429 0.67387 -0.25269
vn 0.11811 0.58972 -0.79892
vn 0.4294 0.48542 -0.76156
vn 0.53949 0.82386 -0.17382
vn 0.54733 0.81613 -0.18538
vn 0.43457 0.88667 -0.15799
vn 0.25673 -0.89533 0.36396
vn -0.16735 -0.96605 0.19684
vn -0.62567 -0.00559 0.78007
vn 0.7264 0.33781 -0.59852
vn 0.3811 0.22591 -0.89651
vn 0.49524 0.01112 0.86868
vn 0.49524 0.01112 0.86868
vn -0.92045 0.39031 0.02083
vn -0.57997 0.73648 -0.34818
vn -0.65163 0.64505 -0.39911
vn -0.22321 -0.24184 0.94429
vn -0.4988 3E-05 -0.86672
vn -0.4988 4E-05 -0.86672
vn -0.85318 -0.39557 0.33999
vn -0.87572 0.06783 0.47803
vn 0.63218 0 0.77482
vn 0.38191 0.71296 0.58807
vn 0.1928 -0.90128 0.38798
vn -0.60185 0.34557 0.71998
vn -0.39037 -0.70637 -0.59046
vn 0.16104 -0.93317 0.32134
vn -0.53194 -0.45448 -0.71448
vn 0.00087 -0 1
vn 0.00088 1E-05 1
vn 0.17727 0.98416 0.00321
vn 0.09483 -0.51285 0.85322
vn -0.56269 -0.26644 0.78255
vn -0.5902 -0.80537 0.05512
vn -0.5158 -0.29814 0.80316
vn 0.97147 -0 0.23717
vn -0.09574 0 -0.99541
vn -0.0045 -0.39325 -0.91942
vn 0.20881 0.97796 0.00084
vn -0.15406 -0.916 0.37043
vn 0.0923 -0 0.99573
vn 1E-05 -1 0.00182
vn 0.98461 0.1747 -0.00522
vn 0.98476 -0.17383 -0.00522
vn -0.62094 -0.04852 0.78235
vn -0.90337 0.21533 0.37089
vn -0.93131 -0 0.36422
vn 0.3812 0.89809 -0.21937
vn 0.51562 0.8453 -0.14001
vn 0.38011 0.8453 -0.37548
vn 0.12062 0.99027 -0.06941
vn -0.00457 0.50028 -0.86585
vn -0.45121 0.72921 -0.51445
vn 0.09914 0.81847 -0.56593
vn -0.49576 0 -0.86846
vn -0.49576 0 -0.86846
vn 0.58431 0.80556 0.09829
vn 0.74634 0.50028 0.43898
vn 0.53913 0.81847 0.19862
vn -0.19404 0.18835 -0.96274
vn -0.07467 0.15527 -0.98505
vn -0.03074 0.9981 -0.05344
vn -0.43438 0.75477 0.49157
vn 0.62725 0.76084 -0.16635
vn 0.61924 0.7791 -0.0977
vn -0.03074 0.9981 -0.05344
vn -0.21889 0.18194 -0.95864
vn 0.30538 -0.80731 -0.50497
vn -0.0212 -0.85621 -0.51619
vn 0.96532 0.21184 -0.15261
vn 0.97822 0.16441 -0.12667
vn 0.62781 0.0038 -0.77836
vn 0.62391 -0.00012 -0.7815
vn 0.41821 0.88758 0.19315
vn -0.10906 0.98404 0.1406
vn 0.50194 0.84849 0.16769
vn 0.40726 -0.8237 -0.39454
vn 0.24947 -0.91285 -0.32322
vn 0.89224 0.16384 0.42079
vn 0.97503 -0.2156 0.05322
vn 0.86599 -0.00163 -0.50006
vn 0.91113 -0.00154 -0.41212
vn 0.87117 0.01117 -0.49085
vn -0.62729 -0.69619 -0.34904
vn -0.90852 -0.06995 -0.41194
vn -0.55801 -0.78933 -0.25608
vn 0.54574 -0.83101 -0.10764
vn 0.85403 -0.51556 -0.06953
vn 0.42536 0.9032 0.05743
vn 0.39059 0.89963 -0.19521
vn -0.17392 0.89805 0.40406
vn 0.54939 0.81282 0.19364
vn 0.48023 0.83147 -0.27935
vn -0.18712 0.9322 0.30983
vn 0.07608 0.98241 0.17052
vn -0.14247 0.8719 0.4685
vn 0.70157 0.64712 0.29839
vn 0.40146 0.68972 0.60259
vn 0.97455 0.21748 -0.05444
vn -0.44885 -0.10636 -0.88726
vn -0.47965 -0.04359 -0.87638
vn -0.00384 0.00033 -0.99999
vn 0.62744 -0.00017 -0.77867
vn -0.90826 -0.40744 -0.09513
vn -0.57999 -0.69076 -0.43181
vn -0.15889 0.91664 -0.36677
vn -0.00302 -0.92768 -0.37336
vn -0.15076 -0.37714 0.9138
vn -0.8475 0.2793 -0.45137
vn 0.15906 0.91662 0.36675
vn -0.15875 -0.91696 -0.36603
vn -0.56757 -0.28294 -0.77318
vn -0.77179 0.07453 -0.6315
vn -0.33518 -0.63579 0.69529
vn -0.54648 -0.09768 0.83176
vn -0.59423 -0.70657 0.38425
vn 0.86562 0 -0.5007
vn 1 0 0.00289
vn -0.61342 -0.1859 0.76757
vn -0.85322 0.00877 0.52148
vn -0.61261 -0.18225 0.76909
vn 0.90856 -0.41767 -0.00815
vn 0.00231 0 -1
vn 0.00231 -1E-05 -1
vn 0.00232 0 -1
vn -0.00748 0.38244 -0.92395
vn -0.21489 -0 -0.97664
vn 0.46489 0.03436 0.8847
vn 0.60613 0.0956 0.7896
vn 0.30136 0.14406 0.94257
vn 0.01768 0.64504 0.76394
vn 0.9494 0.1886 -0.25114
vn 0.46626 -0.88393 -0.0357
vn 0.95031 -0.14151 -0.27726
vn -0.51486 -0.48955 0.70375
vn -0.73448 -0.46157 0.49748
vn 0.87038 -0.19488 -0.45218
vn 0.78513 0.19382 -0.58822
vn 0.29127 0.37606 0.87962
vn 0.39568 -0 0.91839
vn 0.04497 0.9989 0.01346
vn 0.90677 0.15997 -0.39011
vn 0.98959 -0.11095 -0.09166
vn -0.22472 -0.91748 -0.32822
vn 0.1421 -0.93329 0.32982
vn -0.28916 -0.31346 -0.90451
vn 0.18869 -0.97998 -0.06345
vn -0.2343 -0.95559 0.17877
vn -0.23012 -0.89564 -0.38063
vn -0.342 -0.93967 0.00778
vn -0.40476 -0.91285 0.05366
vn -0.49576 0 -0.86846
vn 0.9286 0.24184 0.28145
vn -0.78539 0.61638 -0.05692
vn -0.45751 0.70147 -0.54646
vn 0.04913 0.99878 0.00568
vn -0.53446 0.44614 -0.71785
vn 0.91543 -0.36284 0.17417
vn 0.91015 -0.41425 -0.00487
vn -0.93708 -0.32339 0.13152
vn -0.64571 -0.68545 0.33648
vn -0.86896 0.06915 0.49002
vn 0.55826 -0.74911 -0.35663
vn 0.57338 -0.40517 -0.71209
vn 0.43075 0.6263 0.64978
vn 0.33615 0.61141 0.71637
vn 0.17059 0.77669 0.60634
vn 0.9881 0.00082 -0.1538
vn 0.90302 -0.25076 0.34883
vn 0.69092 -0.01531 0.72277
vn 0.94356 -0.32051 0.0835
vn -0.0717 -0.96307 0.25953
vn -0.20692 -0.97789 0.03039
vn -0.99973 0 -0.0231
vn -0.50256 1E-05 -0.86454
vn 0.5932 -0.7966 -0.11633
vn 0.17491 -0.81552 0.55166
vn -0.86623 -0.00407 0.49963
vn -0.86549 0.00121 0.50092
vn -0.59165 0.73535 0.33047
vn 0.37753 0.75067 -0.54219
vn -0.88245 -0.33781 0.32735
vn -0.30558 0.82727 0.47143
vn -0.00113 0.95512 0.29623
vn -0.59987 0.4364 0.67061
vn -0.51696 0.70523 0.48518
vn -0.74289 0.32855 0.58324
vn -0.77333 -0.14585 0.617
vn -0.84665 -0.29299 0.44422
vn 0.47972 0.47839 0.73554
vn -0.00188 0.9239 -0.38263
vn 0.00452 0.39252 0.91973
vn -0.48257 -0.83147 0.27529
vn -0.44808 -0.43885 -0.77887
vn -0.48257 0.83147 0.27529
vn -0.67548 0.42814 0.60035
vn 0.92831 -0.1915 -0.31871
vn -0.31495 0.70637 -0.63391
vn -0.35223 -0.70636 -0.61399
vn 0.08569 -0.07057 -0.99382
vn -0.09696 -0.97121 0.21761
vn -0.52714 -0.29466 0.79706
vn -0.72085 0.62532 0.29893
vn -0.7612 0.53264 0.36996
vn -0.55177 0.28537 0.78365
vn -0.22111 0.97323 -0.06269
vn -0.14942 0.97618 0.15729
vn -0.35502 0.88667 0.29626
vn 0.00087 -0 1
vn 0.49606 0.41472 -0.76284
vn 0.46737 -0.86982 -0.15806
vn 0.80272 -0.58075 0.13552
vn 0.85702 -0.51406 0.03539
vn 0.09852 0.97162 -0.21507
vn -0.7414 -0.1915 0.64316
vn -0.4841 0.83811 -0.25143
vn -0.4841 0.83811 -0.25143
vn -0.95388 0.25365 -0.16052
vn -0.9101 -0.18106 -0.37274
vn -0.97044 -0.03604 -0.23862
vn 0.6233 0.67225 -0.39947
vn 0.84727 -0.05732 -0.52806
vn 0.62309 0.67367 -0.3974
vn 0.95122 0.3058 0.04073
vn 0.69399 -0.6665 -0.27231
vn -0.72683 -0.23783 -0.64433
vn -0.47928 -0.18118 -0.85876
vn -0.44753 -0.09685 -0.88901
vn 0.95359 -0.29814 -0.04218
vn 0.49867 0 0.86679
vn 0.6527 -0.75325 0.08119
vn -0.83509 -0.51613 0.19036
vn 0.42488 0.86702 -0.26027
vn 0.28272 0.94264 -0.17747
vn 0.25423 0.96605 -0.04602
vn 0.66632 -0.72031 -0.19279
vn 0.8588 -0.42129 -0.29149
vn 0.18995 -0.92058 0.34126
vn 0.2116 -0.90551 0.36781
vn 0.81004 -0.54442 0.21781
vn -0.09236 -0.44953 -0.88848
vn 0.09651 -0.23945 -0.9661
vn 0.22321 0.24185 -0.94429
vn 0.70759 0.66884 -0.22798
vn 0.40572 0.91247 -0.0527
vn -0.08473 0.16385 0.98284
vn -0.44411 -0.21559 0.86965
vn -0.86586 -0.01961 0.49991
vn 0.49866 0 0.8668
vn -0.69935 0.53636 0.47247
vn -0.42875 0.89903 -0.08899
vn -0.0044 0.99934 -0.03606
vn 0.57173 -0.68334 0.45406
vn 0.36227 0.17891 0.91474
vn 0.86918 -0.00598 -0.49447
vn -0.58372 -0.6665 0.46373
vn -0.32039 0.54772 -0.77289
vn 0.29644 -0.93969 -0.1706
vn 0.29644 -0.93969 -0.1706
vn 0.24761 0.74918 -0.61434
vn 0.29961 0.87768 -0.37405
vn 0.30044 0.82655 -0.47598
vn 0.56037 0.61952 -0.54971
vn -0.62699 4E-05 0.77903
vn 0.10597 0.68334 0.72237
vn 0.79636 0.45516 -0.3983
vn -0.04485 -0.99888 -0.01503
vn -0.37639 0.17586 -0.90962
vn -0.50903 0.48348 0.71213
vn -0.74498 0.56125 0.36055
vn 0.65742 -0.73868 0.14884
vn 0.23677 -0.87165 0.42916
vn 0.89866 0.1129 0.42388
vn 0.97537 0.21386 0.05394
vn 0.08709 0.81225 -0.57677
vn 0.20858 0.80556 -0.55459
vn 0.31971 -0.92927 0.18505
vn 0.11166 0.98229 0.15045
vn 0.54244 0.81225 0.21448
vn 0.29644 -0.93969 -0.1706
vn -0.86846 0 0.49576
vn -0.86846 -0 0.49576
vn 0.3811 -0.91554 0.12862
vn 0.31001 -0.95057 -0.01785
vn -0.15083 0.93884 0.30957
vn -0.57535 -0.12628 0.8081
vn 0.55148 0.08809 0.82952
vn -0.20735 -0.94189 0.26428
vn 0.76901 -0.24437 -0.59068
vn -0.8795 -0.11824 0.46097
vn -0.77991 -0.25318 0.5724
vn -0.77991 -0.25318 0.5724
vn -0.88246 -0.33781 0.32735
vn -0.50255 1E-05 -0.86455
vn -0.39558 0.07474 -0.91539
vn 0.65534 0.51867 -0.54911
vn -0.40394 -0.49793 0.7674
vn -0.20397 0.95411 0.21926
vn -0.53101 -0.3771 0.75883
vn -0.23121 -0.85235 0.46908
vn -0.88968 0.00039 -0.45659
vn -0.82993 -0.04226 -0.55627
vn -0.15067 -0.50883 0.84758
vn 0.87038 0.19488 -0.45218
vn -0.85437 -0.51863 -0.03274
vn -0.43986 -0.87612 0.19731
vn -0.35499 -0.93201 -0.07308
vn -0.30515 0.92545 -0.22456
vn 0.36689 -0.89357 -0.25872
vn 0.86454 0 -0.50256
vn 0.86454 0 -0.50256
vn -0.22321 -0.24184 0.94429
vn 0.99906 -0.03202 0.02908
vn 0.4154 0.29224 0.86142
vn 0.44684 0.89396 0.03415
vn 0.00087 0 1
vn -0.93608 -0 0.35178
vn -0.82781 0.19488 0.52608
vn 0.25539 -0 0.96684
vn 0.87391 -0.30374 -0.37951
vn 0.7264 0.33781 -0.59852
vn 0.43842 -0.77669 0.45226
vn 0.92796 0.00894 -0.37257
vn -0.41341 0.19387 -0.88966
vn 0.96604 -0.07778 0.24642
vn -0.85001 0.36666 -0.3782
vn -0.7463 0.38334 -0.54414
vn -0.08571 0.03426 0.99573
vn -0.49879 -0 -0.86672
vn -0.03747 -0.9992 -0.01379
vn -1 -0 0.00087
vn -1 0 0.00087
vn 1 0 0.00231
vn 1 -0 0.00231
vn -0.3948 -0.8166 0.42107
vn 0.29644 -0.93969 -0.17059
vn 0.19367 -0.97955 -0.05462
vn -0.49576 -1E-05 -0.86846
f 1//1 2//1 3//1
f 4//2 5//2 6//2
f 7//3 8//3 9//3
f 10//4 11//4 12//4
f 13//5 14//5 8//5
f 10//6 15//6 16//6
f 1//7 17//7 2//7
f 4//8 6//8 18//8
f 1//9 3//9 19//9
f 6//10 5//10 20//10
f 21//11 14//11 13//11
f 11//12 10//12 7//12
f 9//13 22//13 12//13
f 15//14 22//14 16//14
f 5//15 4//15 1//15
f 5//16 1//16 19//16
f 18//17 2//17 17//17
f 2//18 18//18 3//18
f 3//19 18//19 23//19
f 20//20 3//20 23//20
f 12//21 22//21 15//21
f 10//22 12//22 15//22
f 13//23 8//23 7//23
f 10//24 13//24 7//24
f 11//25 9//25 12//25
f 11//26 7//26 9//26
f 22//27 14//27 16//27
f 21//28 16//28 14//28
f 4//29 17//29 1//29
f 4//30 18//30 17//30
f 14//31 22//31 8//31
f 8//32 22//32 9//32
f 10//33 21//33 13//33
f 21//34 10//34 16//34
f 19//35 3//35 20//35
f 5//36 19//36 20//36
f 20//37 23//37 6//37
f 18//38 6//38 23//38
f 24//39 25//39 26//39
f 27//40 24//40 26//40
f 24//41 28//41 25//41
f 26//42 25//42 29//42
f 30//43 31//43 32//43
f 32//44 31//44 33//44
f 32//45 34//45 30//45
f 31//46 30//46 35//46
f 36//47 37//47 38//47
f 36//48 39//48 37//48
f 38//49 37//49 40//49
f 41//50 42//50 43//50
f 43//51 42//51 44//51
f 41//52 45//52 42//52
f 46//53 47//53 48//53
f 47//54 49//54 48//54
f 46//55 48//55 50//55
f 51//56 47//56 46//56
f 52//57 53//57 54//57
f 54//58 53//58 55//58
f 56//59 52//59 54//59
f 57//60 58//60 59//60
f 60//61 57//61 59//61
f 61//62 62//62 63//62
f 61//63 64//63 62//63
f 63//64 62//64 65//64
f 66//65 61//65 63//65
f 67//66 68//66 69//66
f 70//67 67//67 69//67
f 68//68 67//68 71//68
f 68//69 72//69 69//69
f 73//70 74//70 75//70
f 75//71 76//71 73//71
f 77//72 74//72 73//72
f 74//73 78//73 75//73
f 79//74 80//74 81//74
f 79//75 82//75 83//75
f 80//76 83//76 84//76
f 85//77 86//77 87//77
f 88//78 85//78 87//78
f 86//79 89//79 87//79
f 90//80 91//80 92//80
f 91//81 90//81 51//81
f 91//82 93//82 92//82
f 90//83 92//83 94//83
f 26//84 95//84 96//84
f 26//85 29//85 95//85
f 26//86 96//86 97//86
f 98//87 99//87 100//87
f 99//88 101//88 100//88
f 102//89 98//89 100//89
f 98//90 103//90 99//90
f 104//91 105//91 106//91
f 107//92 106//92 105//92
f 108//93 105//93 104//93
f 109//94 110//94 111//94
f 112//95 110//95 109//95
f 110//96 113//96 111//96
f 114//97 115//97 116//97
f 115//98 117//98 116//98
f 114//99 116//99 38//99
f 118//100 119//100 120//100
f 121//101 119//101 118//101
f 119//102 122//102 120//102
f 118//103 120//103 123//103
f 124//104 125//104 126//104
f 126//105 127//105 124//105
f 124//106 128//106 125//106
f 126//107 125//107 129//107
f 130//108 131//108 132//108
f 130//109 133//109 131//109
f 131//110 134//110 132//110
f 135//111 130//111 132//111
f 136//112 137//112 138//112
f 139//113 138//113 137//113
f 136//114 138//114 140//114
f 36//115 141//115 39//115
f 36//116 142//116 141//116
f 44//117 39//117 141//117
f 39//118 143//118 37//118
f 144//119 40//119 37//119
f 144//120 37//120 145//120
f 144//121 146//121 40//121
f 145//122 147//122 148//122
f 80//123 147//123 145//123
f 147//124 149//124 148//124
f 145//125 148//125 150//125
f 151//126 152//126 153//126
f 151//127 154//127 152//127
f 152//128 155//128 153//128
f 151//129 153//129 156//129
f 157//130 158//130 159//130
f 159//131 158//131 160//131
f 161//132 157//132 159//132
f 162//133 158//133 157//133
f 163//134 164//134 165//134
f 166//135 164//135 163//135
f 164//136 167//136 165//136
f 163//137 165//137 168//137
f 169//138 170//138 171//138
f 170//139 172//139 171//139
f 173//140 170//140 169//140
f 174//141 175//141 176//141
f 176//142 175//142 177//142
f 178//143 174//143 176//143
f 101//144 175//144 174//144
f 179//145 57//145 60//145
f 179//146 180//146 57//146
f 181//147 179//147 60//147
f 182//148 24//148 27//148
f 182//149 183//149 24//149
f 184//150 185//150 186//150
f 186//151 185//151 187//151
f 188//152 184//152 186//152
f 184//153 189//153 185//153
f 190//154 191//154 192//154
f 190//155 193//155 191//155
f 192//156 191//156 88//156
f 194//157 190//157 192//157
f 195//158 51//158 46//158
f 51//159 90//159 47//159
f 196//160 197//160 198//160
f 197//161 199//161 198//161
f 199//162 196//162 198//162
f 196//163 200//163 197//163
f 201//164 202//164 119//164
f 201//165 203//165 202//165
f 119//166 202//166 204//166
f 121//167 201//167 119//167
f 205//168 206//168 207//168
f 205//169 207//169 28//169
f 63//170 206//170 205//170
f 208//171 207//171 206//171
f 75//172 78//172 209//172
f 210//173 75//173 209//173
f 78//174 211//174 209//174
f 212//175 213//175 214//175
f 214//176 213//176 215//176
f 212//177 214//177 209//177
f 71//178 67//178 96//178
f 71//179 216//179 68//179
f 95//180 71//180 96//180
f 217//181 71//181 95//181
f 218//182 133//182 130//182
f 133//183 218//183 219//183
f 220//184 218//184 130//184
f 221//185 140//185 222//185
f 221//186 136//186 140//186
f 132//187 222//187 140//187
f 223//188 221//188 222//188
f 124//189 224//189 128//189
f 224//190 225//190 128//190
f 226//191 224//191 124//191
f 227//192 199//192 228//192
f 227//193 229//193 199//193
f 228//194 199//194 197//194
f 230//195 79//195 81//195
f 79//196 83//196 80//196
f 45//197 79//197 42//197
f 45//198 82//198 79//198
f 42//199 79//199 230//199
f 231//200 232//200 233//200
f 233//201 232//201 182//201
f 234//202 231//202 233//202
f 235//203 232//203 231//203
f 236//204 162//204 157//204
f 162//205 237//205 158//205
f 238//206 239//206 240//206
f 241//207 238//207 240//207
f 64//208 239//208 238//208
f 239//209 153//209 240//209
f 156//210 153//210 239//210
f 151//211 156//211 35//211
f 55//212 242//212 243//212
f 55//213 244//213 242//213
f 243//214 242//214 245//214
f 54//215 55//215 243//215
f 246//216 154//216 151//216
f 247//217 246//217 151//217
f 248//218 249//218 250//218
f 248//219 250//219 251//219
f 252//220 249//220 248//220
f 253//221 129//221 254//221
f 253//222 122//222 129//222
f 129//223 125//223 254//223
f 255//224 256//224 257//224
f 256//225 166//225 257//225
f 255//226 258//226 256//226
f 172//227 259//227 260//227
f 260//228 259//228 261//228
f 257//229 166//229 163//229
f 256//230 262//230 166//230
f 263//231 167//231 264//231
f 256//232 264//232 167//232
f 263//233 264//233 265//233
f 266//234 167//234 263//234
f 108//235 267//235 105//235
f 108//236 268//236 267//236
f 100//237 101//237 269//237
f 270//238 271//238 272//238
f 272//239 271//239 273//239
f 147//240 274//240 149//240
f 275//241 276//241 77//241
f 275//242 77//242 277//242
f 275//243 115//243 276//243
f 77//244 276//244 278//244
f 279//245 142//245 113//245
f 110//246 279//246 113//246
f 113//247 142//247 36//247
f 280//248 189//248 184//248
f 189//249 194//249 185//249
f 281//250 282//250 283//250
f 284//251 281//251 283//251
f 285//252 282//252 281//252
f 283//253 282//253 286//253
f 287//254 249//254 252//254
f 229//255 287//255 252//255
f 287//256 288//256 249//256
f 289//257 287//257 229//257
f 229//258 252//258 248//258
f 290//259 171//259 265//259
f 290//260 169//260 171//260
f 171//261 263//261 265//261
f 290//262 265//262 291//262
f 292//263 293//263 261//263
f 292//264 294//264 293//264
f 292//265 261//265 259//265
f 295//266 57//266 180//266
f 296//267 295//267 180//267
f 295//268 102//268 57//268
f 297//269 298//269 103//269
f 103//270 298//270 99//270
f 102//271 297//271 103//271
f 297//272 299//272 298//272
f 300//273 60//273 301//273
f 301//274 302//274 300//274
f 181//275 60//275 300//275
f 301//276 60//276 303//276
f 296//277 304//277 305//277
f 296//278 305//278 106//278
f 106//279 305//279 104//279
f 296//280 106//280 306//280
f 34//281 307//281 30//281
f 34//282 32//282 50//282
f 307//283 308//283 247//283
f 307//284 309//284 308//284
f 310//285 247//285 308//285
f 247//286 151//286 307//286
f 26//287 97//287 311//287
f 311//288 97//288 53//288
f 312//289 26//289 311//289
f 313//290 234//290 233//290
f 313//291 233//291 312//291
f 234//292 313//292 237//292
f 63//293 65//293 206//293
f 314//294 63//294 205//294
f 194//295 192//295 315//295
f 192//296 88//296 315//296
f 185//297 194//297 315//297
f 74//298 316//298 78//298
f 146//299 114//299 40//299
f 219//300 218//300 223//300
f 218//301 317//301 223//301
f 223//302 222//302 219//302
f 318//303 319//303 317//303
f 320//304 319//304 318//304
f 320//305 318//305 220//305
f 320//306 321//306 319//306
f 89//307 64//307 61//307
f 64//308 238//308 62//308
f 30//309 151//309 35//309
f 322//310 323//310 324//310
f 321//311 323//311 322//311
f 323//312 139//312 324//312
f 322//313 324//313 319//313
f 324//314 139//314 319//314
f 321//315 322//315 319//315
f 201//316 325//316 203//316
f 203//317 326//317 202//317
f 127//318 327//318 228//318
f 127//319 228//319 328//319
f 326//320 327//320 127//320
f 327//321 227//321 228//321
f 159//322 160//322 329//322
f 160//323 56//323 329//323
f 330//324 159//324 329//324
f 245//325 242//325 246//325
f 329//326 243//326 245//326
f 320//327 135//327 323//327
f 320//328 323//328 321//328
f 320//329 331//329 135//329
f 332//330 333//330 334//330
f 332//331 335//331 333//331
f 83//332 336//332 337//332
f 83//333 270//333 336//333
f 274//334 83//334 337//334
f 338//335 339//335 117//335
f 338//336 117//336 112//336
f 117//337 115//337 275//337
f 116//338 117//338 339//338
f 225//339 196//339 250//339
f 253//340 250//340 249//340
f 253//341 254//341 225//341
f 340//342 200//342 225//342
f 340//343 225//343 224//343
f 340//344 197//344 200//344
f 282//345 195//345 286//345
f 283//346 286//346 193//346
f 341//347 46//347 50//347
f 342//348 341//348 50//348
f 195//349 46//349 341//349
f 343//350 299//350 344//350
f 297//351 344//351 299//351
f 343//352 345//352 299//352
f 346//353 296//353 343//353
f 343//354 296//354 347//354
f 92//355 93//355 188//355
f 91//356 285//356 93//356
f 348//357 349//357 350//357
f 280//358 349//358 348//358
f 280//359 351//359 349//359
f 28//360 207//360 352//360
f 353//361 205//361 28//361
f 354//362 355//362 29//362
f 25//363 354//363 29//363
f 356//364 354//364 355//364
f 29//365 355//365 95//365
f 168//366 257//366 163//366
f 172//367 255//367 168//367
f 255//368 257//368 168//368
f 168//369 165//369 294//369
f 357//370 177//370 268//370
f 357//371 268//371 108//371
f 303//372 177//372 357//372
f 177//373 267//373 268//373
f 302//374 303//374 357//374
f 302//375 357//375 304//375
f 301//376 303//376 302//376
f 105//377 267//377 175//377
f 99//378 175//378 101//378
f 345//379 105//379 99//379
f 345//380 347//380 107//380
f 347//381 306//381 107//381
f 343//382 347//382 345//382
f 210//383 43//383 76//383
f 76//384 75//384 210//384
f 210//385 41//385 43//385
f 76//386 43//386 44//386
f 277//387 358//387 142//387
f 358//388 359//388 142//388
f 279//389 277//389 142//389
f 77//390 358//390 277//390
f 65//391 62//391 360//391
f 235//392 94//392 232//392
f 235//393 90//393 94//393
f 182//394 361//394 183//394
f 361//395 362//395 183//395
f 294//396 167//396 266//396
f 171//397 293//397 263//397
f 263//398 293//398 266//398
f 171//399 261//399 293//399
f 34//400 162//400 236//400
f 34//401 236//401 309//401
f 34//402 363//402 162//402
f 34//403 309//403 307//403
f 220//404 331//404 320//404
f 130//405 135//405 331//405
f 220//406 130//406 331//406
f 271//407 215//407 273//407
f 364//408 215//408 271//408
f 214//409 215//409 364//409
f 364//410 271//410 82//410
f 288//411 118//411 123//411
f 253//412 225//412 250//412
f 253//413 249//413 123//413
f 47//414 235//414 49//414
f 48//415 49//415 363//415
f 235//416 231//416 49//416
f 362//417 353//417 183//417
f 365//418 362//418 361//418
f 366//419 314//419 353//419
f 366//420 353//420 362//420
f 367//421 314//421 366//421
f 314//422 205//422 353//422
f 296//423 300//423 304//423
f 296//424 368//424 300//424
f 368//425 179//425 181//425
f 195//426 342//426 286//426
f 195//427 341//427 342//427
f 286//428 342//428 369//428
f 369//429 31//429 193//429
f 369//430 33//430 31//430
f 31//431 85//431 193//431
f 240//432 153//432 370//432
f 72//433 68//433 155//433
f 153//434 155//434 68//434
f 152//435 72//435 155//435
f 87//436 89//436 66//436
f 87//437 66//437 367//437
f 66//438 89//438 61//438
f 88//439 367//439 315//439
f 315//440 367//440 366//440
f 88//441 87//441 367//441
f 203//442 325//442 227//442
f 325//443 201//443 371//443
f 227//444 325//444 229//444
f 229//445 251//445 199//445
f 255//446 290//446 258//446
f 255//447 173//447 290//447
f 258//448 290//448 372//448
f 291//449 265//449 264//449
f 291//450 264//450 372//450
f 308//451 161//451 310//451
f 247//452 310//452 330//452
f 330//453 329//453 245//453
f 330//454 245//454 246//454
f 56//455 54//455 329//455
f 311//456 52//456 56//456
f 237//457 313//457 373//457
f 313//458 374//458 373//458
f 237//459 373//459 158//459
f 328//460 226//460 124//460
f 226//461 375//461 224//461
f 228//462 197//462 375//462
f 145//463 37//463 80//463
f 80//464 84//464 147//464
f 81//465 143//465 230//465
f 81//466 37//466 143//466
f 210//467 376//467 41//467
f 210//468 209//468 376//468
f 209//469 214//469 376//469
f 111//470 113//470 36//470
f 38//471 338//471 36//471
f 339//472 338//472 38//472
f 269//473 101//473 174//473
f 100//474 269//474 377//474
f 378//475 379//475 377//475
f 377//476 380//476 378//476
f 379//477 378//477 381//477
f 57//478 102//478 58//478
f 59//479 58//479 381//479
f 58//480 379//480 381//480
f 382//481 59//481 381//481
f 172//482 168//482 259//482
f 172//483 170//483 255//483
f 173//484 169//484 290//484
f 383//485 190//485 194//485
f 350//486 349//486 190//486
f 350//487 190//487 383//487
f 349//488 384//488 190//488
f 133//489 219//489 134//489
f 385//490 386//490 134//490
f 134//491 386//491 387//491
f 386//492 385//492 388//492
f 134//493 389//493 390//493
f 390//494 389//494 391//494
f 387//495 389//495 134//495
f 134//496 390//496 132//496
f 390//497 388//497 132//497
f 229//498 248//498 251//498
f 251//499 250//499 199//499
f 250//500 196//500 199//500
f 392//501 144//501 316//501
f 392//502 146//502 144//502
f 144//503 150//503 316//503
f 392//504 316//504 74//504
f 148//505 149//505 211//505
f 211//506 149//506 209//506
f 78//507 148//507 211//507
f 345//508 99//508 299//508
f 107//509 105//509 345//509
f 114//510 146//510 392//510
f 276//511 115//511 114//511
f 276//512 114//512 278//512
f 274//513 337//513 149//513
f 84//514 83//514 274//514
f 284//515 351//515 281//515
f 349//516 284//516 283//516
f 351//517 393//517 285//517
f 393//518 93//518 285//518
f 351//519 285//519 281//519
f 337//520 394//520 149//520
f 355//521 217//521 95//521
f 217//522 216//522 71//522
f 233//523 182//523 27//523
f 312//524 233//524 27//524
f 312//525 311//525 374//525
f 27//526 26//526 312//526
f 363//527 237//527 162//527
f 48//528 363//528 34//528
f 363//529 234//529 237//529
f 128//530 254//530 125//530
f 128//531 225//531 254//531
f 395//532 184//532 188//532
f 188//533 186//533 365//533
f 232//534 94//534 365//534
f 94//535 188//535 365//535
f 232//536 365//536 182//536
f 153//537 396//537 370//537
f 397//538 396//538 370//538
f 153//539 68//539 396//539
f 241//540 240//540 398//540
f 398//541 240//541 370//541
f 371//542 121//542 287//542
f 287//543 121//543 288//543
f 289//544 371//544 287//544
f 371//545 201//545 121//545
f 121//546 118//546 288//546
f 102//547 399//547 297//547
f 399//548 400//548 297//548
f 295//549 399//549 102//549
f 400//550 399//550 296//550
f 295//551 296//551 399//551
f 400//552 296//552 346//552
f 97//553 401//553 55//553
f 55//554 401//554 244//554
f 97//555 55//555 53//555
f 311//556 53//556 52//556
f 262//557 167//557 164//557
f 165//558 167//558 294//558
f 166//559 402//559 262//559
f 166//560 402//560 403//560
f 402//561 262//561 404//561
f 256//562 167//562 262//562
f 164//563 404//563 262//563
f 164//564 404//564 405//564
f 72//565 152//565 401//565
f 242//566 244//566 154//566
f 303//567 60//567 178//567
f 60//568 59//568 178//568
f 178//569 176//569 303//569
f 171//570 260//570 261//570
f 171//571 172//571 260//571
f 31//572 35//572 89//572
f 31//573 89//573 86//573
f 89//574 35//574 156//574
f 132//575 388//575 222//575
f 140//576 138//576 323//576
f 132//577 323//577 135//577
f 132//578 140//578 323//578
f 403//579 405//579 166//579
f 405//580 164//580 166//580
f 112//581 275//581 110//581
f 117//582 275//582 112//582
f 275//583 279//583 110//583
f 275//584 277//584 279//584
f 93//585 393//585 395//585
f 348//586 189//586 280//586
f 393//587 280//587 184//587
f 89//588 156//588 64//588
f 156//589 239//589 64//589
f 122//590 406//590 129//590
f 120//591 122//591 253//591
f 406//592 407//592 408//592
f 407//593 409//593 408//593
f 410//594 406//594 408//594
f 119//595 204//595 407//595
f 204//596 202//596 126//596
f 411//597 407//597 204//597
f 411//598 409//598 407//598
f 204//599 410//599 411//599
f 348//600 383//600 189//600
f 350//601 383//601 348//601
f 294//602 266//602 293//602
f 168//603 294//603 292//603
f 177//604 175//604 267//604
f 105//605 175//605 99//605
f 116//606 339//606 38//606
f 330//607 246//607 247//607
f 412//608 382//608 380//608
f 412//609 380//609 377//609
f 382//610 412//610 59//610
f 134//489 219//489 385//489
f 385//611 219//611 222//611
f 388//612 385//612 222//612
f 413//613 337//613 332//613
f 413//614 394//614 337//614
f 337//615 336//615 332//615
f 334//616 213//616 212//616
f 334//617 333//617 213//617
f 285//618 51//618 282//618
f 285//619 91//619 51//619
f 282//620 51//620 195//620
f 296//621 306//621 347//621
f 326//622 127//622 202//622
f 326//623 203//623 327//623
f 202//624 127//624 126//624
f 66//625 63//625 314//625
f 367//626 66//626 314//626
f 323//627 138//627 139//627
f 225//628 200//628 196//628
f 352//629 354//629 25//629
f 223//630 319//630 221//630
f 137//631 136//631 319//631
f 139//632 137//632 319//632
f 332//633 336//633 272//633
f 373//634 311//634 56//634
f 42//635 230//635 143//635
f 358//636 77//636 73//636
f 77//637 278//637 74//637
f 358//638 76//638 359//638
f 358//639 73//639 76//639
f 76//640 44//640 359//640
f 359//641 44//641 141//641
f 44//642 42//642 39//642
f 218//643 220//643 318//643
f 386//644 388//644 391//644
f 390//645 391//645 388//645
f 303//646 176//646 177//646
f 206//647 65//647 208//647
f 102//648 103//648 98//648
f 102//649 100//649 58//649
f 204//650 126//650 406//650
f 410//651 204//651 406//651
f 396//652 68//652 216//652
f 217//653 216//653 414//653
f 375//654 340//654 224//654
f 228//655 375//655 226//655
f 50//656 32//656 342//656
f 342//657 32//657 369//657
f 286//658 369//658 193//658
f 161//659 159//659 310//659
f 236//660 157//660 161//660
f 309//661 161//661 308//661
f 259//662 168//662 292//662
f 62//663 238//663 360//663
f 187//664 366//664 362//664
f 186//665 187//665 362//665
f 365//666 186//666 362//666
f 288//667 123//667 249//667
f 59//668 412//668 178//668
f 256//669 258//669 372//669
f 256//670 372//670 264//670
f 376//671 364//671 41//671
f 364//672 82//672 45//672
f 364//673 45//673 41//673
f 333//674 335//674 215//674
f 213//675 333//675 215//675
f 335//676 273//676 215//676
f 114//677 38//677 40//677
f 104//678 305//678 108//678
f 401//679 69//679 72//679
f 70//680 69//680 401//680
f 97//681 70//681 401//681
f 393//682 184//682 395//682
f 393//683 351//683 280//683
f 28//684 352//684 25//684
f 415//685 354//685 352//685
f 346//686 343//686 344//686
f 346//687 344//687 297//687
f 400//688 346//688 297//688
f 353//689 28//689 183//689
f 24//690 183//690 28//690
f 397//691 396//691 216//691
f 397//692 216//692 414//692
f 397//693 398//693 370//693
f 96//694 67//694 70//694
f 96//695 70//695 97//695
f 147//696 84//696 274//696
f 234//697 49//697 231//697
f 49//698 234//698 363//698
f 190//699 384//699 193//699
f 191//700 193//700 85//700
f 31//701 86//701 85//701
f 351//702 284//702 349//702
f 283//703 384//703 349//703
f 335//704 332//704 272//704
f 335//705 272//705 273//705
f 300//706 302//706 304//706
f 368//707 180//707 179//707
f 182//708 365//708 361//708
f 375//709 197//709 340//709
f 54//710 243//710 329//710
f 82//711 271//711 270//711
f 82//712 270//712 83//712
f 290//713 291//713 372//713
f 158//714 373//714 160//714
f 373//715 56//715 160//715
f 374//716 311//716 373//716
f 325//717 289//717 229//717
f 325//718 371//718 289//718
f 374//719 313//719 312//719
f 334//720 394//720 413//720
f 149//721 394//721 212//721
f 30//722 307//722 151//722
f 369//723 32//723 33//723
f 328//724 124//724 127//724
f 228//725 226//725 328//725
f 93//726 395//726 188//726
f 92//727 188//727 94//727
f 316//728 148//728 78//728
f 316//729 150//729 148//729
f 315//730 366//730 187//730
f 278//731 392//731 74//731
f 278//732 114//732 392//732
f 109//733 338//733 112//733
f 381//734 378//734 380//734
f 381//735 380//735 382//735
f 304//736 357//736 305//736
f 357//737 108//737 305//737
f 50//738 48//738 34//738
f 142//739 359//739 141//739
f 203//740 227//740 327//740
f 319//741 136//741 221//741
f 306//742 106//742 107//742
f 269//743 174//743 377//743
f 377//744 174//744 412//744
f 412//745 174//745 178//745
f 42//746 143//746 39//746
f 253//747 123//747 120//747
f 336//748 270//748 272//748
f 144//749 145//749 150//749
f 88//750 191//750 85//750
f 309//751 236//751 161//751
f 355//752 416//752 217//752
f 416//753 414//753 217//753
f 154//754 244//754 152//754
f 244//755 401//755 152//755
f 223//756 317//756 319//756
f 119//757 407//757 122//757
f 415//758 352//758 207//758
f 415//759 356//759 354//759
f 208//760 415//760 207//760
f 310//761 159//761 330//761
f 360//762 238//762 241//762
f 409//763 410//763 408//763
f 411//764 410//764 409//764
f 111//765 36//765 338//765
f 368//766 181//766 300//766
f 368//767 296//767 180//767
f 90//768 235//768 47//768
f 170//769 173//769 255//769
f 100//770 377//770 379//770
f 100//771 379//771 58//771
f 218//772 318//772 317//772
f 406//773 126//773 129//773
f 37//774 81//774 80//774
f 185//775 315//775 187//775
f 407//776 406//776 122//776
f 149//777 212//777 209//777
f 131//778 133//778 134//778
f 376//779 214//779 364//779
f 246//780 242//780 154//780
f 283//781 193//781 384//781
f 332//782 334//782 413//782
f 334//783 212//783 394//783
f 402//784 404//784 403//784
f 403//785 404//785 405//785
f 387//786 386//786 389//786
f 389//787 386//787 391//787
f 356//788 416//788 355//788
f 111//789 338//789 109//789
f 383//790 194//790 189//790
f 299//791 99//791 298//791
# Vertices: 416, normals: 791, texture coordinates: 0, faces: 792

