# File generated by ImageToStl.com - Free Image and 3D model conversion tools

o obj1
v -16.41598129 9.62385464 14.34859753
v -16.62558365 9.58416843 14.13998604
v -16.44857216 9.66887856 13.98096657
v -16.48742294 9.66618156 14.39782429
v -16.3091011 9.73538971 14.32646656
v -16.33600998 9.78564739 14.00287247
v -14.97444725 10.24258614 13.47497272
v -15.197299 10.13306427 13.41309929
v -15.03339863 10.2612009 13.24035168
v -14.99844265 10.28998661 13.5490551
v -14.98486805 10.34259796 13.28284073
v -15.12446785 10.3180542 13.17545605
v -15.10630608 10.16622829 13.54465294
v -15.3344593 10.1435957 13.49587631
v -15.29157066 10.26135063 13.19742966
v -15.35797215 10.18370914 13.50972176
v -16.62175369 9.63487339 14.33685589
v -16.64866257 9.68513203 14.01325989
v -16.28371239 9.68839073 14.25259399
v -16.30026245 9.70927238 14.06707382
v -15.11642838 10.23974133 13.62080002
v -15.25022221 10.1945467 13.21864414
v -16.47034073 9.75433922 13.94190311
v -18.33603287 9.03558445 14.66751766
v -13.6469965 10.9193058 12.4393549
v -13.81357002 10.73343945 13.17371655
v -17.41408157 9.22145176 15.24574947
v -17.16745567 9.31617165 15.15255547
v -17.97560692 9.06186485 15.14906216
v -17.52609444 9.57653141 15.31021214
v -14.47087669 10.84773445 13.61696339
v -14.92758846 10.99379921 12.01877975
v -18.0769825 9.67125225 13.83120441
v -18.24473 9.39066505 15.08527756
v -20.86039925 8.84299278 6.69696474
v -20.95784187 9.14829636 5.66756725
v -20.51039124 9.14837265 5.52423763
v -21.30666733 9.14837265 5.98233414
v -20.6783638 9.20807743 5.58010197
v -20.1169281 8.84299278 6.26924706
v -14.56894779 10.73343945 11.86112022
v -14.18644905 10.85155392 11.87516212
v -15.17042065 10.4926548 12.14228153
v -13.96232796 11.27438545 12.15051746
v -19.31281662 9.20322418 7.80546236
v -19.92603302 8.88443661 7.46108341
v -19.10733795 9.15312004 7.41849995
v -19.59254265 9.20301628 8.04076672
v -19.32205009 9.10269165 6.26249075
v -19.19138908 9.18531132 6.60252476
v -20.37437439 9.15312004 8.14742565
v -21.05955315 9.12995434 7.68682861
v -20.35370255 8.81132221 6.96861649
v -21.03752136 9.18531132 7.66460371
v -21.42281914 9.07886982 7.00820494
v -19.93496513 9.15003204 8.18925762
v -17.96496773 9.31617165 13.76674271
v -18.4615078 9.45841694 14.33539104
v -18.28263474 9.15739822 14.08931828
v -19.85366821 9.07745171 5.71825457
v -19.58738708 9.13503647 5.9593668
v -14.68096256 11.08852005 11.92558384
v -13.7455492 11.20663452 12.90040684
v -13.92558479 11.0885191 13.23817825
v -17.71797752 9.51247883 15.32960892
v -21.42624855 9.15203381 6.42985487
v -21.46905327 9.07745171 6.64758444
v -19.9365654 9.20322418 8.16430473
v -20.15544891 8.8066597 6.72429895
v -20.46747971 8.8056612 6.77527905
v -20.24197388 9.17236137 5.59009361
v -20.17259026 8.90531445 6.83810472
v -21.17393875 9.20807743 5.86520672
vn 0.31972 -0.93665 -0.14306
vn -0.29644 0.93969 0.1706
vn 0.47469 -0.85995 -0.1875
vn -0.29644 0.93969 0.17059
vn 0.0519 -0.97628 0.21022
vn -0.29644 0.93969 0.17059
vn -0.066 -0.96597 0.25008
vn -0.29644 0.93969 0.1706
vn 0.34737 -0.92656 -0.14427
vn 0.90914 0.41634 -0.01094
vn -0.0753 -0.72238 0.68738
vn 0.94512 0.30799 0.10906
vn 0.24484 -0.53259 -0.81018
vn -0.76386 -0.56932 -0.30396
vn 0.44257 -0.25342 0.86018
vn 0.65356 -0.51651 0.55324
vn -0.98662 -0.15221 0.0584
vn -0.16021 -0.78604 -0.59706
vn -0.1778 -0.4462 -0.87709
vn 0.53509 -0.23465 -0.81155
vn -0.01863 -0.31307 -0.94955
vn -0.29644 0.93969 0.17059
vn 0.46036 -0.88253 -0.09594
vn 0.61658 -0.55718 0.55621
vn 0.6025 0.05635 -0.79613
vn 0.88332 -0.39447 -0.25325
vn -0.8592 -0.38884 -0.33253
vn -0.2821 -0.45659 0.84377
vn -0.0766 -0.80827 0.58381
vn -0.29644 0.93969 0.17059
vn -0.21746 -0.94611 -0.23996
vn 0.30684 -0.88029 -0.36184
vn 0.59323 -0.53833 0.59857
vn -0.29644 0.93969 0.1706
vn 0.33245 -0.93345 -0.13472
vn 0.86554 0.50041 -0.02089
vn 0.45418 -0.43906 -0.77521
vn -0.29644 0.93969 0.17059
vn 0.29644 -0.93969 -0.1706
vn 0.29644 -0.93969 -0.17059
vn 0.29644 -0.93969 -0.17059
vn 0.29644 -0.93969 -0.17059
vn -0.29644 0.93969 0.1706
vn -0.29644 0.93969 0.1706
vn -0.29644 0.93969 0.1706
vn -0.08811 -0.95724 -0.27556
vn -0.23157 -0.93842 -0.2564
vn -0.3049 0.03281 -0.95182
vn -0.17003 -0.94008 -0.29554
vn 0.29644 -0.93969 -0.17059
vn 0.29644 -0.93969 -0.17059
vn 0.29644 -0.93969 -0.1706
vn -0.29644 0.93969 0.1706
vn 0.31232 -0.90677 0.28325
vn 0.28086 -0.90009 0.33309
vn 0.31101 -0.95027 -0.01631
vn -0.25745 -0.96622 -0.0116
vn -0.15128 -0.95009 0.27283
vn -0.4987 0.48648 0.71739
vn -0.23126 -0.95304 0.19553
vn -0.03319 -0.96007 0.27779
vn 0.29644 -0.93969 -0.1706
vn -0.95989 -0.072 0.27098
vn -0.90157 -0.39897 -0.16732
vn -0.69676 -0.46421 0.54684
vn 0.29885 -0.92119 -0.2492
vn 0.01433 -0.92251 -0.3857
vn 0.65449 -0.43386 -0.6192
vn 0.31039 -0.95046 -0.01666
vn 0.71657 0.07199 -0.69379
vn 0.1445 0.48506 -0.86246
vn 0.80389 0.5665 -0.18121
vn 0.54106 -0.11772 0.83271
vn 0.56214 0.02728 0.82659
vn 0.45425 0.08897 0.88642
vn 0.37028 -0.05157 0.92749
vn -0.06536 -0.33871 0.93862
vn 0.14346 -0.13278 0.98071
vn -0.38929 -0.14208 0.91009
vn -0.50948 0.03499 -0.85977
vn -0.41596 -0.02248 -0.9091
vn -0.79854 0.01735 -0.60169
vn -0.29644 0.93969 0.17059
vn -0.29644 0.93969 0.1706
vn 0.97591 -0.01456 0.21768
vn -0.35363 0.92773 0.11946
vn -0.22071 -0.92688 0.30362
vn -0.37029 0.05157 -0.92748
vn -0.01736 0.17329 -0.98472
vn 0.84268 0.17329 0.50976
vn -0.29644 0.93969 0.1706
vn -0.34063 -0.92251 -0.18149
vn -0.36255 -0.93061 0.05014
vn -0.9487 -0.19103 -0.25194
vn -0.29644 0.93969 0.1706
vn -0.29644 0.93969 0.17059
vn 0.28309 -0.89991 0.33171
vn 0.30823 0.41161 0.85765
vn -0.22501 -0.91625 0.33144
vn 0.42372 -0.90506 -0.0364
vn -0.06987 -0.99014 -0.12145
vn -0.68827 -0.08636 -0.7203
vn 0.25145 -0.23806 -0.93814
vn 0.705 -0.70208 -0.10032
vn -0.11299 -0.989 0.09546
vn 0.34891 -0.92002 -0.17839
vn -0.66076 0.51505 -0.54601
vn 0.11028 -0.74272 0.66046
vn -0.08302 0.42118 0.90317
vn -0.11938 0.96622 0.22839
vn -0.72657 0.68111 0.09047
vn -0.85762 0.44489 0.25801
vn -0.50803 0.84944 -0.1427
vn 0.07858 0.79 -0.60805
vn 0.36905 0.72554 -0.58086
vn -0.50212 -0.0014 -0.8648
vn 0.29644 -0.93969 -0.17059
vn 0.53463 0.75082 -0.38787
vn 0.07654 -0.99377 0.08107
vn -0.00995 -0.99671 -0.08042
vn -0.66957 0.03281 -0.74202
vn -0.34167 0.72839 -0.59389
f 1//1 2//1 3//1
f 4//2 5//2 6//2
f 7//3 8//3 9//3
f 10//4 11//4 12//4
f 13//5 14//5 8//5
f 10//6 15//6 16//6
f 1//7 17//7 2//7
f 4//8 6//8 18//8
f 1//9 3//9 19//9
f 6//10 5//10 20//10
f 21//11 14//11 13//11
f 11//12 10//12 7//12
f 9//13 22//13 12//13
f 15//14 22//14 16//14
f 5//15 4//15 1//15
f 5//16 1//16 19//16
f 18//17 2//17 17//17
f 2//18 18//18 3//18
f 3//19 18//19 23//19
f 20//20 3//20 23//20
f 12//21 22//21 15//21
f 10//22 12//22 15//22
f 13//23 8//23 7//23
f 10//24 13//24 7//24
f 11//25 9//25 12//25
f 11//26 7//26 9//26
f 22//27 14//27 16//27
f 21//28 16//28 14//28
f 4//29 17//29 1//29
f 4//30 18//30 17//30
f 14//31 22//31 8//31
f 8//32 22//32 9//32
f 10//33 21//33 13//33
f 21//34 10//34 16//34
f 19//35 3//35 20//35
f 5//36 19//36 20//36
f 20//37 23//37 6//37
f 18//38 6//38 23//38
f 24//39 25//39 26//39
f 27//40 24//40 26//40
f 27//41 26//41 28//41
f 27//42 29//42 24//42
f 30//43 31//43 32//43
f 30//44 32//44 33//44
f 30//45 33//45 34//45
f 35//46 36//46 37//46
f 35//47 38//47 36//47
f 37//48 36//48 39//48
f 35//49 37//49 40//49
f 25//50 41//50 42//50
f 24//51 41//51 25//51
f 24//52 43//52 41//52
f 31//53 44//53 32//53
f 45//54 46//54 47//54
f 48//55 46//55 45//55
f 46//56 49//56 47//56
f 45//57 50//57 47//57
f 51//58 52//58 53//58
f 51//59 54//59 52//59
f 52//60 55//60 53//60
f 56//61 51//61 53//61
f 24//62 57//62 43//62
f 58//63 24//63 34//63
f 58//64 59//64 24//64
f 34//65 24//65 29//65
f 40//66 60//66 49//66
f 40//67 37//67 60//67
f 61//68 49//68 60//68
f 46//69 40//69 49//69
f 44//70 25//70 42//70
f 44//71 42//71 62//71
f 44//72 63//72 25//72
f 26//73 31//73 28//73
f 26//74 64//74 31//74
f 31//75 30//75 28//75
f 28//76 30//76 27//76
f 27//77 65//77 29//77
f 27//78 30//78 65//78
f 65//79 34//79 29//79
f 32//80 43//80 33//80
f 41//81 43//81 32//81
f 33//82 59//82 58//82
f 31//83 63//83 44//83
f 44//84 62//84 32//84
f 63//85 26//85 25//85
f 52//86 66//86 55//86
f 55//87 35//87 53//87
f 41//88 32//88 62//88
f 42//89 41//89 62//89
f 63//90 64//90 26//90
f 31//91 64//91 63//91
f 35//92 67//92 38//92
f 55//93 67//93 35//93
f 66//94 38//94 67//94
f 34//95 33//95 58//95
f 65//96 30//96 34//96
f 56//97 46//97 48//97
f 48//98 68//98 56//98
f 56//99 53//99 46//99
f 46//100 69//100 40//100
f 70//101 35//101 40//101
f 57//102 59//102 33//102
f 60//103 37//103 71//103
f 50//104 47//104 49//104
f 53//105 35//105 70//105
f 53//106 70//106 72//106
f 72//107 69//107 53//107
f 72//108 70//108 69//108
f 56//109 68//109 51//109
f 68//110 54//110 51//110
f 66//111 67//111 55//111
f 54//112 66//112 52//112
f 66//113 73//113 38//113
f 71//114 37//114 39//114
f 61//115 60//115 71//115
f 43//116 57//116 33//116
f 24//117 59//117 57//117
f 50//118 49//118 61//118
f 46//119 53//119 69//119
f 70//120 40//120 69//120
f 36//121 38//121 73//121
f 73//122 39//122 36//122
# Vertices: 73, normals: 122, texture coordinates: 0, faces: 122

