# File generated by ImageToStl.com - Free Image and 3D model conversion tools

o obj1
v -20.55485153 10.07162189 0.85258746
v -21.42486191 9.84110355 1.45510972
v -21.42934608 9.54376698 1.30515993
v -21.44613266 9.7124939 0.19974773
v -21.84293556 9.90999222 0.56148523
v -21.67708206 10.58796883 0.43734705
v -18.45327568 11.68178558 -2.16077089
v -17.84300995 11.30337811 -2.58138728
v -17.76041794 10.85135651 -2.00470805
v -17.76883125 12.60412979 -1.63346696
v -18.58734322 11.78576851 -1.63060915
v -18.28762436 11.54683018 -1.8032552
v -24.80773544 8.79088116 3.14553595
v -24.85271645 8.87215328 2.64859176
v -24.27428055 8.54106426 2.79612112
v -23.88692856 10.20271969 3.01575446
v -24.85229111 9.74321175 3.32195902
v -23.90812492 9.77806282 2.7256968
v -19.26643372 10.08543873 23.06963348
v -19.3127079 9.33866882 22.94034576
v -19.0606308 9.94529819 22.72493744
v -19.07962036 9.22906303 22.10920334
v -20.22607422 9.32530594 22.19339371
v -19.1050415 9.45196152 22.25151634
v -25.02150536 11.23024845 3.03980732
v -25.2478466 10.71953201 2.87833095
v -25.22140121 10.30598068 3.22124577
v -23.68528557 10.75834751 3.33865404
v -23.93993568 11.51560116 3.48678827
v -24.74273109 10.5430212 3.94951701
v -15.64629745 8.95313835 13.40593052
v -15.92113495 9.9774332 13.6757946
v -16.18697357 9.24402809 13.71708012
v -15.5196619 10.41242123 11.97736835
v -16.64561844 8.16574192 12.62636566
v -17.59133911 9.54244709 13.16958618
v -20.27324867 9.49207687 0.76108503
v -21.39231873 9.37043953 1.28605175
v -20.26366234 8.93964005 0.68278962
v -20.68743896 8.64823818 0.74231416
v -20.71843147 9.14715958 0.27745757
v -15.51966095 10.41242313 11.97736931
v -17.59133911 9.54244804 13.16958618
v -15.94227695 8.03354454 12.22057724
v -16.34431458 8.90627384 11.19945335
v -17.18986511 9.97743511 11.47115993
v -16.74518013 10.14389801 11.32694817
v -19.20477676 10.82070351 22.78366089
v -19.04890823 10.94223404 21.69769096
v -20.10058022 10.39352512 21.69860077
v -19.2342701 11.41080856 21.69785118
v -20.62504196 10.27458286 0.6383059
v -20.30052948 9.18304539 0.5596804
v -20.98771667 11.4901762 1.24144506
v -20.49162483 11.16057491 1.50221753
v -20.75838852 10.4226675 0.46356118
v -18.28849792 12.74211884 -1.84685695
v -17.93436623 12.70963573 -1.89258897
v -18.1744709 12.4394865 -2.38827157
v -16.68455696 11.63733959 -1.7904433
v -16.44143867 11.29081821 -1.58095682
v -16.72810936 11.3830862 -2.28908014
v -23.78512573 8.56760979 2.98752594
v -24.23346138 8.99825191 2.29086161
v -23.81232262 8.9935751 2.57050729
v -24.50568008 8.81674671 3.81032014
v -23.586092 9.13143635 2.89990783
v -24.73840904 8.99104309 3.42839622
v -17.01888847 10.39334965 -1.62978995
v -17.36878014 10.74253273 -2.28684402
v -16.72091675 10.3949604 -1.19333053
v -17.04495239 11.68805599 -1.2082268
v -17.66991997 11.06320381 -1.2060461
v -19.65765381 9.04837322 22.90508652
v -20.04858971 10.08543873 23.07031059
v -20.11973953 9.12099838 22.66836739
v -20.25577736 9.0699501 21.69873619
v -21.80893517 10.87197113 1.78191996
v -21.98098564 10.63873482 0.99722892
v -21.84905434 10.41577053 1.54980493
v -21.55917168 11.25471306 2.11455655
v -21.57171059 10.70713902 2.12312031
v -24.4080162 10.8905468 2.39317703
v -24.96046829 10.57646275 2.32575154
v -24.52643967 11.3310585 2.75381827
v -24.00220299 9.37953568 2.33543086
v -24.97629356 11.25583744 3.53982472
v -24.82235909 10.81873798 3.99588871
v -24.57734871 10.26300907 3.85357976
v -20.11238289 11.32257938 22.13314438
v -20.32051277 10.67746925 22.28378296
v -20.11074257 10.82070351 22.78444672
v -20.25498962 9.94529819 22.72597504
v -19.81332779 8.63002777 22.04999924
v -20.17572975 8.82515812 21.69866753
v -19.65870285 8.5781889 21.69822121
v -19.10935402 9.18449402 22.52595901
v -16.49464989 8.66897011 13.49707222
v -16.31079865 8.34792042 13.1663456
v -15.47635365 8.65675926 11.95347309
v -16.75315475 11.57792854 -1.2052629
v -17.25481987 11.95649052 -1.6797508
v -17.84112358 11.1937933 -1.5578897
v -20.95461273 8.79929924 1.77379239
v -20.0967865 9.32549763 0.90156996
v -21.21247482 8.96768761 1.40560675
v -20.68689919 8.51015949 1.6208967
v -20.61094475 8.51346874 1.1365813
v -20.26671219 8.51894665 1.37976611
v -16.88186455 8.14726448 12.0276022
v -17.07676315 8.59869099 11.62096596
v -16.495327 8.36475849 11.50125027
v -15.41394138 8.45610332 11.91550064
v -19.2042675 11.32257843 22.13235474
v -18.99587631 10.67747021 22.28263664
v -19.65794373 11.34313488 22.57188606
v -21.1786499 10.97556782 0.53599399
v -21.15024948 10.20079231 0.16328555
v -17.75525093 9.57555962 12.7023735
v -23.94348717 11.21090698 3.01069188
v -23.91820335 10.77612114 2.73879194
v -20.14271927 10.04988956 22.16612434
v -19.18864822 10.1760788 22.0472374
v -24.46608353 8.68579483 3.78726983
v -24.28646851 8.47846413 3.68319893
v -23.43304253 8.76498508 3.1903379
v -23.87211227 8.4029932 3.44363093
v -18.51952171 12.06168461 -2.30653048
v -17.2898941 11.85639286 -2.5833149
v -18.09688187 12.11038208 -2.59080887
v -17.66672516 12.4681921 -2.16351795
v -19.21682167 10.39352512 21.69783401
v -17.40071869 10.55648708 -1.19929433
v -18.83661652 12.25880718 -1.22538555
v -18.69372368 11.95041752 -1.88993597
v -17.97459793 12.80819511 -1.22529399
v -18.73627663 12.53969383 -1.22752523
v -18.7899456 11.99299812 -1.22245061
v -24.57947731 11.52481461 3.85641599
v -15.37448788 10.28501606 12.93142128
v -15.1412611 9.23730755 12.7182188
v -15.17689991 9.81236553 12.34165764
v -15.5730257 10.1438961 13.3637619
v -17.87098885 12.73369217 -1.22389162
v -24.50119591 10.09205818 2.08702445
v -24.54653931 9.24512196 2.16385365
v -24.86749458 9.65926933 2.16339087
v -25.25534058 9.84669113 2.713485
v -15.2753849 9.35501385 11.83679008
v -16.07552147 8.1800499 12.55993938
v -16.42473412 8.13988304 12.49822426
v -16.00557709 8.23420143 12.25700569
v -21.63407516 11.34132385 1.06232452
v -21.36150551 11.36106873 0.93107319
v -21.83446884 11.16251087 1.20296597
v -21.39427376 9.21551132 0.35738182
v -21.37606812 8.8994236 0.79996645
v -23.4083252 9.0458231 3.15478039
v -19.33782959 8.89083195 22.56910133
v -19.36185455 8.64453793 21.69796181
v -19.14167404 8.82515812 21.69777298
v -16.12536812 8.30277348 11.56759167
v -15.21208477 9.15435791 11.80036068
v -15.90679932 9.03665161 11.24154663
v -15.599123 9.61171055 11.46155357
v -20.46278381 10.53763008 1.48722494
v -20.5567894 10.32504368 1.10375047
v -21.24544907 10.20905399 1.93715405
v -17.53797531 9.81097317 11.78319168
v -17.49436378 8.9022522 12.07618141
v -17.1260643 8.35060692 12.90182877
v -17.27750015 8.38119793 12.4701786
v -16.58320618 7.96508598 12.58839321
v -16.6804409 10.69549847 -2.06977701
v -16.33805656 10.95639324 -1.19643891
v -19.89705849 9.24327755 1.16584122
v -19.65870285 11.59356213 21.69822121
v -20.0831337 11.41080952 21.69858932
v -17.19766998 11.21097851 -2.59808826
v -17.49028206 11.50326061 -2.70847964
v -17.26972961 9.57555866 13.54604912
v -17.18936539 8.55126286 12.93825722
v -16.83938599 9.66985226 13.77444649
v -25.03326225 9.16958237 2.93105197
v -24.82842445 9.2346611 3.3020761
v -21.36417961 8.99295998 1.17065084
v -21.79372215 9.69102001 0.96558601
v -16.27161598 10.28501797 11.372509
v -20.20661354 9.18449402 22.52691269
v -17.4284687 12.17542648 -1.8053323
v -17.62838745 12.42704678 -1.77311099
v -21.00871849 11.6320219 1.79775345
v -19.6574173 9.75001144 23.17731857
v -19.65749168 10.60684776 23.09173203
v -21.06587601 9.35337734 0.16859633
v -21.07180977 8.99640179 0.32794365
v -21.25149727 8.78381252 1.10636008
v -19.06162643 9.0699501 21.69770432
v -15.53298187 8.50343037 12.74338627
v -15.66149807 8.56541443 13.09659004
v -19.87453651 9.10696125 1.1532582
v -16.23934174 7.97939301 12.12885094
v -20.26849747 10.94223404 21.69874763
v -24.09991837 9.9805212 2.28753018
v -20.44096565 10.87572384 1.47386134
v -18.14320183 11.32021713 -2.02585721
v -17.55983353 10.77139759 -1.2024461
v -24.6158638 11.56309032 3.27006578
v -25.07452011 9.67256832 3.11792421
v -18.54577637 12.56167412 -1.92753553
v -21.68423653 11.36742401 1.59970784
v -24.21545029 8.42966461 3.20058346
v -18.24040794 12.85490513 -1.22746265
v -23.7365036 9.31059933 2.74530983
v -19.1414566 9.77085686 22.28754234
v -20.17492104 9.77085686 22.2884388
v -16.50899124 10.52707958 -1.19327998
v -16.41401291 10.79943466 -1.66321838
v -19.6580925 8.70637608 22.399189
v -18.71545601 11.88938046 -1.22094703
v -17.51310158 8.8079586 12.56302071
v -23.75810432 10.42983055 3.38032198
v -21.24242401 11.5991993 1.93193972
v -24.72683334 11.35536575 3.94136167
v -19.15854645 9.91756535 22.24723053
v -20.33652687 8.62867355 0.97882676
v -19.94024849 8.82361507 1.19167221
v -15.63193703 8.47280788 12.0419817
v -20.89562416 8.67829323 1.74024582
v -24.13446999 11.42725754 3.05352139
v -18.04377747 11.35344696 -1.76080024
v -16.36143303 7.93922615 12.46179581
v -16.41598129 9.62385464 14.34859753
v -16.62558365 9.58416843 14.13998604
v -16.44857216 9.66887856 13.98096657
v -16.48742294 9.66618156 14.39782429
v -16.3091011 9.73538971 14.32646656
v -16.33600998 9.78564739 14.00287247
v -14.97444725 10.24258614 13.47497272
v -15.197299 10.13306427 13.41309929
v -15.03339863 10.2612009 13.24035168
v -14.99844265 10.28998661 13.5490551
v -14.98486805 10.34259796 13.28284073
v -15.12446785 10.3180542 13.17545605
v -15.10630608 10.16622829 13.54465294
v -15.3344593 10.1435957 13.49587631
v -15.29157066 10.26135063 13.19742966
v -15.35797215 10.18370914 13.50972176
v -16.62175369 9.63487339 14.33685589
v -16.64866257 9.68513203 14.01325989
v -16.28371239 9.68839073 14.25259399
v -16.30026245 9.70927238 14.06707382
v -15.11642838 10.23974133 13.62080002
v -15.25022221 10.1945467 13.21864414
v -16.47034073 9.75433922 13.94190311
vn 0.59322 -0.36962 0.71517
vn -0.66622 0.02652 -0.74528
vn -0.66586 -0.63051 -0.39885
vn 0.29334 -0.29021 0.91089
vn -0.47494 -0.87432 -0.1
vn 0.47173 -0.51326 0.71697
vn 0.82208 -0.14621 0.55027
vn -0.0169 0.53669 -0.84361
vn -0.88115 0.26716 0.39014
vn 0.50038 -0.0011 0.8658
vn 0.44925 -0.11295 0.88624
vn -0.49863 -0.0005 -0.86682
vn 0.41855 0.0603 0.90619
vn 0.33558 -0.63092 -0.69952
vn 0.49879 -0 0.86672
vn -0.3079 -0.00172 -0.95142
vn 0.87257 0.11178 0.47553
vn -0.00087 0 -1
vn 0.95691 0.28745 -0.04118
vn 0.64344 0.53628 -0.54625
vn 0.01756 0.87433 -0.48502
vn 0.85696 0.42499 -0.29155
vn 0.43045 -0.61725 -0.65857
vn 0.06302 0.92188 0.38231
vn -0.41804 -0.87543 -0.24262
vn -0.00642 0.00991 0.99993
vn -0.47164 -0.30935 0.82575
vn 0.04065 0.88685 -0.46026
vn -0.97472 -0.02712 0.22178
vn 0.4977 0.00217 0.86735
vn -0.23301 0.57777 -0.78224
vn 0.5365 -0.23051 -0.81181
vn -0.90989 0.09973 0.40269
vn 0.49638 -0.735 0.46194
vn -0.89474 0.35265 0.27399
vn -0.81241 -0.17223 0.55707
vn -0.43038 -0.90088 -0.05642
vn 0.85425 -0.18206 0.48695
vn 0.28262 -0.60499 0.74439
vn -0.49863 -0.0005 -0.86682
vn 0.76303 0.62795 0.1532
vn -0.59799 0.55247 0.58067
vn -0.07673 0.88531 0.45863
vn 0.01867 -0.99982 -0.0039
vn -0.40335 -0.70241 -0.58645
vn 0.50026 -0.00035 0.86587
vn 0.95181 0.30666 -0.00345
vn -0.53063 0.67075 0.51819
vn -0.01052 0.25932 -0.96573
vn 0.54662 0.13446 -0.82651
vn -0.45184 -0.13291 -0.88214
vn -0.29644 0.93969 0.17059
vn 0.90117 0.26629 -0.34202
vn 0.80615 0.30578 -0.50658
vn -0.92722 0.12931 0.35149
vn 0.03319 -0.80674 -0.58997
vn -0.67004 -0.70184 0.24179
vn 0.50038 -0.0011 0.8658
vn -0.67105 -0.36469 -0.64552
vn 0.20742 0.63712 -0.74233
vn 0.92782 0.12931 0.34989
vn -0.00046 -0.84903 -0.52835
vn -0.48523 -0.8685 -0.10126
vn -0.60367 0.60559 0.51851
vn -0.91459 0.2541 -0.31458
vn -0.00642 0.00991 0.99993
vn -0.51286 0.45705 -0.72669
vn 0.50038 -0.0011 0.8658
vn 0.96716 0.17846 0.181
vn -0.29644 0.93969 0.17059
vn 0.07229 0.9873 -0.14146
vn 0.65712 -0.65594 0.3714
vn -0.10713 -0.08413 -0.99068
vn -0.99746 -0.00486 0.07106
vn 0.98698 -0.04074 -0.15562
vn 0.13805 -0.98 -0.14331
vn -0.39171 0.56133 -0.72902
vn -0.89447 0.38257 0.23143
vn -0.37424 -0.41306 0.83025
vn -0.84021 -0.45703 -0.29184
vn 0.62628 -0.52459 -0.57669
vn -0.00541 0.94679 0.3218
vn 0.62189 -0.75789 0.19712
vn -0.00087 -0 -1
vn 0.39035 -0.80743 -0.44236
vn 0.63044 -0.04074 -0.77517
vn 0.96953 -0.21416 -0.11895
vn 0.51568 -0.79668 0.31524
vn -0.95704 -0.12957 -0.25941
vn -0.5256 -0.84153 0.12476
vn 0.10198 -0.85492 -0.50864
vn -0.00642 0.00991 0.99993
vn 0.55036 -0.30895 -0.77566
vn 0.49769 0.00217 0.86735
vn -0.38223 0.88821 0.25493
vn -0.00087 0 -1
vn 0.58976 -0.208 -0.78033
vn -0.28604 -0.10111 -0.95287
vn -0.50363 -0.46974 0.72505
vn -0.29644 0.93969 0.17059
vn -0.93835 -0.22284 0.26428
vn 0.53415 -0.00798 0.84535
vn -0.83921 -0.13122 0.52774
vn -0.71213 -0.24492 0.65793
vn 0.31247 0.18898 -0.93094
vn -0.29644 0.93969 0.17059
vn -0.56677 -0.44001 -0.69654
vn -0.22606 -0.6978 -0.67969
vn -0.63979 -0.72401 0.25783
vn -0.99376 -0.11102 0.01111
vn 0.67934 0.65092 -0.33882
vn 0.06047 -0.07937 0.99501
vn -0.15111 0.95649 -0.24959
vn 0.60696 0.77528 -0.17476
vn -0.1838 0.09768 0.9781
vn -0.49197 -0.31478 0.81171
vn -0.09649 -0.01584 -0.99521
vn 0.1799 -0.66456 -0.72525
vn -0.34371 -0.85129 -0.39645
vn -0.3853 -0.92038 -0.06672
vn 0.78528 -0.57859 0.22039
vn -0.00031 0.9327 -0.36066
vn -0.56985 -0.58771 0.57435
vn 0.4977 0.00217 0.86735
vn 0.86272 -0.46713 -0.19366
vn 0.28262 -0.60498 0.74439
vn 0.78844 -0.17833 -0.5887
vn -0.15207 0.90531 0.3966
vn -0.15273 -0.86874 -0.47113
vn 0.49785 -0.00136 0.86726
vn -0.92287 -0.28235 -0.26189
vn -0.00087 0 -1
vn 0.92242 -0.28235 -0.26349
vn -0.00087 0 -1
vn 0.58187 0.45528 -0.67391
vn 0.43232 -0.06183 -0.8996
vn 0.98359 -0.07005 -0.16629
vn 0.4977 0.00216 0.86735
vn -0.77087 -0.62346 0.1306
vn -0.77311 -0.6268 0.09702
vn -0.7967 -0.58779 0.14061
vn -0.00642 0.00991 0.99993
vn 0.41639 0.64034 -0.64543
vn 0.05017 0.99682 0.06196
vn -0.33265 -0.38662 -0.86016
vn 0.60089 -0.46713 -0.64863
vn -0.87312 -0.14795 0.46452
vn -0.82717 -0.25407 0.50123
vn -0.53501 -0.17795 -0.82589
vn -0.63617 0.44458 -0.63059
vn 0.29634 0.91818 0.26293
vn 0.43921 0.29342 0.84912
vn -0.86735 0.12392 -0.48203
vn -0.70052 0.70664 -0.09971
vn 0.96157 -0.27413 0.01572
vn -0.50063 -0.00057 -0.86566
vn 0.62912 0.77238 -0.08741
vn 0.78221 0.62292 -0.01116
vn -0.5213 -0.85332 0.00957
vn 0.28577 -0.72195 -0.63018
vn -0.93364 0.18397 -0.30737
vn -0.53312 0.83868 -0.11133
vn 0.82589 0.28274 -0.48782
vn 0.43453 0.19641 0.87898
vn 0.98441 -0.01727 -0.17502
vn 0.89449 -0.34365 -0.28599
vn -0.99091 0.09305 0.09711
vn 0.0275 0.20553 -0.97827
vn 0.75693 0.60704 -0.24199
vn 0.55118 0.1398 -0.82259
vn 0.92276 -0.05757 -0.38106
vn 0.92867 -0.36995 -0.02672
vn 0.70794 -0.47386 0.52371
vn -0.38505 -0.76442 0.5171
vn -0.49897 -0.49163 0.71368
vn -0.66461 -0.06031 0.74475
vn -0.97637 -0.17286 -0.12972
vn 0.65712 -0.65594 0.3714
vn -0.98084 -0.19428 0.01418
vn -0.88788 -0.44107 -0.13087
vn -0.79169 0.11993 -0.59904
vn -0.34652 0.12934 -0.92908
vn -0.7244 -0.60704 -0.32671
vn -0.95431 -0.28438 -0.09181
vn 0.95084 -0.23617 -0.20031
vn 0.50038 -0.0011 0.86581
vn -0.41353 0.90673 -0.08264
vn 0.4977 0.00217 0.86735
vn -0.32215 -0.76249 0.5611
vn -0.49706 0.00093 -0.86772
vn -0.95464 -0.19227 -0.22736
vn -0.98471 -0.01727 -0.17332
vn -0.44531 -0.51416 0.73303
vn 0.50038 -0.0011 0.8658
vn 0.82198 0.01164 -0.5694
vn 0.84255 0.09119 -0.53084
vn -0.53497 -0.70045 -0.47242
vn -0.08413 -0.42469 -0.90142
vn 0.81139 -0.02926 0.58377
vn 0.81305 -0.38224 0.43914
vn 0.50038 -0.0011 0.8658
vn -0.13353 -0.98779 0.08023
vn 0.50923 0.82552 0.24331
vn 0.50652 0.77157 0.38485
vn -0.60664 0.78996 0.08921
vn -0.85366 0.20079 0.48057
vn -0.41342 -0.36541 -0.834
vn -0.71899 -0.27718 -0.63735
vn 0.97732 0.05788 -0.20368
vn -0.00084 -0.26505 -0.96423
vn 0.5099 -0.78793 -0.3452
vn -0.22952 -0.96002 0.16023
vn 0.38188 -0.68262 -0.62305
vn 0.49771 0.00216 0.86734
vn 0.46952 -0.27413 -0.83929
vn 0.49699 -0.00059 0.86775
vn -0.82373 -0.30865 -0.47561
vn -0.91021 -0.36274 -0.19983
vn 0.24524 -0.45809 0.85441
vn -0.37285 -0.36485 0.85315
vn 0.17144 0.96682 -0.18936
vn -0.00642 0.0099 0.99993
vn -0.84297 -0.31447 -0.43648
vn -0.7468 -0.66243 -0.05893
vn 0.34867 0.92747 0.13504
vn -0.00642 0.00991 0.99993
vn 0.97865 -0.19972 0.04846
vn 0.99493 0.06379 0.0778
vn 0.49569 0.17496 -0.85069
vn 0.70426 0.60569 -0.37035
vn -0.92873 -0.30376 0.21257
vn -0.00087 -1E-05 -1
vn 0.48866 0.26205 -0.83219
vn -0.09512 0.36604 -0.92573
vn 0.9383 -0.30678 0.15965
vn -0.00086 1E-05 -1
vn -0.21732 0.95933 0.18015
vn -0.95182 0.30666 -0.0018
vn 0.80986 0.18095 -0.55802
vn 0.59761 0.40009 -0.69483
vn 0.89522 0.35265 0.27244
vn 0.53154 0.67075 0.51727
vn 0.33061 -0.86874 0.36877
vn 0.52067 -0.85299 -0.03622
vn 0.95718 -0.18336 -0.224
vn 0.39156 -0.83671 0.38288
vn 0.67138 -0.01507 0.74096
vn -0.29644 0.93969 0.1706
vn -0.55166 0.33895 -0.76209
vn 0.31178 0.55022 -0.77463
vn -0.87174 0.11178 0.47705
vn -0.43774 0.29342 0.84988
vn -0.25425 -0.75534 0.604
vn -0.84869 -0.13483 0.51141
vn 0.4977 0.00217 0.86735
vn -0.78683 -0.48823 0.37754
vn 0.35126 0.40713 0.84312
vn -0.83033 -0.21861 0.5126
vn 0.39734 0.4096 -0.82119
vn -0.61933 0.32181 -0.71615
vn 0.82005 -0.14236 -0.5543
vn 0.50171 0.06506 0.86259
vn 0.79505 0.27074 -0.54276
vn 0.52279 0.42438 -0.73932
vn -0.4128 0.80189 -0.43193
vn 0.07931 0.9143 -0.3972
vn -0.82494 -0.40956 0.38953
vn 0.50049 0.00089 0.86574
vn -0.08147 0.11462 0.99006
vn -0.62198 -0.71343 0.32275
vn -0.78128 -0.61989 -0.07308
vn -0.77946 -0.62194 -0.07513
vn -0.88808 -0.00866 -0.45962
vn -0.61368 0.62596 -0.48122
vn -0.33493 0.61286 -0.7157
vn -0.778 0.42685 -0.461
vn 0.42748 -0.59104 0.68405
vn 0.20474 -0.35412 0.91251
vn 0.39068 0.90701 0.1572
vn -0.00087 -0 -1
vn -0.50018 0.00444 -0.86591
vn 0.74305 -0.66493 -0.0758
vn 0.92677 0.36659 0.08191
vn 0.96619 -0.19044 -0.1738
vn -0.92663 0.36659 0.08352
vn -0.96649 -0.19044 -0.17212
vn 0.87818 0.25654 -0.40371
vn 0.88445 0.46087 -0.07304
vn 0.97836 0.0861 -0.18816
vn 0.80274 0.53972 0.25358
vn -0.09717 -0.52592 -0.84497
vn 0.20517 -0.59252 -0.77899
vn -0.31329 -0.82392 0.47223
vn 0.05744 -0.95621 0.28699
vn -0.5134 -0.85814 -0.00536
vn -0.21928 -0.95621 -0.19385
vn 0.2726 0.55503 0.78589
vn -0.27124 0.55503 0.78636
vn 0.55946 -0.80797 -0.18491
vn 0.17042 -0.93678 -0.3056
vn -0.85767 -0.48702 0.16493
vn -0.37409 -0.90764 -0.19039
vn -0.67313 -0.41573 0.61161
vn -0.29644 0.93969 0.17059
vn -0.62485 -0.13481 -0.76902
vn -0.29644 0.93969 0.17059
vn 0.90765 0.35042 -0.23103
vn 0.15102 0.95314 -0.26215
vn -0.35032 -0.90499 -0.24138
vn 0.18453 -0.91849 -0.34976
vn 0.1855 0.09768 0.97778
vn 0.40196 -0.18033 0.89772
vn -0.544 0.83017 -0.12198
vn -0.3804 0.77084 -0.51099
vn 0.19266 0.81939 -0.53989
vn 0.67605 0.73677 0.01126
vn -0.28529 -0.69911 -0.65564
vn 0.3037 -0.10219 -0.94727
vn -0.91504 0.32506 -0.23881
vn -0.00643 0.00991 0.99993
vn -0.05332 -0.86051 -0.50663
vn 0.07084 -0.5006 -0.86278
vn 0.41125 -0.86051 0.30065
vn 0.82329 -0.42661 0.37443
vn -0.87207 -0.17503 0.45701
vn -0.78456 -0.57898 0.22194
vn 0.10029 0.01965 0.99476
vn -0.11352 -0.30146 0.9467
vn 0.24748 -0.03693 -0.96819
vn 0.94071 0.12791 -0.31416
vn 0.56203 -0.58006 0.58962
vn 0.97281 0.16673 -0.16073
vn 0.28934 -0.85365 -0.43309
vn 0.19327 -0.98 -0.04736
vn -0.8463 -0.18057 0.50117
vn -0.81441 0.02771 0.57962
vn 0.54576 -0.825 -0.14674
vn 0.81131 0.14029 -0.56754
vn -0.78785 -0.22291 -0.5741
vn -0.76132 -0.56172 -0.32382
vn 0.17727 -0.81541 0.55108
vn 0.38507 -0.8908 0.24123
vn 0.88966 0.10775 0.44372
vn -0.29644 0.93969 0.17059
vn -0.86556 -0.28049 0.41488
vn -0.85754 -0.51437 -0.0065
vn 0.0592 0.12125 -0.99086
vn 0.21734 -0.44964 -0.86636
vn -0.96593 0.21173 0.14885
vn -0.74086 0.41476 -0.5283
vn -0.89611 -0.33545 0.29061
vn -0.29644 0.93969 0.1706
vn -0.57911 -0.52961 0.61979
vn 0.5612 -0.74528 0.36001
vn 0.09588 0.69912 0.70854
vn 0.75401 0.31064 -0.57877
vn 0.35552 0.53041 0.76959
vn -0.86856 -0.06626 0.49114
vn -0.9811 0.02939 -0.19126
vn 0.02114 -0.40343 -0.91477
vn 0.20768 0.73315 0.64759
vn 0.78698 0.14275 -0.60024
vn -0.00087 1E-05 -1
vn 0.21231 -0.94898 0.23316
vn 0.0592 0.12125 -0.99086
vn -0.29644 0.93969 0.1706
vn -0.69333 -0.4836 0.53426
vn -0.96866 -0.19648 0.15199
vn 0.97932 -0.03948 -0.19844
vn -0.01734 -0.61306 -0.78984
vn 0.49379 -0.79194 -0.35917
vn -0.00642 0.00991 0.99993
vn 0.3806 0.59661 -0.70654
vn -0.16665 0.96534 -0.20086
vn -0.97135 0.22506 0.07632
vn -0.64051 0.76772 0.01863
vn 0.81084 0.18521 -0.55519
vn 0.4977 0.00217 0.86735
vn -0.76986 -0.27265 0.57705
vn -0.7811 -0.27275 0.56168
vn 0.58248 0.80846 -0.08429
vn -0.00641 0.0099 0.99993
vn -0.77158 -0.5275 0.35555
vn -0.42673 0.45309 0.78269
vn -0.86059 -0.49735 0.10962
vn -0.77631 -0.52534 0.34838
vn -0.86222 -0.32857 0.3855
vn 0.50038 -0.0011 0.8658
vn -0.82277 -0.50917 0.25257
vn -0.87989 -0.45905 -0.12278
vn -0.50298 -0.84922 -0.16074
vn 0.12445 -0.95182 -0.28026
vn 0.50038 -0.0011 0.86581
vn -0.66908 0.70288 0.24145
vn 0.54807 -0.77757 -0.30824
vn 0.22189 -0.92996 -0.29315
vn 0.41346 -0.33861 0.84522
vn 0.70345 0.69055 -0.16821
vn -0.72339 -0.31247 0.61569
vn 0.50039 -0.0011 0.8658
vn 0.98853 0.10011 0.1131
vn -0.00086 0.11216 -0.99369
vn -0.55456 -0.81333 0.17595
vn 0.4977 0.00217 0.86735
vn 0.4595 0.00025 0.88818
vn -0.79267 -0.23151 0.56398
vn 0.09784 0.28269 -0.95421
vn 0.48591 0.03382 -0.87335
vn 0.93209 -0.00749 -0.36214
vn 0.59609 0.28879 -0.74918
vn 0.4977 0.00217 0.86735
vn -0.23588 0.95551 -0.17711
vn -0.48153 -0.7868 0.3861
vn 0.14715 -0.97792 0.1484
vn -0.89076 -0.33222 0.31013
vn -0.00641 0.00992 0.99993
vn -0.80673 -0.58148 -0.10522
vn -0.00641 0.0099 0.99993
vn 0.52535 -0.85033 -0.03071
vn -0.50378 0.01049 -0.86377
vn 0.86313 0.28656 -0.41581
vn 0.86275 0.28037 -0.42077
vn -0.50074 0.01176 -0.86552
vn 0.05806 -0.95445 0.29268
vn -0.9473 0.17487 0.2684
vn -0.61327 0.72727 0.30819
vn 0.49676 0.01179 0.86781
vn -0.22389 -0.95445 -0.19725
vn 0.31246 0.02516 -0.9496
vn 0.04369 -0.40783 -0.91201
vn 0.43139 0.52592 -0.73301
vn 0.63826 0.64623 -0.41834
vn 0.58485 -0.62698 -0.51464
vn 0.78754 -0.25849 -0.55944
vn 0.7902 0.61233 -0.02513
vn -0.30662 0.27883 0.91008
vn -0.29743 -0.31672 -0.90068
vn -0.52228 -0.70398 -0.48129
vn 0.91785 0.19751 -0.34431
vn 0.4977 0.00217 0.86735
vn 0.31972 -0.93665 -0.14306
vn -0.29644 0.93969 0.1706
vn 0.47469 -0.85995 -0.1875
vn -0.29644 0.93969 0.17059
vn 0.0519 -0.97628 0.21022
vn -0.29644 0.93969 0.17059
vn -0.066 -0.96597 0.25008
vn -0.29644 0.93969 0.1706
vn 0.34737 -0.92656 -0.14427
vn 0.90914 0.41634 -0.01094
vn -0.0753 -0.72238 0.68738
vn 0.94512 0.30799 0.10906
vn 0.24484 -0.53259 -0.81018
vn -0.76386 -0.56932 -0.30396
vn 0.44257 -0.25342 0.86018
vn 0.65356 -0.51651 0.55324
vn -0.98662 -0.15221 0.0584
vn -0.16021 -0.78604 -0.59706
vn -0.1778 -0.4462 -0.87709
vn 0.53509 -0.23465 -0.81155
vn -0.01863 -0.31307 -0.94955
vn -0.29644 0.93969 0.17059
vn 0.46036 -0.88253 -0.09594
vn 0.61658 -0.55718 0.55621
vn 0.6025 0.05635 -0.79613
vn 0.88332 -0.39447 -0.25325
vn -0.8592 -0.38884 -0.33253
vn -0.2821 -0.45659 0.84377
vn -0.0766 -0.80827 0.58381
vn -0.29644 0.93969 0.17059
vn -0.21746 -0.94611 -0.23996
vn 0.30684 -0.88029 -0.36184
vn 0.59323 -0.53833 0.59857
vn -0.29644 0.93969 0.1706
vn 0.33245 -0.93345 -0.13472
vn 0.86554 0.50041 -0.02089
vn 0.45418 -0.43906 -0.77521
vn -0.29644 0.93969 0.17059
f 1//1 2//1 3//1
f 4//2 5//2 6//2
f 7//3 8//3 9//3
f 10//4 11//4 12//4
f 13//5 14//5 15//5
f 16//6 17//6 18//6
f 19//7 20//7 21//7
f 22//8 23//8 24//8
f 25//9 26//9 27//9
f 28//10 29//10 30//10
f 31//11 32//11 33//11
f 34//12 35//12 36//12
f 37//13 1//13 38//13
f 39//14 40//14 41//14
f 42//15 43//15 44//15
f 45//16 46//16 47//16
f 48//17 19//17 21//17
f 49//18 50//18 51//18
f 52//19 1//19 53//19
f 54//20 55//20 56//20
f 57//21 58//21 59//21
f 60//22 61//22 62//22
f 63//23 64//23 65//23
f 66//24 67//24 68//24
f 69//25 9//25 70//25
f 71//26 72//26 73//26
f 74//27 75//27 76//27
f 23//28 22//28 77//28
f 78//29 79//29 80//29
f 55//30 81//30 82//30
f 83//31 84//31 85//31
f 65//32 64//32 86//32
f 87//33 27//33 88//33
f 89//34 17//34 16//34
f 90//35 91//35 92//35
f 75//36 93//36 76//36
f 94//37 95//37 96//37
f 21//38 20//38 97//38
f 31//39 98//39 99//39
f 100//40 35//40 34//40
f 60//41 101//41 61//41
f 102//42 103//42 72//42
f 104//43 105//43 106//43
f 107//44 108//44 109//44
f 110//45 111//45 112//45
f 113//46 42//46 44//46
f 51//47 114//47 115//47
f 92//48 116//48 90//48
f 117//49 4//49 6//49
f 53//50 41//50 118//50
f 45//51 111//51 46//51
f 119//52 42//52 46//52
f 120//53 28//53 121//53
f 16//54 18//54 86//54
f 92//55 91//55 93//55
f 122//56 50//56 123//56
f 124//57 13//57 125//57
f 126//58 66//58 127//58
f 128//59 8//59 7//59
f 129//60 130//60 131//60
f 48//61 21//61 115//61
f 123//62 50//62 132//62
f 133//63 9//63 69//63
f 73//64 72//64 103//64
f 134//65 128//65 135//65
f 136//66 137//66 138//66
f 85//67 26//67 25//67
f 29//68 139//68 30//68
f 140//69 141//69 142//69
f 143//70 34//70 36//70
f 136//71 58//71 57//71
f 144//72 11//72 10//72
f 145//73 146//73 147//73
f 26//74 148//74 27//74
f 142//75 141//75 149//75
f 150//76 151//76 152//76
f 117//77 153//77 154//77
f 81//78 155//78 78//78
f 2//79 80//79 3//79
f 5//80 156//80 157//80
f 65//81 126//81 63//81
f 66//82 158//82 67//82
f 159//83 160//83 161//83
f 161//84 96//84 77//84
f 44//85 162//85 113//85
f 163//86 164//86 165//86
f 166//87 167//87 52//87
f 168//88 167//88 166//88
f 169//89 170//89 119//89
f 171//90 172//90 173//90
f 69//91 70//91 174//91
f 175//92 101//92 71//92
f 39//93 41//93 53//93
f 176//94 107//94 109//94
f 116//95 177//95 178//95
f 51//96 50//96 178//96
f 174//97 179//97 62//97
f 180//98 8//98 130//98
f 98//99 181//99 182//99
f 183//100 143//100 181//100
f 27//101 148//101 184//101
f 18//102 17//102 185//102
f 186//103 104//103 106//103
f 187//104 186//104 3//104
f 165//105 164//105 188//105
f 42//106 188//106 46//106
f 146//107 14//107 147//107
f 15//108 14//108 146//108
f 76//109 95//109 94//109
f 23//110 95//110 189//110
f 131//111 60//111 129//111
f 190//112 191//112 12//112
f 192//113 54//113 153//113
f 192//114 55//114 54//114
f 193//115 194//115 75//115
f 193//116 75//116 74//116
f 195//117 4//117 118//117
f 40//118 196//118 41//118
f 157//119 196//119 40//119
f 107//120 197//120 108//120
f 97//121 159//121 161//121
f 22//122 198//122 77//122
f 82//123 80//123 168//123
f 55//124 82//124 168//124
f 149//125 141//125 199//125
f 31//126 99//126 200//126
f 53//127 201//127 39//127
f 104//128 176//128 105//128
f 202//129 110//129 112//129
f 44//130 43//130 173//130
f 203//131 50//131 93//131
f 178//132 50//132 203//132
f 49//133 21//133 132//133
f 49//134 132//134 50//134
f 121//135 83//135 120//135
f 204//136 64//136 145//136
f 205//137 166//137 52//137
f 205//138 168//138 166//138
f 206//139 9//139 207//139
f 7//140 9//140 206//140
f 9//141 133//141 207//141
f 71//142 73//142 133//142
f 120//143 83//143 85//143
f 139//144 29//144 208//144
f 45//145 112//145 111//145
f 163//146 162//146 164//146
f 184//147 66//147 68//147
f 209//148 184//148 185//148
f 8//149 128//149 130//149
f 210//150 59//150 128//150
f 116//151 114//151 177//151
f 48//152 194//152 19//152
f 79//153 6//153 5//153
f 211//154 153//154 155//154
f 149//155 199//155 100//155
f 149//156 100//156 34//156
f 144//157 10//157 58//157
f 131//158 191//158 190//158
f 125//159 13//159 212//159
f 63//160 15//160 64//160
f 210//161 128//161 134//161
f 213//162 57//162 137//162
f 18//163 214//163 86//163
f 214//164 18//164 185//164
f 21//165 97//165 215//165
f 132//166 21//166 123//166
f 216//167 23//167 189//167
f 24//168 23//168 216//168
f 154//169 56//169 117//169
f 53//170 118//170 56//170
f 62//171 61//171 174//171
f 175//172 217//172 218//172
f 20//173 159//173 97//173
f 74//174 76//174 219//174
f 30//175 209//175 17//175
f 185//176 17//176 209//176
f 134//177 135//177 138//177
f 144//178 220//178 11//178
f 79//179 5//179 187//179
f 5//180 157//180 187//180
f 26//181 147//181 148//181
f 145//182 147//182 84//182
f 111//183 110//183 172//183
f 119//184 170//184 221//184
f 28//185 222//185 204//185
f 28//186 89//186 222//186
f 223//187 153//187 211//187
f 55//188 223//188 81//188
f 98//189 182//189 99//189
f 35//190 182//190 36//190
f 50//191 122//191 93//191
f 93//192 216//192 189//192
f 89//193 30//193 17//193
f 28//194 30//194 89//194
f 67//195 158//195 65//195
f 86//196 214//196 65//196
f 9//197 8//197 70//197
f 179//198 8//198 180//198
f 143//199 31//199 141//199
f 141//200 31//200 200//200
f 127//201 66//201 125//201
f 125//202 212//202 127//202
f 72//203 60//203 102//203
f 102//204 60//204 131//204
f 139//205 208//205 87//205
f 224//206 87//206 88//206
f 195//207 196//207 4//207
f 5//208 4//208 156//208
f 21//209 215//209 225//209
f 215//210 216//210 225//210
f 71//211 69//211 218//211
f 71//212 133//212 69//212
f 226//213 40//213 39//213
f 176//214 109//214 227//214
f 163//215 113//215 162//215
f 163//216 42//216 113//216
f 148//217 147//217 14//217
f 148//218 14//218 184//218
f 31//219 33//219 98//219
f 98//220 183//220 181//220
f 136//221 57//221 213//221
f 136//222 213//222 137//222
f 128//223 7//223 135//223
f 11//224 7//224 206//224
f 101//225 60//225 72//225
f 71//226 101//226 72//226
f 22//227 97//227 161//227
f 24//228 97//228 22//228
f 62//229 179//229 180//229
f 129//230 60//230 62//230
f 23//231 77//231 95//231
f 96//232 95//232 77//232
f 204//233 145//233 83//233
f 83//234 145//234 84//234
f 22//235 161//235 198//235
f 198//236 161//236 77//236
f 116//237 178//237 90//237
f 178//238 91//238 90//238
f 105//239 201//239 53//239
f 37//240 53//240 1//240
f 114//241 48//241 115//241
f 48//242 114//242 116//242
f 99//243 150//243 200//243
f 199//244 150//244 228//244
f 222//245 16//245 204//245
f 89//246 16//246 222//246
f 143//247 32//247 31//247
f 183//248 32//248 143//248
f 130//249 128//249 59//249
f 131//250 130//250 59//250
f 92//251 93//251 75//251
f 194//252 92//252 75//252
f 11//253 206//253 12//253
f 206//254 207//254 103//254
f 176//255 104//255 229//255
f 186//256 229//256 104//256
f 37//257 38//257 106//257
f 38//258 186//258 106//258
f 56//259 118//259 117//259
f 118//260 4//260 117//260
f 158//261 126//261 65//261
f 158//262 66//262 126//262
f 42//263 163//263 165//263
f 42//264 165//264 188//264
f 208//265 85//265 25//265
f 208//266 230//266 85//266
f 43//267 221//267 171//267
f 173//268 43//268 171//268
f 190//269 12//269 231//269
f 231//270 12//270 206//270
f 138//271 135//271 11//271
f 135//272 7//272 11//272
f 26//273 84//273 147//273
f 26//274 85//274 84//274
f 117//275 6//275 153//275
f 153//276 6//276 79//276
f 20//277 74//277 159//277
f 20//278 193//278 74//278
f 114//279 51//279 177//279
f 51//280 178//280 177//280
f 100//281 152//281 35//281
f 100//282 199//282 228//282
f 51//283 115//283 49//283
f 49//284 115//284 21//284
f 178//285 203//285 91//285
f 203//286 93//286 91//286
f 34//287 142//287 149//287
f 34//288 140//288 142//288
f 61//289 175//289 218//289
f 101//290 175//290 61//290
f 179//291 70//291 8//291
f 174//292 70//292 179//292
f 99//293 182//293 35//293
f 99//294 35//294 150//294
f 173//295 172//295 110//295
f 173//296 110//296 202//296
f 48//297 116//297 194//297
f 194//298 116//298 92//298
f 127//299 63//299 126//299
f 127//300 15//300 63//300
f 187//301 157//301 197//301
f 108//302 197//302 157//302
f 181//303 36//303 182//303
f 181//304 143//304 36//304
f 111//305 169//305 46//305
f 119//306 46//306 169//306
f 29//307 28//307 120//307
f 29//308 230//308 208//308
f 108//309 157//309 40//309
f 108//310 40//310 226//310
f 19//311 194//311 193//311
f 19//312 193//312 20//312
f 137//313 57//313 210//313
f 57//314 59//314 210//314
f 58//315 131//315 59//315
f 191//316 131//316 58//316
f 15//317 146//317 64//317
f 64//318 146//318 145//318
f 210//319 134//319 137//319
f 137//320 134//320 138//320
f 202//321 112//321 162//321
f 162//322 112//322 45//322
f 200//323 150//323 199//323
f 141//324 200//324 199//324
f 93//325 189//325 76//325
f 189//326 95//326 76//326
f 32//327 183//327 33//327
f 33//328 183//328 98//328
f 86//329 64//329 204//329
f 16//330 86//330 204//330
f 1//331 167//331 2//331
f 167//332 1//332 52//332
f 44//333 202//333 162//333
f 232//334 202//334 44//334
f 78//335 80//335 82//335
f 81//336 78//336 82//336
f 69//337 174//337 218//337
f 61//338 218//338 174//338
f 169//339 111//339 170//339
f 170//340 111//340 172//340
f 74//341 219//341 159//341
f 159//342 219//342 160//342
f 140//343 143//343 141//343
f 143//344 140//344 34//344
f 184//345 13//345 124//345
f 184//346 14//346 13//346
f 164//347 45//347 47//347
f 164//348 162//348 45//348
f 155//349 79//349 78//349
f 153//350 79//350 155//350
f 119//351 221//351 43//351
f 43//352 42//352 119//352
f 168//353 80//353 2//353
f 168//354 2//354 167//354
f 105//355 37//355 106//355
f 37//356 105//356 53//356
f 214//357 185//357 68//357
f 185//358 184//358 68//358
f 122//359 216//359 93//359
f 225//360 216//360 122//360
f 68//361 67//361 214//361
f 214//362 67//362 65//362
f 161//363 160//363 96//363
f 94//364 96//364 160//364
f 164//365 47//365 188//365
f 46//366 188//366 47//366
f 80//367 187//367 3//367
f 79//368 187//368 80//368
f 123//369 21//369 225//369
f 225//370 122//370 123//370
f 217//371 71//371 218//371
f 175//372 71//372 217//372
f 56//373 154//373 54//373
f 54//374 154//374 153//374
f 87//375 25//375 27//375
f 87//376 208//376 25//376
f 105//377 176//377 201//377
f 201//378 176//378 227//378
f 88//379 27//379 209//379
f 27//380 184//380 209//380
f 144//381 58//381 136//381
f 144//382 136//382 138//382
f 231//383 206//383 103//383
f 102//384 231//384 103//384
f 187//385 197//385 186//385
f 186//386 197//386 229//386
f 184//387 124//387 66//387
f 125//388 66//388 124//388
f 221//389 172//389 171//389
f 170//390 172//390 221//390
f 212//391 13//391 15//391
f 127//392 212//392 15//392
f 139//393 224//393 30//393
f 224//394 139//394 87//394
f 109//395 226//395 227//395
f 109//396 108//396 226//396
f 191//397 10//397 12//397
f 58//398 10//398 191//398
f 88//399 209//399 30//399
f 224//400 88//400 30//400
f 215//401 97//401 24//401
f 24//402 216//402 215//402
f 229//403 197//403 107//403
f 176//404 229//404 107//404
f 1//405 3//405 38//405
f 3//406 186//406 38//406
f 129//407 180//407 130//407
f 62//408 180//408 129//408
f 121//409 28//409 204//409
f 121//410 204//410 83//410
f 55//411 192//411 223//411
f 223//412 192//412 153//412
f 76//413 94//413 219//413
f 219//414 94//414 160//414
f 103//415 207//415 73//415
f 133//416 73//416 207//416
f 138//417 11//417 220//417
f 144//418 138//418 220//418
f 150//419 152//419 228//419
f 100//420 228//420 152//420
f 56//421 52//421 53//421
f 55//422 52//422 56//422
f 152//423 151//423 35//423
f 35//424 151//424 150//424
f 211//425 155//425 81//425
f 81//426 223//426 211//426
f 44//427 173//427 232//427
f 173//428 202//428 232//428
f 41//429 195//429 118//429
f 41//430 196//430 195//430
f 120//431 85//431 230//431
f 29//432 120//432 230//432
f 227//433 226//433 39//433
f 201//434 227//434 39//434
f 131//435 190//435 102//435
f 102//436 190//436 231//436
f 196//437 156//437 4//437
f 157//438 156//438 196//438
f 55//439 205//439 52//439
f 205//440 55//440 168//440
f 233//441 234//441 235//441
f 236//442 237//442 238//442
f 239//443 240//443 241//443
f 242//444 243//444 244//444
f 245//445 246//445 240//445
f 242//446 247//446 248//446
f 233//447 249//447 234//447
f 236//448 238//448 250//448
f 233//449 235//449 251//449
f 238//450 237//450 252//450
f 253//451 246//451 245//451
f 243//452 242//452 239//452
f 241//453 254//453 244//453
f 247//454 254//454 248//454
f 237//455 236//455 233//455
f 237//456 233//456 251//456
f 250//457 234//457 249//457
f 234//458 250//458 235//458
f 235//459 250//459 255//459
f 252//460 235//460 255//460
f 244//461 254//461 247//461
f 242//462 244//462 247//462
f 245//463 240//463 239//463
f 242//464 245//464 239//464
f 243//465 241//465 244//465
f 243//466 239//466 241//466
f 254//467 246//467 248//467
f 253//468 248//468 246//468
f 236//469 249//469 233//469
f 236//470 250//470 249//470
f 246//471 254//471 240//471
f 240//472 254//472 241//472
f 242//473 253//473 245//473
f 253//474 242//474 248//474
f 251//475 235//475 252//475
f 237//476 251//476 252//476
f 252//477 255//477 238//477
f 250//478 238//478 255//478
# Vertices: 255, normals: 478, texture coordinates: 0, faces: 478

