# File generated by ImageToStl.com - Free Image and 3D model conversion tools

o obj1
v 15.74688435 8.04004478 11.63676929
v 15.41683674 8.00709152 11.4660387
v 15.74709988 8.12428474 11.40284348
v 15.71372795 8.06760693 11.69943905
v 15.42278576 8.14523506 11.34850216
v 15.36067104 8.06008434 11.49172592
v 13.86487675 7.62188387 11.48308182
v 13.90075684 7.66674519 11.21341705
v 13.99409962 7.57529736 11.45652199
v 14.18225861 7.69895792 11.5190239
v 13.81066132 7.70919991 11.2614584
v 15.57994461 8.213727 11.30126095
v 15.76889515 8.21775341 11.41242599
v 14.20349884 7.66559458 11.44654179
v 14.17222023 7.75346279 11.21515846
v 14.24798965 7.7843523 11.37757015
v 14.14805508 7.84178448 11.19104576
v 13.89908028 7.781322 11.16285324
v 15.60203838 7.983675 11.69341755
v 14.0235672 7.63166237 11.56272507
v 15.81005859 8.12943268 11.51272869
v 15.42998695 8.00815487 11.6470356
v 13.75258923 12.69125557 2.33910131
v 13.26203728 11.12749481 3.0038929
v 12.60421848 11.29673004 4.94424343
v 13.26045132 14.21169853 4.44824076
v 13.59574699 11.83111954 2.3861568
v 12.98420334 10.92383099 3.69731975
v 16.38191795 11.29650784 4.94471884
v 16.01034546 10.70541859 4.4655447
v 16.00220299 10.9236536 3.69769979
v 15.58824921 10.51184654 3.92888975
v 15.84987259 10.84261417 6.31153774
v 15.59634495 12.04635906 7.21054363
v 15.94061375 12.02716732 6.52063084
v 15.06065083 12.59439564 7.12891006
v 15.83625507 11.21476364 6.84408426
v 16.00919724 13.37488937 5.69992828
v 15.28545094 12.18857002 7.56277037
v 13.40533447 9.63782597 7.79433584
v 13.13586617 10.84277344 6.31119585
v 13.94669437 9.91862774 6.50407314
v 14.20021629 9.23737335 7.60635042
v 13.16095161 10.45951271 7.17383432
v 13.27819538 10.5843668 5.84762383
v 14.49320316 14.37008095 5.30473518
v 14.4933033 14.60847569 4.62129879
v 13.7009182 14.39726925 4.90327263
v 15.28559303 14.39717579 4.90347195
v 13.73113728 14.49467468 4.56811523
v 14.08064079 13.92899418 5.92987919
v 15.03159046 11.63669682 2.28209114
v 14.19787025 11.2385006 2.42722607
v 13.99532413 11.94335842 2.19957232
v 13.64395905 11.39057255 2.48359704
v 14.90195179 12.24538708 2.17509294
v 13.62152863 12.66578102 6.81817484
v 13.21974182 11.64994431 7.31097937
v 13.70013142 12.18866348 7.5625701
v 13.40442944 11.50036907 8.66208267
v 14.7888937 11.23846626 2.42730045
v 14.55219078 11.26966858 12.13744164
v 14.96898651 11.47393131 11.14777374
v 13.92472839 11.38819599 11.48543453
v 15.37693119 11.31851196 11.58217621
v 14.17133522 11.09588814 9.93456841
v 13.29726696 10.96491814 11.99533463
v 13.19986057 7.66455364 11.89816952
v 12.76272964 8.2481432 10.36950588
v 16.58978271 9.17752171 10.80288219
v 16.1442318 8.37976933 12.23165894
v 16.54300499 8.7646265 11.65868092
v 14.35339546 10.52034664 9.56109142
v 14.01370335 10.28864002 9.49691868
v 13.57842541 10.89328003 9.93883324
v 13.95260429 9.8894453 9.34349442
v 12.80950832 7.8579669 11.23589993
v 15.23436737 12.69116879 2.33928776
v 16.38256073 12.61141968 5.55913496
v 16.44617844 11.88596344 5.39951515
v 15.99437714 13.82048035 5.02828121
v 15.31364822 14.10279083 3.22983432
v 15.2330904 13.72265148 2.81994772
v 15.06573009 13.77497959 2.77675772
v 15.0715332 14.43023014 3.58474422
v 15.05941963 12.97537899 2.36264706
v 14.78500843 9.23733902 7.60642338
v 14.49279118 9.82014751 6.45823431
v 15.28545094 10.03826714 6.56006765
v 15.32528687 9.44013119 7.70106936
v 14.79890251 10.08959389 5.61705971
v 15.58197784 10.7036562 9.00357628
v 14.94533348 11.28651428 9.27690315
v 14.95143223 10.2702446 9.32046509
v 15.80525875 10.36408615 8.66634846
v 15.27023602 11.46709347 9.05691624
v 14.60850048 10.68274689 9.36576366
v 14.77395535 7.38743591 12.56575584
v 14.17133427 9.47046471 13.42029858
v 13.68808746 8.90343571 13.16294003
v 14.16741276 7.28217173 12.40693378
v 15.38049889 7.57676315 12.54430294
v 13.13554668 9.27555656 13.00085354
v 12.30552959 9.83007622 11.46614838
v 12.7134409 8.10001755 10.65591335
v 12.39771175 9.5733633 12.02080631
v 12.39771175 10.08995628 10.91296768
v 14.76004982 10.24375916 10.02941799
v 14.63422585 9.34169388 9.60877705
v 13.97002029 9.69423294 9.77316952
v 14.02738953 10.06583691 9.94645023
v 14.96193027 9.57147884 9.71592808
v 16.03713989 10.73627758 11.8887167
v 15.9564333 10.43757915 12.42379665
v 16.16137886 10.58619118 11.12238026
v 12.05735302 13.67705154 -0.13220549
v 11.68004894 13.01926517 4.38996315
v 11.96625805 13.60549831 2.8239522
v 11.99096584 13.45891953 -0.17415945
v 11.98169804 13.23404121 4.73186064
v 12.40769482 13.96218014 -0.07952906
v 13.10764885 13.13303852 -0.24680641
v 13.49894619 12.32526875 2.84566689
v 13.29836941 11.95029259 3.25032973
v 13.60829163 12.74924088 2.68219805
v 12.75599098 12.85039806 -0.29898795
v 16.68002892 13.5294838 4.4835248
v 16.57515717 13.96244335 -0.08009351
v 16.26866531 13.6655283 4.10389519
v 16.27865982 13.31108665 4.9951458
v 17.01902199 13.60592461 2.82303739
v 16.12242317 13.92104244 -0.09148162
v 16.96837616 13.23299408 -0.21932423
v 17.3832531 12.2249527 4.23452663
v 17.15261269 12.21910477 2.55382872
v 16.85829735 13.03287506 -0.2591204
v 17.43587112 12.66700172 4.12688971
v 17.13886261 11.84719944 4.46166229
v 12.97584152 10.70559692 4.46516275
v 13.51371956 10.36347294 4.26143408
v 13.68687248 13.82198906 5.87992096
v 13.30382919 14.21607399 4.81073475
v 12.97699356 13.37506771 5.69954634
v 12.99203491 13.82065678 5.02790356
v 14.039711 11.28656769 9.27678871
v 13.40306759 10.70378399 9.00330162
v 13.99558163 10.09761333 9.23981857
v 13.95678806 11.58462524 9.11152077
v 13.1798315 10.36424065 8.66601849
v 14.21691704 10.47273445 9.41477489
v 16.31022644 11.23281288 7.82011366
v 21.4713192 6.24353695 -0.1255637
v 15.84704304 11.23106003 7.75682116
v 15.84515858 11.26433086 8.09268284
v 21.84245491 6.05186796 0.24775073
v 15.84320545 10.97217178 7.41886473
v 21.46984482 5.30840349 0.46013352
v 16.45672417 10.45764256 8.40634727
v 16.30874252 10.29112816 8.40991592
v 15.95514774 10.38700485 8.54224396
v 21.30136871 5.25694036 0.377543
v 21.84194183 5.72709942 0.45116255
v 15.76860428 11.05975914 10.84403801
v 16.36190605 9.13662624 9.82140636
v 15.44834423 10.8424263 10.12080288
v 15.9564333 10.95417309 11.31595802
v 16.68816566 8.84534454 10.65291595
v 12.85974503 7.91563416 10.21938419
v 13.62024117 8.6608181 9.10350323
v 15.38049984 9.21026897 9.04124451
v 12.85772228 10.17444801 8.36541748
v 12.5283432 10.46126747 8.40797234
v 7.35691547 5.35342836 0.54477459
v 7.14322186 5.66694546 0.49099576
v 7.68380165 5.19621658 0.42115691
v 13.13995647 10.3654623 8.48523998
v 13.14186192 10.96785831 7.41639376
v 13.14244938 10.16921616 7.18131495
v 8.05442142 5.70800924 -0.159697
v 7.84072733 6.02152777 -0.21347341
v 15.68786049 11.95022774 3.25046825
v 16.22709846 12.85053349 -0.29927742
v 16.06230736 11.71759129 3.16650748
v 15.87537766 13.13304329 -0.24681725
v 16.4676609 11.4944849 4.08549404
v 16.05223083 11.57353115 4.09938908
v 16.84698296 12.9626236 5.14685822
v 17.08917427 12.16749096 4.99372149
v 17.38718987 12.59057617 4.49643755
v 16.93552971 12.41238499 5.19025135
v 17.36001015 12.74567509 4.45031786
v 12.122159 11.61018848 4.11181498
v 11.8329668 12.21862888 2.55484915
v 12.30456543 12.88914394 -0.28773779
v 12.52668762 12.82432175 -0.30218732
v 11.84836483 11.84672928 4.46267128
v 12.01463509 13.23258591 -0.21844834
v 11.59978867 12.5900135 4.49764299
v 11.66234398 12.1847086 4.53004313
v 11.86805439 12.45678329 5.05138969
v 11.95303917 12.73602772 5.10509586
v 11.58080101 12.44291878 4.27849102
v 12.03932858 11.91090584 4.94363451
v 13.16045856 10.05764866 8.29610252
v 13.40424252 9.88779736 8.62374783
v 13.04521179 12.02733707 6.52026558
v 13.14939404 11.21492195 6.84374571
v 15.72456837 11.12735081 3.00420284
v 15.39109707 11.83101463 2.3863833
v 15.34280777 11.39047241 2.48381138
v 14.04800701 11.23871899 2.53791976
v 15.44834328 9.45288563 13.10068226
v 14.7757206 9.63425541 13.39793015
v 15.92766857 7.83162212 12.34467697
v 15.76860428 10.14393711 12.80802536
v 16.45782661 11.15658665 7.96858072
v 15.84174538 10.04494476 7.99961042
v 15.84231853 10.03148746 7.35876513
v 21.0142498 5.33154154 0.13495941
v 21.01521111 5.94190598 -0.24732718
v 12.62137985 10.4621582 11.76089382
v 13.97020626 10.48827362 13.01372337
v 13.7538662 13.72273827 2.81976128
v 13.92124367 13.7750473 2.77661371
v 13.92756462 12.97544575 2.36250401
v 14.16741085 8.91567612 8.90387535
v 13.18600368 8.36537552 9.46176434
v 12.61225128 10.29325676 10.48661137
v 14.68209553 9.68069077 9.04551029
v 14.49252224 9.22339153 8.3147831
v 15.27023506 9.35744095 8.07316685
v 14.49256039 9.14344501 7.97326136
v 15.04216862 9.94746113 9.02296162
v 14.3028183 9.6807127 9.04546165
v 14.10784626 9.812047 9.10667419
v 14.03971195 9.30504894 8.35279083
v 13.95678806 9.24006367 8.0182333
v 12.52723598 11.15667439 7.96460819
v 7.14270878 5.99006987 0.28498396
v 12.31912422 10.89721584 7.97574902
v 12.19645882 10.65839386 7.95094156
v 12.74481106 11.23909473 8.19865608
v 7.35561466 6.17160988 0.02313677
v 12.98324299 10.61767101 8.61221313
v 12.95237637 11.01920605 8.51497936
v 12.53293705 10.73145962 8.4580574
v 13.1400404 10.89779377 8.53246498
v 15.90618896 13.4683485 4.46589184
v 15.48682594 12.32512951 2.84596419
v 12.93417168 11.59450245 3.69898176
v 12.51939774 11.49426174 4.08597279
v 13.07530594 13.71893311 2.83695817
v 13.04024601 13.77758312 -0.12067943
v 12.63831425 13.98576736 -0.07682397
v 13.43160915 13.3503418 3.5049603
v 12.71760654 13.66537857 4.10421562
v 16.6292057 13.27536297 4.99075794
v 15.55430603 13.35022736 3.5052042
v 16.24524117 11.60354614 4.66118145
v 16.08973885 13.21783161 4.97454596
v 16.35048676 11.83971977 5.07031584
v 12.73629379 12.87035179 5.27071667
v 12.93480873 11.57346249 4.0995388
v 12.74223328 11.60340595 4.66148376
v 12.89738655 13.21774769 4.97472525
v 12.35791302 13.27508068 4.99136305
v 15.82452583 10.45935631 7.17416906
v 13.29754639 7.33409929 11.74406052
v 16.23271561 8.03916836 12.0929985
v 13.62024212 7.27127695 12.08338165
v 12.61225128 9.37743378 12.45059967
v 16.99199677 13.45933723 -0.17505403
v 17.32612801 13.10406113 4.00226498
v 16.77918816 13.85411167 -0.09970199
v 17.00522995 13.23446274 4.73095751
v 14.49256039 11.68118095 9.1566267
v 14.49245739 10.54870033 9.45024109
v 14.00899124 9.97910976 9.49394989
v 15.84262848 10.1754427 7.17738104
v 16.45212746 10.72742462 8.45859909
v 13.05287457 11.00861454 10.93079281
v 15.06683254 11.38907051 10.66473866
v 14.7757206 11.18403625 10.07441616
v 15.03236771 10.15165997 9.46576595
v 13.68363285 11.03142929 2.73981357
v 15.32528782 11.69898605 8.75439072
v 14.78500843 11.90184116 8.84890079
v 15.82454109 11.44745064 7.63492537
v 14.20021534 11.9018755 8.84882832
v 13.6599369 11.69908333 8.75418091
v 14.49279118 12.40678215 7.66440248
v 13.14306068 9.9874506 7.64791012
v 13.14333057 10.04532433 8.00456524
v 13.14276028 10.02672195 7.36384869
v 12.67483521 11.23170757 7.81553555
v 15.84532166 11.08303261 8.41540718
v 15.84290123 10.40147018 7.12703562
v 15.84547615 10.2359972 8.38005447
v 16.17399025 10.86533546 8.57053661
v 15.84502316 10.89314842 8.53433704
v 14.49342346 14.51502037 3.62419367
v 13.77846146 14.52793503 4.23523998
v 15.20823288 14.5278511 4.23542023
v 13.99722958 14.30586052 3.30136824
v 13.6732502 14.10288715 3.22962761
v 15.36429787 10.30181313 5.71610641
v 14.8647747 10.10430717 4.84005785
v 14.1212492 10.10435104 4.83996439
v 15.47247982 10.36335754 4.26168108
v 15.29932594 13.82189465 5.88012457
v 15.68268394 14.21593475 4.8110342
v 15.60476875 14.28767776 4.13885403
v 12.63722324 11.83954048 5.07070065
v 16.45640945 12.82454109 -0.30265808
v 16.84902 11.97689629 2.5044117
v 16.83517265 11.60491371 4.41223049
v 16.32774734 12.48820019 5.30999565
v 16.94825554 11.91130638 4.94277668
v 13.13801956 11.22945213 7.75226116
v 13.15036678 13.57750416 -0.16056354
v 13.58060932 13.09923744 2.95872164
v 14.63540649 9.56647873 9.11629677
v 14.22141361 9.59347057 9.19135189
v 15.58080196 9.88766956 8.62402153
v 15.08746719 10.15385342 9.11921024
v 15.82468891 10.05749226 8.29643917
v 12.53991318 11.88619328 5.39902306
v 13.1579895 11.15037632 8.48505497
v 15.30302811 11.03133488 2.74001718
v 15.83256435 13.57749367 -0.16054066
v 15.4049654 13.09906864 2.95908356
v 15.3771944 12.74906158 2.68258166
v 14.76593494 10.47131157 9.58209896
v 14.77395535 9.10500526 8.88242245
v 11.58252525 12.29460239 3.84646249
v 11.55078793 12.66642189 4.1281333
v 14.39924908 9.54650784 9.29228401
v 14.97584534 9.9790535 9.49407005
v 14.86600113 9.69970894 9.36379337
v 14.75930595 10.34607124 9.66518116
v 14.39924812 10.41166687 9.69571495
v 14.90555763 13.9289465 5.92998314
v 13.10866165 9.74273109 12.95380116
v 15.0668335 10.21826267 13.17554283
v 13.05287457 10.17751884 12.71308231
v 15.37693024 10.87570667 12.53177834
v 13.13554668 10.64929104 10.05487347
v 12.5855217 12.21036911 5.27957678
v 12.35659981 11.85868454 5.08080482
v 12.60991478 12.46430016 5.3288846
v 12.53877926 11.54556656 4.65292835
v 12.6782198 10.22034073 12.2261734
v 13.13990211 11.26541805 8.08784389
v 13.13872719 11.17601585 8.30645084
v 12.30659294 13.52918243 4.48417044
v 12.70844746 13.31093407 4.99547386
v 16.44870949 11.54578209 4.65246534
v 16.251194 12.87049484 5.27040958
v 15.82610893 10.84555626 8.66307259
v 15.82696056 9.99868774 7.94868565
v 15.82723904 11.15021992 8.48539066
v 13.15903854 10.84571362 8.66273689
v 13.10866261 10.91353989 10.44299507
v 15.96835041 11.1686945 8.37734509
v 16.323246 11.12147331 8.33243275
v 16.73991776 10.79247284 7.9119401
v 16.60014343 10.83474445 8.23193741
v 16.05954552 10.75118637 7.84339762
v 16.05918503 10.52286816 7.98639965
v 16.22137642 10.487957 7.67729902
v 16.78861046 10.65843678 7.95091534
v 16.66543961 10.57860565 8.17708874
v 16.19246483 10.40064621 7.79068184
v 14.18692303 10.08963013 5.61698294
v 14.49300671 10.13928032 4.89602327
v 13.78481007 10.27918339 4.61274385
v 13.39805126 10.51197529 3.92861438
v 13.42168808 10.79082775 3.20973635
v 13.70707417 11.06897926 2.78546715
v 14.96898651 10.64283657 12.93006229
v 12.24551105 10.56576824 8.05520153
v 12.25863743 12.79542828 5.26410913
v 14.96584225 9.77425098 9.27565193
v 15.92766953 9.2211647 9.36479568
v 12.60357475 12.61164188 5.55865908
v 16.40221596 12.21056843 5.27915049
v 14.18692303 12.87799931 6.91722059
v 15.39018726 14.40465164 3.85309196
v 13.43258667 10.5632534 3.94350219
v 15.56482601 10.79070187 3.21000624
v 15.53235626 10.83714485 3.23886013
v 12.83201694 12.43240166 3.97691202
v 12.83319283 12.37769985 4.21425629
v 12.85776329 12.70028973 4.02889204
v 11.61595154 12.80865669 4.34945774
v 12.86050606 12.66189384 4.26940012
v 12.84745121 12.50550652 4.31517792
v 12.79224777 10.62567806 7.64847612
v 12.76369476 10.48572922 7.67870474
v 12.92552376 10.75028706 7.84268713
v 12.9258852 10.52312279 7.98751688
v 12.38492203 10.83695507 8.23054028
v 12.85935974 10.41622829 7.91892719
v 15.20129013 10.27910042 4.61292219
v 14.3286829 12.53070164 2.19827604
v 16.12880516 12.700387 4.02868176
v 16.15460968 12.43250942 3.97668123
v 16.15364265 12.37780666 4.21402693
v 17.40605927 12.44348812 4.27727079
v 15.84343624 10.56310749 8.56266689
v 14.93872833 11.23866653 2.53803205
v 13.11208153 13.41795921 4.45744181
v 14.85295486 10.16678047 4.83893251
vn 0.25985 -0.90861 -0.32696
vn -0.25882 0.87543 0.40822
vn -0.36842 -0.90788 -0.20005
vn -0.25882 0.87543 0.40822
vn 0.09427 -0.66512 -0.74076
vn -0.25882 0.87543 0.40822
vn 0.28442 -0.88286 -0.37372
vn -0.25882 0.87543 0.40822
vn 0.24447 -0.92392 -0.29427
vn -0.68729 -0.45331 -0.56758
vn 0.82628 -0.48037 -0.29412
vn -0.20013 -0.84136 0.50206
vn 0.13313 -0.39851 -0.90745
vn -0.25882 0.87542 0.40822
vn 0.9281 -0.14972 0.3409
vn -0.25882 0.87543 0.40822
vn 0.44735 0.75427 0.48057
vn 0.50733 -0.03 -0.86123
vn -0.22293 0.22867 0.94763
vn -0.14517 -0.98927 0.01636
vn 0.162 -0.2184 -0.96232
vn 0.89004 0.12374 -0.43876
vn -0.50505 -0.83799 -0.20661
vn -0.56233 -0.34073 -0.75345
vn 0.36734 -0.79931 0.47557
vn 0.33731 -0.8311 -0.44215
vn 0.05434 -0.64841 -0.75935
vn -0.25882 0.87543 0.40822
vn 0.88654 0.0151 0.4624
vn 0.48106 -0.67986 0.55351
vn -0.25882 0.87543 0.40822
vn -0.67232 -0.73835 0.05319
vn 0.44332 -0.83686 0.32114
vn -0.25882 0.87543 0.40822
vn 0.5551 -0.78275 -0.28137
vn 0.86077 -0.15087 -0.48611
vn -0.93188 0.15237 -0.32922
vn -0.93191 0.15392 -0.3284
vn -0.93157 0.1518 -0.33035
vn -0.93214 0.15085 -0.32917
vn 0.88471 -0.44582 -0.13609
vn 0.62356 -0.75023 -0.21984
vn 0.79716 -0.59302 0.11337
vn 0.65682 0.688 0.30862
vn 0.89375 0.06207 0.44426
vn 0.67598 0.35788 0.64418
vn 0.65851 0.68883 0.30312
vn -0.64138 -0.64835 -0.41021
vn -0.48629 -0.78889 -0.37572
vn -0.91444 -0.37907 -0.14182
vn -0.75857 -0.63974 0.1237
vn -0.13328 0.93579 0.3264
vn 0.13331 0.93577 0.32643
vn -0.16038 0.95162 0.26211
vn -0.20796 0.8586 0.46856
vn -0.01656 -0.31161 -0.95007
vn -0.18961 -0.35069 -0.9171
vn 0.02904 -0.16705 -0.98552
vn -0.76879 0.49844 0.40065
vn -0.77388 0.60919 0.17322
vn 0.0001 -0.34263 -0.93947
vn -0.01744 0.98064 0.19505
vn 0.10726 0.9638 0.2441
vn -0.14593 0.9677 -0.2056
vn -0.25882 0.87543 0.40822
vn 0.25882 -0.87543 -0.40822
vn 0.25832 -0.87554 -0.4083
vn 0.25888 -0.87547 -0.40809
vn -0.17669 0.4947 -0.85091
vn -0.34094 0.38227 -0.85885
vn -0.17567 0.49618 -0.85026
vn 0.25882 -0.87542 -0.40822
vn 0.93187 0.15399 -0.32849
vn 0.93198 0.15224 -0.329
vn 0.93174 0.15495 -0.32842
vn 0.37355 0.64238 -0.66918
vn 0.12472 0.77019 -0.6255
vn 0.3491 0.42878 -0.83324
vn 0.28921 -0.82188 -0.49078
vn 0.38212 -0.81292 -0.43949
vn 0 -0.8917 -0.45262
vn 0.28358 -0.93841 -0.19739
vn 0.42585 0.0413 0.90385
vn 0.59618 -0.33333 0.73038
vn 0.49873 0.14393 0.85473
vn 0.18173 0.0432 0.9824
vn -0.0352 -0.38801 0.92098
vn -0.1511 -0.45411 0.87804
vn 0.13934 -0.34107 0.92965
vn -0.35311 -0.12018 0.92783
vn -0.96589 -0.25318 0.05433
vn -0.96668 -0.25217 0.04395
vn -0.96745 -0.12508 -0.21998
vn 0 0.42262 -0.90631
vn 0 0.42262 -0.90631
vn -0 0.42262 -0.90631
vn 0.9555 0.17163 0.23993
vn 0.95792 0.268 0.10281
vn 0.9514 0.25379 0.17445
vn -0.91719 0.39802 -0.01863
vn -0.95407 0.29736 -0.03635
vn -0.6781 0.72038 0.14574
vn -0.63116 0.77565 -0.00067
vn 0.70504 -0.65923 -0.2614
vn 0.92736 -0.31627 -0.19995
vn 0.62629 -0.72749 -0.2802
vn 0.2402 0.96689 0.08621
vn -0.03405 0.92854 0.36965
vn 0.2094 0.9739 0.08758
vn -0.09247 0.99367 0.06374
vn 0.97338 -0.1867 -0.13293
vn 0.87281 -0.43682 -0.21769
vn 0.98122 -0.14716 -0.12471
vn 0.80372 -0.58507 -0.10826
vn -0.77019 -0.62766 0.1134
vn -0.79726 -0.59293 0.11317
vn -0.52533 -0.84994 0.04036
vn -0.55432 0.69668 0.45537
vn -0.56688 0.69226 0.44657
vn -0.51607 0.55713 0.6506
vn -0.45548 0.76992 0.44696
vn -0.38344 -0.01448 0.92345
vn -0.57659 0.26762 0.77196
vn -0.61278 -0.31643 0.72413
vn -0.61858 -0.00147 0.78572
vn 0.06506 0.86358 -0.5
vn 0.0097 0.99509 -0.09852
vn 0.56443 0.81286 -0.14379
vn -0.14459 0.7863 -0.60069
vn 0.56239 -0.48545 0.66937
vn 0.28476 -0.23314 0.92982
vn -0.00115 -0.84766 0.53054
vn 0.56238 -0.48545 0.66937
vn 0.80963 0.45009 -0.37671
vn 0.74015 0.4792 -0.47175
vn 0.80848 0.55431 -0.19776
vn 0.90995 0.33956 -0.23809
vn 0.25882 -0.87543 -0.40822
vn 0.25882 -0.87542 -0.40822
vn 0.25882 -0.87543 -0.40822
vn -0.43379 -0.59814 0.67384
vn -0.66782 -0.34177 0.66122
vn -0.15441 -0.78884 0.59489
vn -0.16924 -0.33204 0.92796
vn 0.75047 0.18713 -0.63386
vn 0.65902 0.33356 -0.67412
vn -0.55114 -0.78502 -0.28282
vn -0.62624 -0.72773 -0.2797
vn 0.16186 -0.94022 -0.29965
vn -0.54445 -0.82806 -0.13375
vn 0.79798 0.1297 0.58857
vn 0.87 0.17631 0.46045
vn 0.90939 -0.24865 0.33344
vn 0.81117 0.2927 0.50629
vn -0.38792 -0.88062 -0.27208
vn -0.28571 -0.91698 -0.27841
vn -0.73493 -0.6667 -0.12403
vn -0.76242 -0.59003 -0.26567
vn -0.90465 -0.10664 0.4126
vn -0.8688 0.17535 0.46308
vn -0.97489 -0.13639 0.17602
vn -0.79604 -0.34757 0.49549
vn -0.91746 -0.37442 -0.13447
vn -0.72528 -0.65943 0.19779
vn -0.76433 0.4999 0.4073
vn -0.70276 0.34373 0.62287
vn -0.97998 -0.04882 0.19301
vn 0.93198 0.15226 -0.32898
vn 0.93224 0.15074 -0.32894
vn 0.93167 0.15169 -0.33011
vn 0.21109 -0.44583 -0.86987
vn -6E-05 -1 0.00189
vn 0.32397 -0.27973 0.90377
vn 0.12856 -0.34756 0.9288
vn 0.43852 -0.27006 0.85719
vn 0.43657 0.17168 0.88314
vn 0.86928 0.08184 0.48749
vn 0.21878 0.93919 0.2647
vn -0.66077 -0.75044 0.01517
vn -0.42893 -0.87091 0.23985
vn -0.8574 -0.2722 -0.43676
vn -0.58529 0.80938 -0.04835
vn -0.25572 0.79968 0.54325
vn -0.96533 -0.12346 -0.22997
vn -0.93214 0.15409 -0.32768
vn -0.93176 0.1543 -0.32865
vn 0.00014 0.45988 -0.88798
vn 0.00014 0.45988 -0.88798
vn -0.34883 0.42882 -0.83332
vn 0.25882 -0.87543 -0.40822
vn 0.25882 -0.87543 -0.40822
vn -0.90243 -0.05268 -0.4276
vn -0.90069 -0.06914 -0.42892
vn -0.88895 -0.02136 -0.4575
vn 0.28642 -0.84383 0.45377
vn 0.23213 -0.94708 0.22172
vn 0.52373 -0.66154 0.53672
vn -0.00012 -0.84767 0.53052
vn -0.44059 -0.72598 0.52805
vn -0.55804 -0.33038 0.76121
vn -0.57619 -0.7637 0.29116
vn -0.34381 -0.76453 0.54523
vn -0.77178 0.62425 0.12115
vn -0.85667 0.4071 0.31685
vn -0.69098 0.57315 0.44051
vn -0.66955 0.74217 -0.02986
vn -0.26964 0.20701 0.94045
vn 0.06473 0.23956 0.96872
vn -0.47053 0.54927 0.69058
vn -0.35641 -0.16443 0.91975
vn -0.42203 0.90389 0.06976
vn -0.705 -0.65949 -0.26085
vn 0.11187 -0.94661 -0.30235
vn 0.46803 -0.83692 -0.28376
vn -0.03939 -0.95624 -0.28991
vn 0.46094 0.88735 0.01213
vn 0.71406 0.70007 0.00542
vn 0.11305 0.99085 0.07378
vn -0.13363 0.92037 0.36752
vn 0.09598 0.88606 0.45353
vn -0.93284 -0.15317 0.32613
vn -0.93232 -0.15146 0.3284
vn -0.93199 -0.15352 0.32837
vn 0.93519 -0.14759 0.32194
vn 0.9323 -0.15319 0.32766
vn 0.92865 -0.10199 0.35666
vn 0.93341 -0.1586 0.32186
vn -0.79814 0.39005 0.45916
vn -0.51952 0.53138 0.66913
vn -0.85918 0.26972 0.43481
vn 0.91278 0.0444 0.40602
vn 0.91103 -0.0108 0.41219
vn 0.77958 -0.54311 -0.31192
vn 0.37026 -0.91691 -0.14898
vn 0.25882 -0.87543 -0.40822
vn 0.25882 -0.87542 -0.40822
vn 0.25882 -0.87543 -0.40822
vn -0.66755 -0.42596 0.61068
vn -0.68301 -0.4647 0.56351
vn -0.69211 -0.43205 0.57821
vn -0.83411 -0.40642 0.37294
vn 0.97204 0.22742 -0.05841
vn 0.94714 0.28163 0.15365
vn 0.98988 -0.08043 -0.11695
vn 0.87751 0.47866 -0.02948
vn 0.81043 0.29899 0.50379
vn 0.84587 0.44591 0.2927
vn 0.48401 0.63668 0.60031
vn -0.09027 0.19413 0.97681
vn 0.3894 0.22567 0.89299
vn -0.59864 -0.51958 0.60964
vn -0.94104 -0.3229 -0.10091
vn -0.83783 -0.42692 -0.34026
vn 0.79442 -0.10242 0.59868
vn -0.26869 0.93788 -0.2195
vn -0.15292 0.96759 -0.20097
vn 0.43228 0.7928 -0.42966
vn 0.32725 0.53895 -0.77617
vn -0.72863 -0.22297 -0.64759
vn -0.355 -0.23877 -0.90386
vn -0.5337 -0.52942 -0.65945
vn 0.63909 0.7187 0.27392
vn 0.38212 0.8592 0.34023
vn 0.82812 0.49795 0.25743
vn -0.3821 0.85925 0.34014
vn -0.28918 0.90429 0.31406
vn -0.64987 0.71048 0.26998
vn -0.37613 0.74489 0.55105
vn 0.73739 -0.66546 -0.11585
vn 0.54791 -0.8258 0.13359
vn 0.7224 -0.68486 -0.09545
vn -0.56137 0.81462 -0.14579
vn -0.99999 0.00272 0.00182
vn -1 0.001 -0.00092
vn -0.99995 -0.0006 0.01011
vn -0.9999 0.0141 0.00055
vn 0.28113 -0.18433 0.9418
vn 0.29058 -0.17717 0.94031
vn -0.11008 -0.00842 0.99389
vn -0.06166 0.99374 -0.09315
vn 0.0618 0.99373 -0.09313
vn -0.21695 0.93704 -0.27365
vn -0.15248 0.98532 0.07677
vn -0.93091 0.15777 -0.32943
vn 0.34956 -0.93684 0.01189
vn -6E-05 -0.99982 -0.01894
vn 0.3836 -0.92344 -0.01054
vn 0.37794 -0.8932 -0.24361
vn 0.55429 0.69662 0.45551
vn 0.51668 0.55915 0.64837
vn 0.56685 0.69219 0.44671
vn 0.45545 0.76986 0.44707
vn 0.93222 0.15326 -0.32785
vn 0.93108 0.15582 -0.32988
vn -0.28571 -0.91698 -0.27841
vn -0.23005 -0.88064 0.41419
vn 0.93231 -0.15318 0.32763
vn 0.0079 -0.95697 -0.29008
vn 0.41969 -0.89146 -0.17077
vn -0.11204 -0.95106 -0.28798
vn 0.46347 -0.82826 -0.31493
vn 0.20529 0.10973 0.97253
vn 0.41943 -0.3934 0.81812
vn 1 0.00101 -0.00092
vn 0.99996 0.00594 0.00682
vn 1 0.00101 -0.00092
vn 0.16404 -0.88044 0.44488
vn 0.87237 0.48746 -0.03672
vn 0.92767 -0.18354 0.32518
vn 0.13343 0.90146 0.41178
vn 0.99961 -0.00333 0.02789
vn 0.75556 -0.6066 -0.24731
vn 0.91831 -0.31307 0.24226
vn 0.53977 -0.32336 0.77723
vn 0.56729 -0.44704 0.69163
vn 0.32535 -0.76623 0.55411
vn 0.81854 -0.42042 0.39145
vn -0.91866 -0.29921 0.25793
vn -0.88473 -0.44572 -0.13632
vn -0.98891 0.1481 0.011
vn -0.91288 0.04451 0.40579
vn 0.72877 -0.22306 -0.64741
vn 0.38762 -0.23936 -0.8902
vn 0.53381 -0.52948 -0.65932
vn -0.83065 0.55605 -0.02858
vn -0.76242 0.64684 -0.01777
vn -0.98038 0.16407 -0.10922
vn -0.93188 -0.15083 0.32992
vn -0.93075 -0.13058 0.34155
vn -0.94564 -0.12958 0.2983
vn 0.88542 0.4636 -0.03329
vn 0.0072 0.19123 -0.98152
vn 0.0072 0.19122 -0.98152
vn 0.0072 0.19123 -0.98152
vn 0.30319 0.53877 -0.786
vn 0.39574 0.49514 -0.77345
vn -0.15911 0.40787 -0.89907
vn -0.13874 0.39604 -0.90769
vn -0.98918 -0.07929 -0.12345
vn -0.94385 -0.28552 -0.16622
vn -0.99465 -0.00685 -0.10303
vn -0.00805 0.19123 -0.98151
vn -0.00805 0.19123 -0.98151
vn -0.00805 0.19122 -0.98151
vn -0.11172 -0.85514 0.50622
vn 1E-05 -0.87853 -0.47769
vn -0.00014 -0.42262 0.90631
vn -0.00014 -0.42262 0.90631
vn -0.00014 -0.42262 0.90631
vn 0.20795 0.85858 0.46862
vn -2E-05 0.81709 0.57651
vn 0.28613 0.82736 0.48332
vn 0.28921 0.90426 0.31413
vn 1E-05 0.9199 0.39215
vn 0.28508 0.76925 0.57183
vn -0.31918 0.29649 0.90012
vn -0.38577 0.07045 0.9199
vn -0.04814 0.36231 0.93081
vn -0.40534 0.40244 0.82082
vn 0.58844 0.66496 0.45996
vn 0.51641 0.77611 0.3619
vn 0.52588 0.532 0.66365
vn 0.50016 -0.46021 -0.73352
vn 0.50016 -0.46021 -0.73352
vn 0.50016 -0.4602 -0.73352
vn 0.56443 0.81286 -0.14379
vn -0.08327 0.39473 -0.91502
vn -0.44313 0.28584 -0.84967
vn -0.46172 0.28873 -0.83872
vn -0.69257 0.16694 -0.70177
vn -0.41171 0.34643 -0.8429
vn -0.37277 -0.26069 0.89055
vn -0.34524 -0.14683 0.92696
vn -0.41975 -0.30074 0.85637
vn -0.00213 -0.49099 0.87116
vn -0.42009 -0.90239 0.09602
vn 0.2696 -0.95984 0.07764
vn -0.45638 -0.79942 0.3907
vn -0.58551 0.74705 -0.31481
vn 0.07912 0.77672 -0.62485
vn -0.37489 0.67835 -0.6319
vn -0.49241 0.36813 -0.78868
vn -0.72174 0.02812 0.69159
vn -0.9026 0.42751 0.05043
vn -0.90481 0.32244 0.27812
vn -0.81313 0.58068 -0.04041
vn -0.0657 0.85677 -0.5115
vn -0.00971 0.99426 -0.10651
vn -0.00602 0.8388 -0.5444
vn 0.99998 0.00322 -0.00595
vn 0.99998 0.00238 0.00634
vn -0.24049 0.9668 0.0864
vn -0.20969 0.97382 0.08775
vn 0.034 0.92856 0.36963
vn -0.10234 0.99169 0.07793
vn 0.44613 0.83003 0.33468
vn -0.09594 0.88602 0.4536
vn -0.21076 -0.82216 0.52881
vn -0.26919 -0.95994 0.07785
vn 0.21958 -0.77291 0.59532
vn -0.93199 -0.15352 0.32837
vn 0.99989 -0.01436 0.00266
vn 0.99978 0.01857 0.00935
vn 1 0.00244 -0.0017
vn 0.77039 0.60263 0.20817
vn 0.71114 0.35222 0.60846
vn 0.25045 0.53353 0.80785
vn 0.07328 0.21261 0.97439
vn 0.37026 0.7035 0.60663
vn -0.65905 0.3427 -0.66949
vn -0.28827 0.69976 -0.65363
vn -0.84469 -0.1154 -0.52267
vn -1 0.001 -0.00091
vn -0.62838 0.30721 0.71468
vn -0.59913 0.46993 0.64823
vn -0.72481 0.27232 0.63284
vn -1 -0.00137 -0.00093
vn -0.99528 -0.04239 0.08725
vn -0.9999 -0.01425 0.00241
vn -0.26357 0.94072 -0.2135
vn -0.3081 0.89483 -0.32304
vn -0.77107 0.60263 -0.20564
vn -0.52109 0.8118 0.26354
vn -0.80603 0.57736 -0.13028
vn 0.14897 0.97749 0.14943
vn 0.17892 0.61192 0.77042
vn 0.76897 0.54334 0.33686
vn 0.21311 0.95028 0.22704
vn -0.04482 0.98766 -0.15005
vn 0.56844 -0.43735 -0.69685
vn -0.05 -0.55478 0.83049
vn 0.8562 0.10949 0.50491
vn 0.55214 -0.48772 0.67621
vn 0.87133 0.25948 0.41648
vn 0.41608 -0.90459 -0.09269
vn -0.45373 0.75825 0.46818
vn 0.07468 0.86789 -0.49112
vn 0.95403 0.29779 -0.03374
vn -0.00306 -0.41223 0.91108
vn -0.00306 -0.41223 0.91108
vn -6E-05 -0.99982 -0.01894
vn -0.00012 -0.84839 0.52938
vn -0.47335 -0.88057 0.02332
vn -0.47344 -0.88051 0.02337
vn 0.17302 -0.64001 -0.74863
vn -0.38002 -0.92217 0.07199
vn -0.57222 -0.80434 -0.16002
vn -0.577 -0.75489 -0.31179
vn 0.36488 -0.87202 -0.32626
vn -0.62359 -0.75016 -0.22
vn -0.67396 -0.59079 -0.44355
vn -0.68734 0.53687 0.48921
vn 0.09157 0.84481 0.52717
vn -0.06836 0.99764 -0.00675
vn 0.46989 0.09976 0.87707
vn -0.07041 0.38544 0.92004
vn 0.43814 0.52348 0.73075
vn 0.74135 -0.06052 0.66838
vn -0.50015 -0.46609 -0.7298
vn -0.50015 -0.46609 -0.72981
vn -0.50015 -0.46609 -0.7298
vn -0.79093 -0.1066 0.60255
vn -2E-05 0.42265 -0.90629
vn 0.01835 0.38108 -0.92436
vn -0.43852 -0.48305 0.75787
vn -0.51929 -0.45634 0.72256
vn 0.25882 -0.87542 -0.40822
vn 0.25882 -0.87543 -0.40822
vn 0.79709 -0.59359 -0.1109
vn 0.67435 -0.72974 0.11286
vn 0.53552 -0.84451 0.0041
vn 0.62645 -0.72882 -0.27639
vn 0.0072 0.19123 -0.98152
vn 0.0072 0.19122 -0.98152
vn -0.47331 0.50742 0.72007
vn -0.39362 0.80533 0.44329
vn -0.03769 0.15319 0.98748
vn 0.82902 -0.18229 0.52867
vn -0.0913 0.50645 0.85742
vn -0.34277 -0.1834 0.92134
vn -0.00805 0.19122 -0.98151
vn -0.00805 0.19122 -0.98151
vn -0.00805 0.19123 -0.98151
vn 0.98257 -0.06031 -0.17585
vn 0.58844 0.77978 0.21374
vn 0.22494 0.88308 0.41179
vn 0.46989 0.736 -0.48735
vn -0.07041 0.95255 -0.29612
vn 0.43814 0.89628 -0.06871
vn 0.08659 0.43598 -0.89578
vn 0.43852 0.48305 -0.75787
vn 0.25882 -0.87543 -0.40821
vn -0.91114 -0.0107 0.41196
vn -0.93111 0.15403 -0.33062
vn -0.93046 0.15474 -0.33213
vn 0.37729 -0.83453 0.40152
vn 0.23755 -0.50158 0.83186
vn 0.87242 -0.37845 0.30929
vn 0.77854 -0.50291 0.37545
vn -5E-05 0.68469 0.72884
vn -0.26624 0.64554 0.71582
vn 0.03799 0.67025 0.74116
vn -0.37798 0.76081 0.52755
vn 0.7705 -0.54679 -0.32764
vn 0.73274 -0.64731 0.20996
vn 0.2389 0.95168 -0.19297
vn 0.13127 0.97596 -0.174
vn 0.55352 0.83282 -0.00494
vn 0.43039 0.79051 -0.43572
vn 0.79218 0.6097 -0.02675
vn 0.42973 0.90176 0.04644
vn 0.77489 -0.62181 0.11357
vn 0.83433 -0.54964 -0.04227
vn -0.23876 -0.58131 -0.77786
vn -0.79908 0.20847 0.56392
vn 0.03017 0.17347 0.98438
vn 0.5391 0.83407 0.117
vn 0.19517 0.82296 0.53352
vn 0.85676 0.31518 0.40818
vn -0.62829 -0.74511 0.22374
vn -0.48395 -0.82889 -0.28061
vn 0.26899 -0.96261 -0.03194
vn -3E-05 -0.96876 -0.24798
vn 0.51548 -0.61155 -0.60025
vn 0.674 -0.59087 -0.44338
vn -0.77812 -0.61703 0.11752
vn 0.57699 -0.75496 -0.31165
vn -0.85342 -0.49472 -0.16409
vn -0.93157 0.36245 -0.02855
vn -0.99329 -0.11052 0.03398
vn 0.19777 0.5653 0.80083
vn 0.06213 0.97264 0.22386
vn 0.07931 -0.19722 0.97715
vn -0.93892 0.23793 0.24865
vn -0.11812 -0.55111 -0.82603
vn -0.12553 -0.97991 -0.155
vn -0.15709 -0.26534 -0.95127
vn 0.88388 0.46478 0.05227
vn -0.08247 -0.88783 -0.45273
vn 0.10872 0.56396 -0.81861
vn 0.10696 0.56481 -0.81826
vn 0.10726 0.80651 0.58141
vn 0.69195 -0.12684 0.71072
vn 0.67872 -0.11872 0.72474
vn 0.89294 -0.42298 0.15407
vn 0.94813 -0.27907 0.15219
vn -0.57602 -0.81495 -0.06375
vn -0.87995 -0.46757 -0.08404
vn 0.19851 0.96595 0.16596
vn 0.43575 0.8915 0.12392
vn 0.99996 -0.00525 0.00742
vn -0.15458 0.44586 0.88166
vn -0.18489 0.70705 0.68257
vn -2E-05 0.81267 0.58272
vn 0.30055 -0.4162 0.85816
vn 0.18586 -0.05911 0.9808
vn 0.76104 -0.63879 0.11299
vn 0.1198 0.47719 -0.8706
vn 0.14649 0.46957 -0.87066
vn -0.47229 0.87905 0.06491
vn -0.93929 0.00829 0.34303
vn -0.42326 0.74289 0.51862
vn -0.79045 -0.09862 0.60453
vn -0.18766 -0.53222 0.82554
vn 0.418 -0.30363 0.8562
vn 0.45477 0.09841 0.88515
vn -0.07202 -0.81628 0.57315
vn -0.87133 0.26281 0.41438
vn 0.04727 -0.55937 0.82757
vn -0.56843 -0.44294 -0.69332
vn -0.04718 0.56007 -0.8271
vn -0.77107 0.22983 0.59382
vn 0.5776 -0.77368 0.26037
vn 0.18155 0.89509 0.40726
vn -0.38266 -0.78684 -0.4842
vn 0.06196 -0.84784 0.52663
vn 0.01458 0.82964 -0.55811
vn 0.56067 -0.78021 -0.27734
vn 0.86106 0.31171 0.40175
vn 0.32492 -0.09618 -0.94084
vn -0.03237 0.01617 -0.99935
vn 0.26491 0.95147 0.15662
vn 0.26831 0.94864 0.16761
vn 0.45391 0.76139 0.46287
vn -0.20565 0.11457 -0.9719
vn -0.18232 0.19167 -0.96438
vn -0.42959 0.02896 -0.90256
vn -0.03459 -0.81348 0.58057
vn 0.82895 -0.18227 0.52878
vn -0.0419 -0.97303 0.22686
vn -0.07846 -0.19725 0.97721
vn 0.30316 -0.45709 -0.83616
vn 0.97508 -0.13603 0.17524
vn -0.01533 0.82963 -0.5581
vn -0.06231 0.97262 0.22391
vn 0.00013 0.70303 -0.71116
vn 0.0707 0.7745 -0.62861
vn -0.33679 0.87215 0.35487
vn 0.99999 0.00423 -0.0006
vn 0.26684 0.26636 -0.9262
vn -0.45497 0.09226 0.88571
vn -0.33942 0.51353 0.78809
vn 0.18078 0.13705 0.97393
vn 0.79203 0.58818 0.16349
vn 0.8567 0.40435 0.32026
vn 0.73899 0.62967 0.23961
vn 0.26841 0.66085 0.70088
vn 0.16464 0.86331 0.47706
vn -0.70906 -0.69506 0.11884
vn -0.58941 -0.78373 -0.19586
vn 0.32745 -0.93542 -0.13331
vn -0.75982 0.6448 0.08314
vn -0.88891 0.39064 0.23926
vn -0.51744 0.85563 0.01193
vn -0.47748 0.846 -0.23728
vn 0.79173 0.28782 0.53881
vn -0.72174 0.54787 -0.423
vn -0.69257 0.16694 -0.70177
vn 0.0072 0.19123 -0.98152
vn 0.0072 0.19123 -0.98152
vn -0.99961 -0.00322 0.02764
vn -0.91841 -0.31297 0.24203
vn 0.56926 -0.72961 -0.37895
vn 0.98914 -0.11745 -0.08833
vn 0.77656 0.58488 0.23425
vn 0.98974 -0.11065 -0.09039
vn 0.47872 0.87624 0.05509
vn -0.50015 -0.46609 -0.7298
vn -0.50015 -0.46608 -0.72981
vn 0.14448 0.78146 -0.607
vn 0.93302 -0.15389 0.32525
vn 0.98024 0.16443 -0.10999
vn 0.83043 0.55636 -0.02924
vn -0.00804 0.19122 -0.98151
vn 0.47135 0.8812 0.03615
vn 0.59496 0.78812 0.15774
vn 0.64575 0.74858 0.15041
vn 0.50016 -0.46021 -0.73352
vn -0.41445 0.79336 0.4459
vn -0.99995 -0.00926 -0.00469
vn -0.15313 -0.8825 0.44468
vn 0.06256 -0.82772 0.55765
vn -0.99993 0.00031 -0.01172
vn 0.25517 -0.23423 -0.9381
vn -0.19735 0.56523 0.80098
vn -0.89292 -0.3461 0.28794
vn -0.90813 0.30153 0.29048
vn -0.83673 0.2011 0.50935
vn -0.77805 -0.5032 0.37607
vn -0.25249 -0.94089 0.22579
vn -0.29098 0.87815 0.37973
vn -0.77364 0.55765 0.30086
vn 0.26899 0.64323 0.71687
vn 0.50269 -0.66836 -0.54826
vn -0.71624 -0.26389 0.64604
vn -0.96968 -0.2323 0.07588
vn -0.63115 0.65403 0.41702
vn -0.426 0.67813 0.59889
vn -0.58122 0.63931 0.50345
vn -0.85624 0.11375 0.5039
vn -0.82398 0.05924 0.56352
vn 0.63137 -0.762 -0.14399
vn 0.20803 -0.9735 0.09503
vn 0.63137 -0.762 -0.14399
vn -0.51353 -0.80598 -0.29443
vn -0.1945 -0.85378 -0.48294
vn -0.19159 -0.95279 -0.23555
vn 0.50788 0.40888 0.75821
vn 0.6585 0.41615 0.62705
vn 0.31043 -0.79017 0.52845
vn 0.99997 -0.00083 0.00757
vn -0.18489 -0.97736 -0.10289
vn 0.10111 0.49978 0.86023
vn 0.06421 0.52588 0.84813
vn 0.39368 0.80547 0.44298
vn 0.00014 0.34651 -0.93805
vn 0.07655 0.23259 -0.96956
vn 0.41473 0.02577 -0.90958
vn 0.20144 0.20276 -0.95829
vn 0.23888 -0.58134 -0.7778
vn -0.42338 -0.89294 -0.15297
vn 0.57496 0.25187 -0.77845
vn -0.84428 0.50768 0.17161
vn -0.79983 0.30033 0.51968
vn -0.81862 -0.03144 0.57347
vn 0.67267 -0.73886 -0.03988
vn 0.21148 -0.82208 0.52864
vn 0.18244 -0.97652 0.11456
vn -0.52433 0.8499 0.05248
vn -0.4462 0.86936 0.21243
vn 0.52587 0.85035 -0.01905
vn 0.43258 0.89757 -0.0851
vn 0.04604 -0.74644 0.66385
vn -0.9274 -0.31661 -0.19922
vn -0.91878 -0.19724 0.34196
vn -0.06373 0.52585 0.84818
vn 0.33985 0.51365 0.78782
vn 0.73239 0.25495 0.63135
vn 0.78667 0.4125 0.45934
vn 0.81847 -0.03154 0.57368
vn 0.99526 -0.0425 0.08751
vn -0.81869 -0.42033 0.39125
vn 0.57713 0.80517 0.13645
vn 0.42046 0.89372 0.15645
vn 0.18194 0.88925 0.41969
vn -0.00014 -0.42262 0.90631
vn 0.94854 0.3073 -0.07637
vn 0.99996 -0.00698 -0.00561
vn -0.61107 0.72067 0.32747
vn -0.6119 0.72046 0.32638
vn -0.86594 0.2679 0.42235
vn -0.86594 0.2679 0.42236
vn 0.24867 -0.72394 -0.64348
vn -0.78446 -0.54854 -0.28936
vn -0.90264 -0.07329 -0.42412
vn 0.52864 -0.76844 0.36061
vn -0.59399 0.02021 -0.80422
vn -0.06492 0.76582 0.63977
vn 0.43258 0.51175 0.74228
vn 0.91856 -0.29932 0.25816
vn 0.82381 -0.00977 0.56678
vn -0.79183 0.28792 0.53861
vn 0.25882 -0.87543 -0.40822
vn 0.68301 0.4647 -0.56351
vn 0.50016 -0.46021 -0.73352
vn -0.35151 0.60181 0.71712
vn -0.28615 0.8274 0.48325
vn -0.76338 0.22132 0.60685
vn -0.99999 -0.0004 0.00522
vn -0.04831 0.53024 0.84647
vn 0.30012 0.08015 0.95053
vn -0.07869 0.497 0.86418
vn 0.75124 -0.65908 -0.03532
vn 1 0.00101 -0.00092
vn 0.84502 -0.42081 -0.32995
vn 0.00721 0.19122 -0.98152
vn -0.99555 0.09067 0.02583
vn -0.99555 0.09067 0.02583
vn 0.18866 -0.98067 -0.05181
vn 0.93107 -0.13024 0.34081
vn 0.88889 0.39054 0.23948
vn -0.18965 -0.97004 -0.15185
vn -0.18199 -0.97659 0.1147
vn 0.57217 -0.8044 -0.15988
vn 0.25882 -0.87542 -0.40822
vn -0.59513 0.7879 0.15822
vn 0.99336 -0.11016 0.03319
vn -0.98775 0.14491 0.05796
vn 0.49265 0.36807 -0.78856
vn 0.99553 0.09104 0.02504
vn -0.00805 0.19121 -0.98152
vn -0.28365 0.75444 0.59191
vn -0.27353 0.67781 -0.68246
vn -0.15458 -0.96198 0.22517
vn -0.15458 -0.96198 0.22517
vn 0.31876 0.59854 0.73495
vn 0.55355 -0.07368 0.82955
vn -0.98268 -0.06068 -0.17507
vn 0.86593 0.26451 0.4245
vn 0.86593 0.26451 0.4245
vn -0.00478 0.49971 0.86618
vn 0.76504 0.53771 -0.35438
vn 0.93335 0.15257 -0.32494
vn -0.27371 0.67114 0.68896
vn -0.52304 -0.41794 0.7428
vn -0.99997 0.00532 0.00598
vn -0.95668 0.27041 0.10789
vn -0.49967 -0.86296 -0.07506
vn 0.79402 -0.40251 -0.45555
vn -0.00805 0.19122 -0.98151
vn -0.40639 0.91194 0.05664
vn -0.93299 -0.1531 0.3257
vn -0.5154 -0.61149 -0.60038
vn 0.8153 0.0852 0.57274
vn 0.5576 -0.76477 0.32281
vn -6E-05 -1 0.00189
vn -0.99555 0.09067 0.02583
vn -0.51499 -0.11274 -0.84975
vn -0.153 -0.04673 -0.98712
vn -2E-05 -0.95233 -0.30506
vn 0.56315 -0.49105 0.66464
vn -0.45643 -0.0321 0.88918
vn -0.51404 0.69205 -0.50678
vn -0.07171 0.62305 -0.77889
vn -1 0.001 -0.00091
vn 0.93204 -0.16192 0.32416
vn -0.86594 0.2679 0.42236
f 1//1 2//1 3//1
f 4//2 5//2 6//2
f 7//3 8//3 9//3
f 10//4 11//4 7//4
f 3//5 2//5 12//5
f 4//6 13//6 12//6
f 14//7 8//7 15//7
f 16//8 17//8 18//8
f 19//9 2//9 1//9
f 5//10 2//10 6//10
f 16//11 14//11 15//11
f 20//12 7//12 9//12
f 15//13 8//13 18//13
f 16//14 18//14 11//14
f 16//15 10//15 14//15
f 10//16 16//16 11//16
f 4//17 21//17 13//17
f 13//18 3//18 12//18
f 4//19 22//19 19//19
f 19//20 22//20 2//20
f 15//21 18//21 17//21
f 17//22 16//22 15//22
f 7//23 11//23 8//23
f 8//24 11//24 18//24
f 10//25 9//25 14//25
f 9//26 8//26 14//26
f 12//27 2//27 5//27
f 4//28 12//28 5//28
f 21//29 4//29 1//29
f 4//30 19//30 1//30
f 4//31 6//31 22//31
f 22//32 6//32 2//32
f 20//33 9//33 10//33
f 20//34 10//34 7//34
f 1//35 3//35 21//35
f 13//36 21//36 3//36
f 23//37 24//37 25//37
f 26//38 23//38 25//38
f 23//39 27//39 24//39
f 25//40 24//40 28//40
f 29//41 30//41 31//41
f 30//42 32//42 31//42
f 29//43 33//43 30//43
f 34//44 35//44 36//44
f 34//45 37//45 35//45
f 38//46 36//46 35//46
f 39//47 34//47 36//47
f 40//48 41//48 42//48
f 40//49 42//49 43//49
f 41//50 40//50 44//50
f 41//51 45//51 42//51
f 46//52 47//52 48//52
f 46//53 49//53 47//53
f 48//54 47//54 50//54
f 51//55 46//55 48//55
f 52//56 53//56 54//56
f 53//57 55//57 54//57
f 52//58 54//58 56//58
f 57//59 58//59 59//59
f 59//60 58//60 60//60
f 52//61 61//61 53//61
f 62//62 63//62 64//62
f 62//63 65//63 63//63
f 64//64 63//64 66//64
f 62//65 64//65 67//65
f 68//66 69//66 70//66
f 71//67 70//67 72//67
f 71//68 68//68 70//68
f 73//69 74//69 75//69
f 74//70 76//70 75//70
f 73//71 75//71 66//71
f 68//72 77//72 69//72
f 78//73 79//73 80//73
f 78//74 80//74 29//74
f 81//75 79//75 78//75
f 82//76 83//76 84//76
f 85//77 82//77 84//77
f 83//78 86//78 84//78
f 87//79 88//79 89//79
f 90//80 87//80 89//80
f 87//81 43//81 88//81
f 89//82 88//82 91//82
f 92//83 93//83 94//83
f 95//84 92//84 94//84
f 92//85 96//85 93//85
f 94//86 93//86 97//86
f 98//87 99//87 100//87
f 98//88 100//88 101//88
f 102//89 99//89 98//89
f 99//90 103//90 100//90
f 104//91 105//91 77//91
f 104//92 77//92 106//92
f 107//93 105//93 104//93
f 108//94 109//94 110//94
f 108//95 110//95 111//95
f 112//96 109//96 108//96
f 113//97 114//97 70//97
f 113//98 70//98 115//98
f 114//99 72//99 70//99
f 116//100 117//100 118//100
f 116//101 119//101 117//101
f 120//102 118//102 117//102
f 118//103 121//103 116//103
f 122//104 123//104 124//104
f 122//105 125//105 123//105
f 124//106 126//106 122//106
f 127//107 128//107 129//107
f 130//108 127//108 129//108
f 127//109 131//109 128//109
f 129//110 128//110 132//110
f 133//111 134//111 135//111
f 133//112 135//112 136//112
f 133//113 137//113 134//113
f 134//114 138//114 135//114
f 41//115 139//115 45//115
f 25//116 139//116 41//116
f 45//117 139//117 140//117
f 141//118 142//118 143//118
f 143//119 142//119 144//119
f 141//120 143//120 57//120
f 141//121 48//121 142//121
f 145//122 146//122 147//122
f 145//123 148//123 146//123
f 147//124 146//124 149//124
f 150//125 145//125 147//125
f 151//126 152//126 153//126
f 154//127 151//127 153//127
f 151//128 155//128 152//128
f 153//129 152//129 156//129
f 157//130 158//130 159//130
f 158//131 160//131 159//131
f 159//132 161//132 157//132
f 162//133 158//133 157//133
f 163//134 115//134 164//134
f 163//135 164//135 165//135
f 163//136 166//136 115//136
f 115//137 167//137 164//137
f 168//138 169//138 170//138
f 167//139 170//139 164//139
f 167//140 168//140 170//140
f 171//141 172//141 173//141
f 172//142 174//142 173//142
f 171//143 173//143 175//143
f 176//144 172//144 171//144
f 177//145 178//145 179//145
f 177//146 179//146 180//146
f 181//147 182//147 183//147
f 181//148 184//148 182//148
f 185//149 183//149 182//149
f 186//150 181//150 183//150
f 187//151 188//151 189//151
f 187//152 190//152 188//152
f 189//153 188//153 134//153
f 187//154 189//154 191//154
f 192//155 193//155 194//155
f 192//156 194//156 195//156
f 193//157 192//157 196//157
f 197//158 194//158 193//158
f 198//159 199//159 200//159
f 201//160 198//160 200//160
f 198//161 202//161 199//161
f 200//162 199//162 203//162
f 44//163 40//163 204//163
f 204//164 40//164 205//164
f 57//165 206//165 58//165
f 143//166 206//166 57//166
f 206//167 207//167 58//167
f 78//168 29//168 208//168
f 29//169 31//169 208//169
f 78//170 208//170 209//170
f 210//171 61//171 52//171
f 211//172 53//172 61//172
f 212//173 213//173 102//173
f 102//174 213//174 99//174
f 214//175 212//175 102//175
f 215//176 213//176 212//176
f 114//177 215//177 72//177
f 154//178 216//178 151//178
f 217//179 218//179 219//179
f 217//180 219//180 161//180
f 218//181 220//181 219//181
f 67//182 64//182 221//182
f 222//183 62//183 67//183
f 107//184 69//184 105//184
f 26//185 25//185 144//185
f 26//186 223//186 23//186
f 84//187 86//187 224//187
f 86//188 225//188 224//188
f 225//189 223//189 224//189
f 169//190 226//190 170//190
f 168//191 227//191 169//191
f 107//192 227//192 69//192
f 227//193 168//193 69//193
f 228//194 227//194 107//194
f 229//195 230//195 231//195
f 230//196 232//196 231//196
f 229//197 231//197 233//197
f 229//198 234//198 230//198
f 235//199 205//199 236//199
f 235//200 149//200 205//200
f 205//201 237//201 236//201
f 235//202 236//202 234//202
f 238//203 239//203 240//203
f 240//204 239//204 241//204
f 242//205 238//205 240//205
f 238//206 243//206 239//206
f 244//207 245//207 246//207
f 247//208 245//208 244//208
f 245//209 242//209 246//209
f 244//210 246//210 172//210
f 248//211 129//211 132//211
f 184//212 181//212 249//212
f 250//213 195//213 126//213
f 250//214 126//214 124//214
f 251//215 195//215 250//215
f 252//216 253//216 254//216
f 253//217 252//217 255//217
f 256//218 252//218 254//218
f 130//219 129//219 248//219
f 130//220 257//220 127//220
f 258//221 259//221 260//221
f 258//222 186//222 259//222
f 260//223 259//223 261//223
f 262//224 263//224 125//224
f 262//225 264//225 263//225
f 125//226 263//226 123//226
f 265//227 262//227 125//227
f 120//228 117//228 201//228
f 266//229 120//229 201//229
f 117//230 198//230 201//230
f 35//231 37//231 80//231
f 79//232 35//232 80//232
f 267//233 90//233 89//233
f 231//234 87//234 90//234
f 214//235 268//235 269//235
f 98//236 214//236 102//236
f 98//237 270//237 268//237
f 271//238 68//238 270//238
f 68//239 268//239 270//239
f 271//240 270//240 103//240
f 271//241 77//241 68//241
f 272//242 273//242 137//242
f 273//243 191//243 137//243
f 272//244 137//244 133//244
f 274//245 273//245 272//245
f 275//246 187//246 191//246
f 275//247 191//247 273//247
f 187//248 275//248 257//248
f 93//249 276//249 97//249
f 94//250 97//250 277//250
f 235//251 147//251 149//251
f 147//252 235//252 278//252
f 279//253 220//253 218//253
f 280//254 158//254 162//254
f 64//255 66//255 281//255
f 63//256 282//256 66//256
f 163//257 165//257 283//257
f 165//258 284//258 283//258
f 27//259 55//259 24//259
f 54//260 55//260 27//260
f 285//261 24//261 55//261
f 286//262 34//262 39//262
f 287//263 286//263 39//263
f 34//264 286//264 288//264
f 289//265 59//265 290//265
f 289//266 291//266 59//266
f 290//267 59//267 60//267
f 148//268 289//268 290//268
f 292//269 175//269 179//269
f 293//270 175//270 292//270
f 294//271 292//271 179//271
f 238//272 295//272 243//272
f 296//273 156//273 217//273
f 156//274 297//274 217//274
f 296//275 217//275 298//275
f 153//276 156//276 296//276
f 158//277 299//277 160//277
f 158//278 280//278 299//278
f 299//279 300//279 160//279
f 47//280 301//280 302//280
f 47//281 303//281 301//281
f 302//282 301//282 304//282
f 47//283 302//283 50//283
f 26//284 305//284 223//284
f 306//285 91//285 307//285
f 91//286 308//286 307//286
f 306//287 307//287 309//287
f 89//288 91//288 306//288
f 310//289 38//289 311//289
f 38//290 310//290 36//290
f 38//291 81//291 311//291
f 310//292 311//292 49//292
f 312//293 81//293 78//293
f 312//294 78//294 82//294
f 192//295 195//295 251//295
f 196//296 192//296 251//296
f 262//297 313//297 264//297
f 185//298 314//298 315//298
f 316//299 185//299 315//299
f 185//300 182//300 314//300
f 315//301 314//301 136//301
f 190//302 187//302 317//302
f 188//303 190//303 318//303
f 177//304 293//304 178//304
f 319//305 293//305 177//305
f 178//306 293//306 292//306
f 171//307 175//307 293//307
f 253//308 255//308 320//308
f 265//309 125//309 321//309
f 109//310 322//310 323//310
f 37//311 267//311 33//311
f 33//312 267//312 89//312
f 80//313 37//313 33//313
f 95//314 233//314 324//314
f 95//315 325//315 233//315
f 233//316 231//316 324//316
f 95//317 324//317 326//317
f 327//318 25//318 41//318
f 25//319 28//319 139//319
f 58//320 207//320 328//320
f 206//321 327//321 207//321
f 209//322 208//322 210//322
f 209//323 210//323 52//323
f 208//324 329//324 210//324
f 330//325 331//325 258//325
f 132//326 330//326 258//326
f 330//327 332//327 331//327
f 258//328 249//328 186//328
f 249//329 181//329 186//329
f 258//330 332//330 249//330
f 274//331 131//331 273//331
f 136//332 182//332 330//332
f 274//333 330//333 128//333
f 272//334 136//334 274//334
f 284//335 333//335 283//335
f 165//336 170//336 284//336
f 334//337 226//337 322//337
f 322//338 226//338 323//338
f 119//339 197//339 335//339
f 197//340 193//340 335//340
f 119//341 335//341 336//341
f 126//342 119//342 116//342
f 126//343 194//343 197//343
f 126//344 197//344 119//344
f 234//345 236//345 230//345
f 337//346 234//346 229//346
f 338//347 337//347 339//347
f 338//348 340//348 337//348
f 340//349 341//349 337//349
f 342//350 49//350 46//350
f 342//351 46//351 51//351
f 342//352 310//352 49//352
f 287//353 39//353 291//353
f 287//354 291//354 289//354
f 291//355 39//355 36//355
f 99//356 222//356 343//356
f 99//357 343//357 103//357
f 344//358 222//358 99//358
f 222//359 345//359 343//359
f 346//360 114//360 113//360
f 346//361 113//361 65//361
f 114//362 346//362 215//362
f 155//363 157//363 161//363
f 161//364 219//364 220//364
f 155//365 220//365 152//365
f 216//366 155//366 151//366
f 323//367 226//367 76//367
f 226//368 169//368 76//368
f 76//369 169//369 347//369
f 169//370 228//370 347//370
f 76//371 347//371 75//371
f 348//372 200//372 349//372
f 350//373 200//373 348//373
f 349//374 200//374 203//374
f 313//375 348//375 349//375
f 351//376 196//376 251//376
f 264//377 351//377 251//377
f 349//378 196//378 351//378
f 26//379 302//379 304//379
f 301//380 84//380 304//380
f 304//381 224//381 223//381
f 225//382 23//382 223//382
f 343//383 271//383 103//383
f 221//384 107//384 104//384
f 221//385 104//385 352//385
f 281//386 107//386 221//386
f 295//387 319//387 243//387
f 353//388 319//388 295//388
f 319//389 180//389 243//389
f 353//390 293//390 319//390
f 353//391 354//391 293//391
f 355//392 256//392 121//392
f 355//393 121//393 118//393
f 356//394 256//394 355//394
f 256//395 254//395 121//395
f 356//396 265//396 256//396
f 356//397 355//397 266//397
f 261//398 259//398 357//398
f 259//399 185//399 357//399
f 261//400 357//400 318//400
f 260//401 261//401 358//401
f 37//402 359//402 267//402
f 288//403 359//403 37//403
f 359//404 360//404 267//404
f 286//405 361//405 288//405
f 286//406 359//406 361//406
f 96//407 276//407 93//407
f 97//408 276//408 145//408
f 96//409 286//409 287//409
f 220//410 297//410 156//410
f 156//411 152//411 220//411
f 297//412 220//412 279//412
f 297//413 279//413 217//413
f 148//414 60//414 146//414
f 148//415 290//415 60//415
f 60//416 362//416 146//416
f 362//417 44//417 204//417
f 362//418 204//418 149//418
f 207//419 44//419 362//419
f 281//420 66//420 363//420
f 363//421 66//421 75//421
f 281//422 363//422 228//422
f 221//423 64//423 281//423
f 281//424 228//424 107//424
f 364//425 365//425 216//425
f 365//426 364//426 299//426
f 216//427 365//427 366//427
f 364//428 216//428 154//428
f 367//429 366//429 368//429
f 367//430 369//430 368//430
f 366//431 368//431 370//431
f 371//432 372//432 162//432
f 162//433 372//433 280//433
f 371//434 162//434 155//434
f 372//435 373//435 371//435
f 371//436 370//436 373//436
f 372//437 373//437 369//437
f 115//438 70//438 167//438
f 167//439 70//439 69//439
f 167//440 69//440 168//440
f 91//441 374//441 308//441
f 375//442 308//442 307//442
f 374//443 376//443 308//443
f 45//444 376//444 374//444
f 375//445 308//445 376//445
f 45//446 140//446 376//446
f 139//447 377//447 140//447
f 377//448 28//448 378//448
f 377//449 378//449 379//449
f 139//450 28//450 377//450
f 24//451 378//451 28//451
f 242//452 240//452 246//452
f 245//453 353//453 242//453
f 242//454 353//454 295//454
f 215//455 344//455 213//455
f 344//456 99//456 213//456
f 215//457 380//457 344//457
f 215//458 212//458 71//458
f 173//459 174//459 239//459
f 173//460 239//460 243//460
f 175//461 173//461 243//461
f 381//462 174//462 172//462
f 71//463 268//463 68//463
f 269//464 268//464 71//464
f 101//465 100//465 270//465
f 100//466 103//466 270//466
f 98//467 101//467 270//467
f 98//468 268//468 214//468
f 33//469 89//469 306//469
f 33//470 306//470 30//470
f 306//471 309//471 30//471
f 135//472 315//472 136//472
f 182//473 184//473 330//473
f 136//474 314//474 182//474
f 266//475 201//475 382//475
f 266//476 355//476 120//476
f 262//477 382//477 350//477
f 262//478 350//478 348//478
f 262//479 266//479 382//479
f 350//480 382//480 200//480
f 126//481 116//481 254//481
f 253//482 126//482 254//482
f 320//483 126//483 253//483
f 320//484 125//484 122//484
f 113//485 166//485 65//485
f 346//486 65//486 62//486
f 163//487 283//487 282//487
f 282//488 283//488 66//488
f 63//489 163//489 282//489
f 170//490 383//490 284//490
f 384//491 170//491 165//491
f 164//492 170//492 384//492
f 385//493 327//493 206//493
f 144//494 25//494 385//494
f 385//495 25//495 327//495
f 318//496 357//496 316//496
f 318//497 386//497 261//497
f 134//498 188//498 138//498
f 188//499 318//499 138//499
f 342//500 51//500 387//500
f 387//501 51//501 141//501
f 36//502 342//502 387//502
f 59//503 387//503 57//503
f 267//504 360//504 90//504
f 326//505 324//505 231//505
f 303//506 388//506 85//506
f 303//507 85//507 301//507
f 311//508 388//508 303//508
f 388//509 82//509 85//509
f 312//510 311//510 81//510
f 311//511 312//511 388//511
f 379//512 378//512 285//512
f 379//513 389//513 377//513
f 53//514 285//514 55//514
f 150//515 147//515 341//515
f 97//516 145//516 150//516
f 340//517 94//517 277//517
f 341//518 340//518 277//518
f 340//519 338//519 94//519
f 205//520 40//520 237//520
f 237//521 40//521 43//521
f 231//522 232//522 87//522
f 232//523 43//523 87//523
f 390//524 329//524 208//524
f 208//525 31//525 390//525
f 329//526 390//526 391//526
f 32//527 390//527 31//527
f 391//528 390//528 32//528
f 119//529 336//529 117//529
f 336//530 335//530 202//530
f 392//531 336//531 202//531
f 202//532 393//532 392//532
f 394//533 336//533 392//533
f 117//534 395//534 198//534
f 396//535 198//535 395//535
f 395//536 394//536 396//536
f 396//537 397//537 198//537
f 166//538 113//538 115//538
f 108//539 73//539 333//539
f 283//540 333//540 73//540
f 283//541 73//541 66//541
f 380//542 346//542 62//542
f 71//543 212//543 214//543
f 269//544 71//544 214//544
f 338//545 339//545 233//545
f 325//546 338//546 233//546
f 199//547 335//547 193//547
f 193//548 196//548 199//548
f 49//549 303//549 47//549
f 49//550 311//550 303//550
f 359//551 326//551 360//551
f 276//552 148//552 145//552
f 276//553 289//553 148//553
f 276//554 287//554 289//554
f 318//555 190//555 386//555
f 190//556 317//556 386//556
f 326//557 231//557 360//557
f 383//558 334//558 322//558
f 170//559 334//559 383//559
f 248//560 132//560 258//560
f 248//561 258//561 260//561
f 130//562 248//562 260//562
f 246//563 381//563 172//563
f 176//564 244//564 172//564
f 398//565 240//565 241//565
f 398//566 241//566 399//566
f 240//567 398//567 400//567
f 241//568 239//568 174//568
f 401//569 402//569 381//569
f 401//570 402//570 400//570
f 401//571 403//571 381//571
f 345//572 271//572 343//572
f 307//573 309//573 404//573
f 404//574 32//574 391//574
f 404//575 32//575 309//575
f 395//576 336//576 394//576
f 198//577 393//577 202//577
f 339//578 229//578 233//578
f 94//579 338//579 325//579
f 209//580 52//580 56//580
f 56//581 54//581 405//581
f 402//582 400//582 240//582
f 381//583 403//583 399//583
f 381//584 399//584 241//584
f 405//585 54//585 23//585
f 405//586 23//586 225//586
f 54//587 27//587 23//587
f 349//588 351//588 313//588
f 262//589 348//589 313//589
f 191//590 406//590 137//590
f 137//591 406//591 407//591
f 191//592 408//592 406//592
f 189//593 134//593 409//593
f 189//594 409//594 408//594
f 409//595 407//595 408//595
f 84//596 224//596 304//596
f 301//597 85//597 84//597
f 245//598 354//598 353//598
f 354//599 247//599 293//599
f 372//600 369//600 367//600
f 371//601 366//601 370//601
f 130//602 260//602 358//602
f 187//603 358//603 317//603
f 216//604 366//604 155//604
f 366//605 371//605 155//605
f 365//606 367//606 366//606
f 310//607 342//607 36//607
f 291//608 36//608 387//608
f 278//609 235//609 337//609
f 337//610 235//610 234//610
f 339//611 337//611 229//611
f 142//612 26//612 144//612
f 144//613 385//613 143//613
f 50//614 302//614 26//614
f 26//615 304//615 305//615
f 38//616 35//616 79//616
f 363//617 347//617 228//617
f 169//618 227//618 228//618
f 136//619 330//619 274//619
f 128//620 330//620 132//620
f 207//621 41//621 44//621
f 327//622 41//622 207//622
f 111//623 74//623 73//623
f 74//624 111//624 76//624
f 76//625 110//625 323//625
f 111//626 110//626 76//626
f 110//627 109//627 323//627
f 179//628 175//628 243//628
f 179//629 243//629 180//629
f 319//630 177//630 180//630
f 255//631 265//631 321//631
f 320//632 321//632 125//632
f 320//633 255//633 321//633
f 254//634 116//634 121//634
f 131//635 274//635 128//635
f 275//636 131//636 127//636
f 275//637 273//637 131//637
f 155//638 161//638 220//638
f 296//639 364//639 154//639
f 154//640 153//640 296//640
f 298//641 217//641 161//641
f 159//642 298//642 161//642
f 296//643 298//643 410//643
f 189//644 408//644 191//644
f 137//645 407//645 409//645
f 106//646 77//646 271//646
f 352//647 104//647 106//647
f 352//648 106//648 271//648
f 199//649 196//649 203//649
f 349//650 203//650 196//650
f 341//651 277//651 150//651
f 341//652 147//652 278//652
f 96//653 287//653 276//653
f 376//654 140//654 389//654
f 317//655 261//655 386//655
f 202//656 335//656 199//656
f 352//657 67//657 221//657
f 222//658 67//658 345//658
f 345//659 67//659 352//659
f 241//660 174//660 381//660
f 402//661 381//661 246//661
f 138//662 316//662 315//662
f 357//663 185//663 316//663
f 138//664 315//664 135//664
f 42//665 45//665 374//665
f 43//666 42//666 88//666
f 42//667 374//667 88//667
f 280//668 365//668 299//668
f 365//669 280//669 367//669
f 176//670 171//670 293//670
f 247//671 176//671 293//671
f 237//672 43//672 232//672
f 187//673 257//673 358//673
f 257//674 130//674 358//674
f 257//675 275//675 127//675
f 86//676 405//676 225//676
f 86//677 56//677 405//677
f 209//678 56//678 78//678
f 78//679 56//679 86//679
f 210//680 329//680 61//680
f 391//681 411//681 329//681
f 329//682 61//682 411//682
f 58//683 328//683 60//683
f 60//684 328//684 362//684
f 362//685 149//685 146//685
f 263//686 250//686 124//686
f 313//687 351//687 264//687
f 264//688 251//688 263//688
f 142//689 50//689 26//689
f 48//690 50//690 142//690
f 65//691 166//691 163//691
f 65//692 163//692 63//692
f 160//693 298//693 159//693
f 184//694 249//694 332//694
f 258//695 331//695 332//695
f 262//696 356//696 266//696
f 265//697 356//697 262//697
f 96//698 92//698 359//698
f 286//699 96//699 359//699
f 359//700 92//700 95//700
f 359//701 95//701 326//701
f 149//702 204//702 205//702
f 412//703 255//703 252//703
f 412//704 252//704 256//704
f 265//705 412//705 256//705
f 337//706 341//706 278//706
f 34//707 288//707 37//707
f 288//708 361//708 359//708
f 109//709 383//709 322//709
f 112//710 383//710 109//710
f 400//711 398//711 401//711
f 398//712 403//712 401//712
f 108//713 111//713 73//713
f 333//714 284//714 108//714
f 108//715 284//715 112//715
f 379//716 285//716 53//716
f 53//717 379//717 211//717
f 222//718 380//718 62//718
f 215//719 346//719 380//719
f 80//720 33//720 29//720
f 215//721 71//721 72//721
f 143//722 385//722 206//722
f 170//723 226//723 334//723
f 165//724 164//724 384//724
f 155//725 162//725 157//725
f 387//726 141//726 57//726
f 51//727 48//727 141//727
f 352//728 271//728 345//728
f 207//729 362//729 328//729
f 299//730 296//730 300//730
f 160//731 300//731 410//731
f 299//732 364//732 296//732
f 360//733 231//733 90//733
f 178//734 292//734 294//734
f 178//735 294//735 179//735
f 272//736 133//736 136//736
f 396//737 392//737 393//737
f 394//738 392//738 396//738
f 263//739 251//739 250//739
f 123//740 263//740 124//740
f 81//741 38//741 79//741
f 186//742 183//742 185//742
f 259//743 186//743 185//743
f 30//744 309//744 32//744
f 77//745 105//745 69//745
f 120//746 355//746 118//746
f 137//747 409//747 134//747
f 284//748 383//748 112//748
f 78//749 86//749 83//749
f 406//750 408//750 407//750
f 126//751 195//751 194//751
f 291//752 387//752 59//752
f 304//753 223//753 305//753
f 236//754 237//754 230//754
f 230//755 237//755 232//755
f 247//756 354//756 245//756
f 247//757 244//757 176//757
f 330//758 184//758 332//758
f 369//759 373//759 370//759
f 368//760 369//760 370//760
f 344//761 380//761 222//761
f 388//762 312//762 82//762
f 82//763 78//763 83//763
f 97//764 150//764 277//764
f 160//765 410//765 298//765
f 296//766 410//766 300//766
f 117//767 336//767 395//767
f 246//768 402//768 240//768
f 389//769 140//769 377//769
f 320//770 122//770 126//770
f 242//771 295//771 238//771
f 358//772 261//772 317//772
f 378//773 24//773 285//773
f 367//774 280//774 372//774
f 318//775 316//775 138//775
f 411//776 211//776 61//776
f 396//777 393//777 397//777
f 404//778 307//778 413//778
f 307//779 375//779 413//779
f 88//780 374//780 91//780
f 95//781 94//781 325//781
f 382//782 201//782 200//782
f 363//783 75//783 347//783
f 397//784 393//784 198//784
f 279//785 218//785 217//785
f 412//786 265//786 255//786
f 398//787 399//787 403//787
# Vertices: 413, normals: 787, texture coordinates: 0, faces: 787

