# File generated by ImageToStl.com - Free Image and 3D model conversion tools

o obj1
v 15.74688435 8.04004478 11.63676929
v 15.41683674 8.00709152 11.4660387
v 15.74709988 8.12428474 11.40284348
v 15.71372795 8.06760693 11.69943905
v 15.42278576 8.14523506 11.34850216
v 15.36067104 8.06008434 11.49172592
v 13.86487675 7.62188387 11.48308182
v 13.90075684 7.66674519 11.21341705
v 13.99409962 7.57529736 11.45652199
v 14.18225861 7.69895792 11.5190239
v 13.81066132 7.70919991 11.2614584
v 15.57994461 8.213727 11.30126095
v 15.76889515 8.21775341 11.41242599
v 14.20349884 7.66559458 11.44654179
v 14.17222023 7.75346279 11.21515846
v 14.24798965 7.7843523 11.37757015
v 14.14805508 7.84178448 11.19104576
v 13.89908028 7.781322 11.16285324
v 15.60203838 7.983675 11.69341755
v 14.0235672 7.63166237 11.56272507
v 15.81005859 8.12943268 11.51272869
v 15.42998695 8.00815487 11.6470356
v 16.99211311 9.21637249 10.97560501
v 16.13119888 9.06444836 10.75556946
v 12.54109383 8.16880989 10.40006542
v 12.80860043 7.57589579 11.84117889
v 12.01617432 7.63518763 11.21161079
v 16.54371262 8.4829464 12.26414394
v 17.24259567 8.40174484 11.95573711
v 12.90639973 7.24509954 11.6869278
v 12.18819237 7.24232197 11.23752499
v 12.63889408 7.83801413 10.24581242
v 16.64151192 8.827878 10.66079044
v 17.08991432 8.88557625 10.82135391
v 15.58824921 10.5118475 3.92889094
v 14.66175747 10.38095856 3.44460368
v 15.4251194 10.93127346 2.9051981
v 14.91000843 10.77361679 2.83313966
v 15.58445168 10.69456577 3.60511446
v 14.49309921 10.13320923 4.15993929
v 12.20751667 8.00202942 10.54623222
v 16.64151192 8.15215111 12.10989189
v 12.45799637 7.18740129 11.52636337
v 17.33613777 9.0993824 11.44461155
v 14.49300289 10.07556438 4.89957094
v 14.85281658 10.16672134 4.84238815
v 14.13321304 10.16676426 4.84229755
v 15.22392273 10.21973896 4.6101346
v 12.80860043 8.25162315 10.3920784
v 14.49322701 10.44212151 3.28499913
v 14.06439304 10.57250118 3.11981106
v 14.03404999 11.20510578 2.48577642
v 14.32464981 10.38097858 3.444561
v 13.51371956 10.36347294 4.26143551
v 13.3719759 10.64286709 3.58341098
v 13.42823124 10.56564426 3.94451118
v 17.35971642 8.8306551 11.11019421
v 17.14479637 8.73254013 12.10999107
v 17.43393707 8.59631729 11.65979195
v 12.36019802 7.51819754 11.68061543
v 15.4446907 10.41988659 4.27039909
v 12.18819237 7.57477903 10.5245676
v 12.08758926 7.38411951 10.86965466
v 13.68363285 11.03143024 2.73981524
v 14.7888937 11.23846626 2.4273026
v 16.99211502 8.64303398 12.20513439
v 15.27946758 11.06961441 2.78500056
v 14.93847656 11.23981571 2.53720593
v 14.61831188 10.3374691 3.54890013
v 13.45086384 10.83913612 3.23904562
v 13.83420181 11.1461668 2.66893482
v 13.76217175 10.21982479 4.60995007
v 14.20750999 11.27414131 2.47900271
v 14.3626585 10.50441265 3.49935484
v 13.54151344 10.41999912 4.27015924
vn 0.25985 -0.90861 -0.32696
vn -0.25882 0.87543 0.40822
vn -0.36842 -0.90788 -0.20005
vn -0.25882 0.87543 0.40822
vn 0.09427 -0.66512 -0.74076
vn -0.25882 0.87543 0.40822
vn 0.28442 -0.88286 -0.37372
vn -0.25882 0.87543 0.40822
vn 0.24447 -0.92392 -0.29427
vn -0.68729 -0.45331 -0.56758
vn 0.82628 -0.48037 -0.29412
vn -0.20013 -0.84136 0.50206
vn 0.13313 -0.39851 -0.90745
vn -0.25882 0.87542 0.40822
vn 0.9281 -0.14972 0.3409
vn -0.25882 0.87543 0.40822
vn 0.44735 0.75427 0.48057
vn 0.50733 -0.03 -0.86123
vn -0.22293 0.22867 0.94763
vn -0.14517 -0.98927 0.01636
vn 0.162 -0.2184 -0.96232
vn 0.89004 0.12374 -0.43876
vn -0.50505 -0.83799 -0.20661
vn -0.56233 -0.34073 -0.75345
vn 0.36734 -0.79931 0.47557
vn 0.33731 -0.8311 -0.44215
vn 0.05434 -0.64841 -0.75935
vn -0.25882 0.87543 0.40822
vn 0.88654 0.0151 0.4624
vn 0.48106 -0.67986 0.55351
vn -0.25882 0.87543 0.40822
vn -0.67232 -0.73835 0.05319
vn 0.44332 -0.83686 0.32114
vn -0.25882 0.87543 0.40822
vn 0.5551 -0.78275 -0.28137
vn 0.86077 -0.15087 -0.48611
vn -0.25882 0.87543 0.40822
vn -0.25882 0.87543 0.40822
vn -0.25882 0.87543 0.40822
vn 0.25882 -0.87543 -0.40822
vn 0.25882 -0.87543 -0.40822
vn 0.25882 -0.87543 -0.40822
vn 0.33094 -0.85353 -0.40244
vn 0.31884 -0.8511 -0.4171
vn 0.67196 -0.64157 -0.36994
vn 0.26642 -0.92848 -0.25875
vn -0.25882 0.87543 0.40822
vn 0.25882 -0.87543 -0.40822
vn 0.25882 -0.87543 -0.40822
vn 0.25882 -0.87543 -0.40822
vn -0.25882 0.87543 0.40822
vn 0.23359 -0.9694 -0.07552
vn 7E-05 -0.53161 -0.84699
vn -0.23369 -0.96937 -0.07558
vn 0.12941 -0.9914 -0.01953
vn 0.10958 0.56423 -0.81832
vn 0.24389 0.46815 -0.84933
vn 0.01706 0.32712 -0.94483
vn -0.14563 0.38242 -0.91244
vn 0.00688 0.38465 -0.92304
vn -0.01266 -0.80062 -0.59904
vn -0.06994 -0.70784 -0.7029
vn 0.15208 -0.85858 -0.4896
vn -0.09893 -0.88981 -0.44549
vn -0.2938 -0.90385 -0.31103
vn -0.96142 -0.25835 0.09453
vn -0.29327 -0.90765 -0.30026
vn -0.15004 -0.97399 -0.16982
vn 0.68984 0.46334 -0.55627
vn 0.72973 0.55718 -0.39628
vn 0.83352 0.34621 0.43057
vn 0.84089 -0.00376 0.5412
vn 0.98437 0.16451 -0.06279
vn -0.68983 -0.46334 0.55628
vn -0.24389 -0.46815 0.84933
vn -0.80072 -0.31707 0.50825
vn -0.25882 0.87543 0.40822
vn 0.26735 -0.92913 -0.25542
vn 0.79904 -0.57322 0.18154
vn -0.96688 0.06214 -0.24755
vn -0.91398 -0.39371 0.09819
vn -0.96734 0.05628 -0.24715
vn 0.25882 -0.87543 -0.40822
vn -0.15472 -0.70307 -0.69408
vn -0.0288 -0.66165 -0.74926
vn 0.25882 -0.87543 -0.40822
vn 0.25882 -0.87543 -0.40822
vn -0 -0.42262 0.90631
vn -0 -0.42261 0.90631
vn 0.24389 -0.3497 0.90456
vn 0.38899 -0.43535 0.81188
vn 0.59636 -0.18763 0.78048
vn -0.24389 -0.46815 0.84933
vn 0.28562 -0.58697 -0.75756
vn 0.63255 0.76593 0.11504
vn 0.51656 -0.18291 -0.83648
vn 0.02123 -0.92588 -0.37723
vn -0.45141 -0.87069 -0.19527
vn -0.02593 -0.94648 -0.32171
vn -0.25882 0.87543 0.40822
vn -0.48941 0.24551 -0.83678
vn -0.55289 0.06712 -0.83055
vn 0.25882 -0.87543 -0.40822
vn -0.42346 -0.74191 -0.51986
vn 0.59663 -0.80193 -0.0307
vn -0.65492 0.52171 -0.54671
vn -0.42572 -0.75992 -0.4912
vn 0.17846 -0.85836 -0.48102
vn 0.28026 0.73629 0.61589
vn -0.25882 0.87543 0.40822
vn -0.65683 0.70992 0.25415
vn 0.05349 0.99494 -0.08502
vn 0.59204 -0.02687 -0.80546
vn -0.08151 0.10758 -0.99085
vn -0.53397 -0.84165 -0.08067
vn 0.35811 0.28449 -0.88928
vn 0.69268 -0.45992 0.55558
vn 0.35414 -0.90636 -0.23041
vn -0.25882 0.87543 0.40821
vn -0.73132 0.26244 0.62952
vn 0.28033 -0.73633 -0.61582
vn 0.51242 0.75042 0.41748
vn -0.37125 0.92219 -0.10833
vn -0.83046 0.34027 0.44108
f 1//1 2//1 3//1
f 4//2 5//2 6//2
f 7//3 8//3 9//3
f 10//4 11//4 7//4
f 3//5 2//5 12//5
f 4//6 13//6 12//6
f 14//7 8//7 15//7
f 16//8 17//8 18//8
f 19//9 2//9 1//9
f 5//10 2//10 6//10
f 16//11 14//11 15//11
f 20//12 7//12 9//12
f 15//13 8//13 18//13
f 16//14 18//14 11//14
f 16//15 10//15 14//15
f 10//16 16//16 11//16
f 4//17 21//17 13//17
f 13//18 3//18 12//18
f 4//19 22//19 19//19
f 19//20 22//20 2//20
f 15//21 18//21 17//21
f 17//22 16//22 15//22
f 7//23 11//23 8//23
f 8//24 11//24 18//24
f 10//25 9//25 14//25
f 9//26 8//26 14//26
f 12//27 2//27 5//27
f 4//28 12//28 5//28
f 21//29 4//29 1//29
f 4//30 19//30 1//30
f 4//31 6//31 22//31
f 22//32 6//32 2//32
f 20//33 9//33 10//33
f 20//34 10//34 7//34
f 1//35 3//35 21//35
f 13//36 21//36 3//36
f 23//37 24//37 25//37
f 26//38 25//38 27//38
f 28//39 23//39 26//39
f 29//40 30//40 31//40
f 31//41 32//41 33//41
f 29//42 33//42 34//42
f 35//43 36//43 37//43
f 36//44 38//44 37//44
f 37//45 39//45 35//45
f 40//46 36//46 35//46
f 26//39 23//39 25//39
f 27//47 25//47 41//47
f 42//48 30//48 29//48
f 30//49 43//49 31//49
f 29//50 31//50 33//50
f 28//51 44//51 23//51
f 45//52 40//52 46//52
f 46//53 45//53 47//53
f 45//54 47//54 40//54
f 46//55 40//55 48//55
f 23//56 33//56 24//56
f 34//57 33//57 23//57
f 33//58 32//58 49//58
f 49//59 32//59 25//59
f 33//60 49//60 24//60
f 50//61 51//61 38//61
f 51//62 52//62 38//62
f 36//63 50//63 38//63
f 53//64 51//64 50//64
f 54//65 55//65 53//65
f 55//66 54//66 56//66
f 55//67 51//67 53//67
f 47//68 54//68 53//68
f 23//69 57//69 34//69
f 23//70 44//70 57//70
f 44//71 58//71 59//71
f 58//72 29//72 59//72
f 44//73 59//73 57//73
f 60//74 31//74 43//74
f 26//75 60//75 43//75
f 27//76 31//76 60//76
f 26//77 27//77 60//77
f 48//78 40//78 35//78
f 35//79 61//79 48//79
f 27//80 62//80 63//80
f 27//81 63//81 31//81
f 41//82 62//82 27//82
f 31//83 62//83 32//83
f 51//84 64//84 52//84
f 38//85 52//85 65//85
f 29//86 34//86 57//86
f 29//87 57//87 59//87
f 42//88 28//88 26//88
f 42//89 26//89 30//89
f 66//90 28//90 42//90
f 29//91 66//91 42//91
f 29//92 58//92 66//92
f 30//93 26//93 43//93
f 37//94 38//94 65//94
f 39//95 37//95 67//95
f 37//96 68//96 67//96
f 69//97 50//97 36//97
f 47//98 53//98 40//98
f 40//99 53//99 69//99
f 28//100 66//100 44//100
f 32//101 41//101 25//101
f 32//102 62//102 41//102
f 31//103 63//103 62//103
f 55//104 70//104 51//104
f 70//105 64//105 71//105
f 52//106 64//106 71//106
f 70//107 64//107 51//107
f 47//108 72//108 54//108
f 46//109 48//109 61//109
f 66//110 58//110 44//110
f 56//111 70//111 55//111
f 68//112 65//112 73//112
f 37//113 65//113 68//113
f 65//114 52//114 73//114
f 69//115 74//115 50//115
f 69//116 53//116 74//116
f 74//117 53//117 50//117
f 40//118 69//118 36//118
f 24//119 49//119 25//119
f 75//120 54//120 72//120
f 47//121 72//121 75//121
f 61//122 35//122 39//122
f 71//123 73//123 52//123
f 56//124 54//124 75//124
# Vertices: 75, normals: 124, texture coordinates: 0, faces: 125

