# File generated by ImageToStl.com - Free Image and 3D model conversion tools

o obj1
v 11.64842701 12.69198036 -1.45343077
v 11.67208099 11.73315239 -1.70400524
v 11.48275948 11.85378456 -1.39352977
v 11.44154739 11.72494793 -0.83535689
v 11.68881702 12.39915276 -1.02636647
v 8.38754463 5.96446657 -1.32373607
v 7.62895775 6.79910517 -1.2600261
v 7.39904022 6.37759304 -0.90242833
v 7.53631687 6.71284151 -1.59975779
v 6.99616623 5.81945038 -1.39470863
v 6.92087269 6.03224277 -0.69274789
v 21.93193054 5.08080387 -0.2706317
v 21.68155479 5.00129843 -0.36426181
v 21.51639938 5.10628796 -0.86209387
v 21.66918564 6.85771179 -1.1415168
v 20.68939018 6.3711729 -1.42332757
v 20.94553947 5.96562862 -1.06509125
v 16.93078423 13.56540108 -1.35514772
v 17.33380699 12.69252396 -1.45459461
v 17.08208847 12.8503027 -1.80873036
v 17.02757835 12.8974781 -0.28108758
v 16.71562195 13.93987942 -0.08265161
v 15.76707077 13.16697311 -0.24494588
v 13.90525532 7.92330313 10.86581135
v 14.25349998 7.01404953 10.36628532
v 14.45995712 7.37540483 10.91451836
v 16.19101334 7.83569765 9.83267879
v 14.51193523 6.88649368 9.39104271
v 13.55772686 8.21897316 10.01140308
v 12.50803661 11.01325703 -0.65358788
v 11.89494896 10.90400219 -0.66639912
v 12.30786896 11.31663704 -1.55672157
v 12.69828129 11.61648464 -1.08689702
v 15.11131191 7.86972332 8.55207062
v 14.30876732 7.52938509 8.77309704
v 14.51522446 8.18163013 8.69751453
v 16.00240517 8.81265068 10.28824043
v 13.75686169 7.50088644 9.67655468
v 14.56720352 6.70031452 9.30225849
v 12.93740463 13.77259731 -1.06889606
v 13.11405468 12.83440495 -1.19434738
v 13.00066185 13.31087875 -1.41667521
v 12.69850159 11.78067017 -1.55207646
v 12.71950626 12.63045406 -1.86161399
v 21.64624214 6.75916195 -1.82183564
v 21.84903336 6.72116709 -1.46491981
v 22.13212776 5.94513607 -1.36410546
v 21.76432228 6.2613287 0.06046521
v 21.75961304 6.50328541 -0.84847599
v 21.57653618 6.39221239 -0.15140313
v 16.47545052 11.013484 -0.65407252
v 16.71996498 11.13492393 -1.31415606
v 16.92435074 10.87939453 -0.67434573
v 16.04473495 13.77266502 -1.06904006
v 15.98137379 13.31092358 -1.41676927
v 15.86833286 12.83440781 -1.19435167
v 17.4291935 11.79398155 -1.56420529
v 17.42362213 12.07415485 -1.04918909
v 17.23308372 12.53757 -0.95683664
v 16.21083832 12.10939026 -1.09779322
v 8.21724796 6.69828606 -1.88594806
v 7.81694841 6.25694895 -2.0196476
v 7.55769444 6.6271472 -1.75398839
v 8.66659069 6.23721266 -1.34712851
v 20.68562508 7.43196392 -1.4225806
v 21.39185143 7.22960997 -1.56797624
v 21.07421875 7.01647758 -1.85171473
v 20.71653938 6.5118413 -1.73194289
v 21.49498749 5.52433443 -1.53364182
v 21.10725784 5.37760162 -0.92385697
v 7.51433086 6.3166604 -0.18496053
v 8.16540623 5.75140667 -0.26729921
v 8.12310123 5.69543695 -0.84688807
v 7.05586672 5.24472284 -1.09237528
v 7.18053198 5.44093752 -1.45181274
v 7.3814826 5.3445363 -1.47990751
v 16.28399086 11.78082657 -1.55240965
v 16.61025429 11.54604626 -1.75058722
v 16.40337944 11.36188126 -1.3276614
v 17.51278877 11.82236671 -0.93936098
v 16.28464127 11.61664104 -1.08723068
v 16.3109951 11.39573765 -0.91655403
v 12.88168812 12.64914989 -0.34100878
v 12.26723766 13.9395647 -0.08197632
v 11.95550919 12.897048 -0.28016591
v 12.77189255 12.10926151 -1.09751737
v 6.77821875 5.55862665 -0.6801011
v 7.15314293 6.1008563 0.2052308
v 7.53949881 5.19125128 0.5292784
v 12.37771606 13.92240143 -1.03212845
v 12.67973804 13.93187904 -1.05669916
v 12.05120564 13.56500626 -1.35430193
v 11.93781185 13.50910759 -0.16105662
v 15.64259148 8.34520531 11.06254673
v 15.49037838 7.20677328 10.73719406
v 16.10461998 7.62468481 10.23042202
v 15.90889263 8.58425045 10.71875286
v 13.63895416 8.03300953 10.46170616
v 15.21810246 7.39200258 8.63350105
v 14.60386276 7.13151836 8.80266762
v 16.24628067 7.64876509 9.7455101
v 16.12031364 8.28052807 9.5030899
v 15.91385651 7.91917181 8.95485783
v 15.64259148 9.1053381 9.43244267
v 13.63895416 8.44438934 9.5795002
v 21.85986328 5.66694355 0.50348836
v 20.88033295 5.44027233 -0.02407827
v 21.16838074 5.21025276 0.31949437
v 16.77809715 13.94741631 -0.56161827
v 17.04514313 13.50954437 -0.16199215
v 16.30235291 13.93204117 -1.05704677
v 15.82643509 13.69233513 -0.62338495
v 16.10144234 12.64923859 -0.34119764
v 16.16246796 12.38039017 -0.91035414
v 17.1243515 12.75385666 -0.69471836
v 7.57177305 4.9760499 0.04768585
v 8.06973267 5.30483055 0.08858773
v 8.05709839 5.46639538 -1.0448277
v 15.05604458 7.06349802 10.76907349
v 15.70431042 7.07168436 9.47641563
v 21.56757545 5.30999279 0.52982056
v 22.17224884 6.08097553 -0.64047629
v 22.07584 5.54333162 0.13531122
v 22.25439835 5.59370089 -0.66572177
v 21.48385811 7.20188618 -1.14274204
v 21.59125519 7.08954859 -1.49919283
v 8.87865257 6.74377108 -1.40656269
v 8.90046024 6.51158953 -1.27070546
v 8.36096859 5.99666166 -1.70469987
v 8.86199474 6.42345715 -1.18679571
v 8.24502468 7.29405546 -1.32592881
v 8.03393936 7.26413393 -1.16043222
v 12.33853626 12.87628174 -1.94970512
v 12.28683567 11.90245438 -1.95146048
v 11.89980698 12.84985161 -1.80776477
v 12.52138996 11.53428459 -1.62656343
v 8.11807156 6.08110857 -1.94570875
v 12.76476002 14.00867558 -0.07537761
v 13.15608788 13.69234848 -0.62341356
v 13.21594429 13.1670084 -0.24502149
v 12.84306145 12.48985577 -0.75840247
v 11.80495453 12.65204525 -0.8434146
v 12.79692841 12.25674057 -1.02455449
v 17.47836685 11.40373421 -1.17878258
v 17.02315712 11.38812256 -1.65695524
v 17.55909348 11.30394077 -0.58373785
v 17.38049698 11.05614376 -0.63415831
v 21.10207367 6.39976501 -1.96663141
v 20.79792595 6.84868813 -1.82395494
v 21.31583214 7.4071312 -0.97475511
v 20.32301331 6.8643856 -1.31068206
v 20.94534492 5.89262486 -0.74508941
v 21.33609009 5.05476332 -0.06152719
v 16.96938133 11.63861561 -1.86289358
v 16.77056313 12.4173727 -2.01569581
v 16.26242828 12.63060284 -1.86193025
v 11.74238873 11.07370472 -1.02078879
v 11.63690376 11.49622536 -1.51264322
v 11.92166901 11.18124485 -1.38923705
v 11.42434216 11.30331421 -0.58239573
v 17.23840714 13.20163918 -1.10542691
v 15.44390011 6.84241247 10.09473515
v 15.03842545 6.76192188 9.58318043
v 15.89865685 7.2232523 9.54807472
v 7.117208 5.12649822 0.19645379
v 6.84414768 5.28314781 -0.2263395
v 7.24551964 4.93457031 -0.27741596
v 6.88927317 5.56877661 0.13453895
v 21.76921654 5.92096806 -1.74448359
v 16.21807861 14.00880623 -0.07565863
v 12.57944584 11.36168098 -1.32723367
v 12.66253757 11.24284458 -0.61111856
v 12.68318272 11.49708843 -1.01774251
v 7.41117859 6.29905653 -0.58397222
v 17.56148148 11.6429987 -0.69632286
v 7.83936357 7.01755619 -1.52163351
v 7.9645257 7.20287991 -1.07258391
v 13.90525627 8.68343544 9.23570728
v 20.85662842 5.91674662 -0.34296209
v 12.4597435 13.28151226 -1.7557106
v 20.34308052 6.76467371 -1.23359513
v 15.95392513 7.03707218 9.4592905
v 15.4991684 7.21103907 8.81616592
v 14.8193388 6.65641928 9.28277397
v 15.30932903 6.70337582 9.30466938
v 21.97695923 5.35771275 -1.12716758
v 7.90344238 5.1789155 -0.81778723
v 15.24404335 9.12506676 9.1374464
v 14.98534393 8.33671093 8.66301155
v 14.54859447 6.7809577 10.04249477
v 13.70159531 7.68781948 9.76372433
v 14.00747013 7.11540461 9.9929409
v 11.74391556 13.20113087 -1.10433769
v 16.00240517 8.81264973 10.28823948
v 21.87380981 6.09641504 0.24027251
v 22.09244537 5.79972982 0.0577809
v 11.4110651 11.57780838 -0.52890635
v 12.20438099 13.94707775 -0.56089389
v 12.07184982 13.75834274 -0.11449216
v 7.5839982 5.30893803 -1.46951735
v 16.5220356 13.2817564 -1.75623226
v 15.09369373 6.76742697 9.08332634
v 17.49983215 11.85438919 -1.39482498
v 8.50230122 7.19384241 -1.43878043
v 14.06273746 7.30853558 9.09072113
v 7.09178305 5.7019887 0.50699556
v 15.24404335 8.13190746 11.26727867
v 14.77392387 7.97682619 11.30178452
v 8.15336704 5.48742723 -0.08798467
v 7.15035105 6.2538743 -0.92943639
v 15.54564571 7.93739891 8.68231678
v 17.08343315 11.01764965 -1.05573237
v 12.87629414 12.23413467 -1.32321322
v 15.16283512 6.81880426 10.35077477
v 16.10621262 12.23422527 -1.32340658
v 21.00992393 5.70222664 -1.13109279
v 8.20552254 5.7821703 -1.12891936
v 12.01291847 11.63820648 -1.86201763
v 11.43614101 11.50992298 -1.06941414
v 21.17902946 7.53632927 -1.15060461
v 17.5723114 11.57843971 -0.53025877
v 16.32089806 11.24301434 -0.61148119
v 15.82605267 13.70144176 -0.14038971
v 13.15684891 13.70145512 -0.14041863
v 8.54166031 6.80714083 -1.69948304
v 21.42764282 6.54104996 -1.99988759
v 20.38459206 7.10325527 -1.42018187
v 7.49465179 6.15224743 -1.89917445
v 16.60439873 13.92267609 -1.0327152
v 14.76407051 6.84335232 9.36994171
v 13.54544163 8.21599007 10.01001549
v 7.17382288 5.50882816 0.57581514
v 15.74688435 8.04004478 11.63676929
v 15.41683674 8.00709152 11.4660387
v 15.74709988 8.12428474 11.40284348
v 15.71372795 8.06760693 11.69943905
v 15.42278576 8.14523506 11.34850216
v 15.36067104 8.06008434 11.49172592
v 13.86487675 7.62188387 11.48308182
v 13.90075684 7.66674519 11.21341705
v 13.99409962 7.57529736 11.45652199
v 14.18225861 7.69895792 11.5190239
v 13.81066132 7.70919991 11.2614584
v 15.57994461 8.213727 11.30126095
v 15.76889515 8.21775341 11.41242599
v 14.20349884 7.66559458 11.44654179
v 14.17222023 7.75346279 11.21515846
v 14.24798965 7.7843523 11.37757015
v 14.14805508 7.84178448 11.19104576
v 13.89908028 7.781322 11.16285324
v 15.60203838 7.983675 11.69341755
v 14.0235672 7.63166237 11.56272507
v 15.81005859 8.12943268 11.51272869
v 15.42998695 8.00815487 11.6470356
vn -0.82514 0.1237 -0.55122
vn -0.83829 0.40945 0.36003
vn 0.49412 0.38977 0.77713
vn -0.85503 0.46365 -0.23226
vn 0.39166 -0.86544 -0.31245
vn -0.43832 0.42348 0.79281
vn 0.81709 0.42201 -0.39277
vn -0.01261 -0.19063 0.98158
vn -0.59469 -0.54994 0.58643
vn -0.00011 0.422 -0.90659
vn 0.17153 -0.92179 -0.34767
vn 0.20865 0.19499 0.95836
vn -0.25272 -0.03206 -0.96701
vn 0.00041 -0.42319 0.90604
vn 0.97749 0.19487 -0.08092
vn 0.86954 -0.18786 -0.45673
vn 0.85275 0.25162 -0.45773
vn 0.3599 0.90205 0.23826
vn -0.28656 -0.91775 -0.27499
vn -0.97762 0.19451 -0.08014
vn 0.83639 0.153 -0.52634
vn -0.04531 -0.21313 0.97597
vn -0.22164 0.4613 -0.85912
vn 0.08361 -7E-05 0.9965
vn 0.08055 0.75157 -0.65472
vn -0.61098 -0.58806 -0.52999
vn 0.64215 0.75713 -0.11999
vn -0.42375 -0.72512 -0.54281
vn -0.68193 -0.48706 -0.54566
vn -0.19287 0.58541 0.78746
vn 0.01346 -0.19063 0.98157
vn 0.06855 0.01126 0.99758
vn -0.94223 0.27885 -0.18559
vn 0.50141 0.47143 0.72549
vn -0.07938 0.70648 -0.70327
vn -0.96087 -0.07943 0.26537
vn 0.71685 -0.27852 0.63919
vn -0.25882 0.87543 0.40822
vn -0.17858 -0.20399 -0.96255
vn -0.00047 -0.4227 0.90627
vn 0.92596 0.04056 -0.37544
vn -0.25882 0.87543 0.40822
vn -0.55348 -0.83283 0.00798
vn -0.50088 0.46404 0.7306
vn 0.79882 0.59076 0.11349
vn -0.33459 0.59577 -0.73014
vn -0.99284 0.02867 -0.11594
vn 0.23928 -0.86777 0.43556
vn 0.48676 -0.78492 0.38336
vn 0.97003 -0.23823 -0.0478
vn -0.25272 -0.76138 0.59702
vn -0.00083 0.42305 -0.90611
vn 0.69885 -0.53743 0.47199
vn 0.96284 0.15072 0.2241
vn -0.22111 -0.11562 0.96837
vn 0.60414 0.60595 -0.51753
vn 0.74975 -0.28032 -0.59941
vn 0.50176 0.47148 0.72522
vn -0.30875 0.01811 -0.95097
vn 0.60913 -0.26999 -0.7457
vn -0.06817 -0.48365 -0.8726
vn 0.26587 0.05049 -0.96269
vn 0.01346 -0.19063 0.98157
vn -0.13644 0.98848 -0.06554
vn 0.99274 0.02904 -0.11672
vn -0.1681 -0.72692 0.66583
vn 0.63499 -0.50086 -0.58815
vn -0.01261 -0.19064 0.98158
vn -0.5382 -0.09861 -0.83703
vn -0.50088 0.46404 0.7306
vn -0.60221 0.79774 -0.03105
vn -0.64713 -0.7543 -0.11067
vn 0.55013 -0.02334 -0.83475
vn -0.63688 -0.27807 -0.71907
vn -0.55505 -0.68608 -0.47033
vn 0.01346 -0.19063 0.98157
vn 0.85219 0.52321 0.00381
vn 0.2188 -0.90479 0.36535
vn 0.39321 -0.90369 -0.16948
vn 0.74011 -0.65299 0.16076
vn -0.64016 -0.75662 0.13311
vn -0.99236 0.11984 0.02923
vn 0.72155 0.04208 -0.69109
vn -0.54423 -0.5553 -0.62885
vn 0.13602 0.98853 -0.06564
vn -0.01261 -0.19063 0.98158
vn 0.53394 -0.68352 -0.4977
vn 0.22761 0.82041 0.52452
vn -0.88835 0.41423 0.19813
vn 0.59385 0.7823 -0.18803
vn 0.99067 -0.00948 -0.13599
vn -0.25568 0.75268 0.60672
vn -0.40108 0.84268 -0.35921
vn -0.10773 -0.34356 0.93293
vn -0.78221 -0.02394 -0.62255
vn -0.25882 0.87543 0.40822
vn -0.50088 0.46404 0.73061
vn -0.51297 0.84265 -0.16372
vn 0.33379 0.59589 -0.73041
vn -0.29574 0.483 -0.82416
vn -0.7341 -0.0081 -0.67899
vn 0.07249 -0.38069 0.92186
vn 0.73404 -0.31169 -0.60336
vn -0.00031 -0.41992 0.90756
vn 0.88813 -0.42654 0.17115
vn 0.66882 -0.4232 -0.61121
vn -0.10746 -0.93725 -0.33169
vn 0.55007 -0.83499 0.01508
vn 0.74884 0.38768 -0.53753
vn -0.24216 0.55739 -0.79415
vn 0.84547 0.45624 0.27754
vn -0.48912 0.84223 0.22673
vn 0.80033 -0.59017 -0.1057
vn 0.69018 -0.71544 -0.10861
vn 0.1726 -0.92178 -0.34717
vn -0.37086 -0.01066 -0.92863
vn -0.17858 -0.86848 0.46244
vn -0.73057 -0.55158 -0.40253
vn -0.75241 0.65788 0.03273
vn -0.83416 0.12009 -0.53828
vn 0.82257 -0.11558 0.5568
vn 0 0.42262 -0.90631
vn 0.84697 0.45251 0.27906
vn -0.50087 0.46405 0.73061
vn -0.98101 0.19188 -0.02814
vn 0.01346 -0.19062 0.98157
vn -0.86983 -0.18818 -0.45604
vn -0.03959 0.01549 0.9991
vn -0.84308 0.53729 -0.02314
vn 0.01346 -0.19063 0.98157
vn 0.09523 -0.94544 -0.31156
vn 0.53236 -0.74125 -0.40882
vn -0.19161 0.23122 -0.95384
vn -0.36271 -0.20955 -0.90804
vn 0.02651 -0.58768 -0.80866
vn 0.48647 -0.6934 -0.53155
vn 0.9502 -0.14861 0.27391
vn 0.94485 0.20536 0.25512
vn 0.58751 -0.01607 -0.80906
vn 0.50175 0.47148 0.72522
vn -0.17858 -0.20399 -0.96255
vn -0.73057 -0.66291 -0.16379
vn -0.04284 0.99903 0.01013
vn 0.50152 0.37782 -0.77829
vn -0.83593 -0.37466 0.40107
vn 0.50175 0.47148 0.72522
vn -0.96809 0.0207 0.24976
vn -0.17364 -0.88525 0.43148
vn 0.21019 -0.44331 0.87137
vn -0.25882 0.87543 0.40822
vn 0.87587 -0.47627 -0.07765
vn 0.50176 0.47148 0.72522
vn 0.92096 0.38727 -0.04317
vn 0.99705 0.07312 -0.02322
vn -0.74145 0.67025 0.032
vn -0.78023 0.62311 0.05454
vn 0.32082 0.40887 -0.85434
vn 0.29948 -0.09488 -0.94937
vn 0.10467 -0.84195 -0.5293
vn -0.23163 -0.24391 -0.94173
vn 0.92693 -0.37391 0.03152
vn 0.9287 -0.37061 0.01285
vn -0.89521 -0.42614 0.13041
vn -0.25882 0.87543 0.40822
vn -0.17858 -0.86848 0.46244
vn 0.69757 -0.64375 0.31463
vn -0.40947 -0.8411 0.3534
vn -0.92506 -0.13091 0.35656
vn -0.96804 0.11913 -0.22071
vn -0.90333 -0.29809 0.30844
vn -0.17196 0.9851 0.00099
vn -0.41484 0.70953 0.56962
vn 0.81095 -0.23894 0.53411
vn 0.48914 0.3604 0.79426
vn 0.26797 -0.52261 -0.80936
vn -0.05336 -0.71284 -0.69929
vn -0.79093 -0.53763 -0.29222
vn -0.99934 0.03522 -0.00927
vn 0.98752 -0.14864 -0.05199
vn 0.93748 -0.32833 -0.11544
vn 0.73141 0.66289 -0.16006
vn -0.50088 0.46405 0.7306
vn -0.53804 -0.77081 -0.34112
vn -0.01261 -0.19063 0.98158
vn 0.44935 -0.81205 -0.37238
vn 0.01346 -0.19063 0.98157
vn -0.52596 0.84322 -0.11112
vn -0.9939 0.11024 -0.00287
vn 0.52556 0.84341 -0.11154
vn 0.99386 0.11061 -0.00365
vn -0.11782 0.68305 -0.72081
vn 0.26518 0.5574 -0.78676
vn 0.15917 -0.92757 0.33804
vn -0.64419 -0.76434 0.02837
vn 0.29764 0.57299 -0.7636
vn 0.62019 0.01862 -0.78423
vn 0.01281 -0.7365 -0.67631
vn -0.02889 -0.45354 -0.89077
vn -0.36993 0.47728 -0.79709
vn -0.50088 0.46404 0.73061
vn 0.79734 -0.5575 0.23118
vn 0.01346 -0.19063 0.98157
vn -0.91006 0.28222 0.30356
vn -0.65954 -0.74062 -0.12838
vn -0.31336 -0.40255 -0.86009
vn -0.76864 0.27814 -0.57604
vn 0.70659 0.66571 0.23992
vn 0.93803 0.32745 -0.11348
vn 0.87299 -0.21163 -0.43942
vn 0.00152 -0.42441 0.90547
vn 0.75219 0.65816 0.03213
vn 0.07856 0.70651 -0.70333
vn 0.02651 -0.99722 0.0696
vn -0.00207 0.4296 -0.90302
vn -0.79695 -0.55779 0.23181
vn -0.01261 -0.19063 0.98158
vn 0.53078 -0.69673 -0.48254
vn -0.01261 -0.19063 0.98158
vn -0.79961 -0.51677 -0.30589
vn -0.78269 -0.53749 -0.31385
vn 0.96111 -0.07907 0.26461
vn -0.01262 -0.19063 0.98158
vn 0.81214 0.28549 0.50885
vn 0.54789 -0.6416 0.53681
vn -0.99342 -0.02633 -0.11146
vn 0.25912 0.86038 0.43888
vn 0.04248 0.99905 0.0101
vn -0.68554 0.72096 0.10129
vn -0.4077 0.90479 0.12302
vn 0.50143 0.47192 0.72516
vn -0.20059 0.1707 -0.96469
vn 0.05773 -0.35286 -0.93389
vn -0.8957 -0.15481 -0.41683
vn 0 -0.42262 0.90631
vn 0.84779 0.44928 0.28178
vn -0.50358 0.47057 0.72454
vn -0.47649 -0.69658 -0.53641
vn -0.13213 -0.73788 -0.66187
vn -0.97749 -0.14877 -0.14963
vn -0.50088 0.46404 0.7306
vn 0.50532 0.24497 -0.82743
vn 0.86424 -0.02868 -0.50225
vn 0.96625 0.07109 0.24759
vn 0.90682 -0.4207 -0.02622
vn 0.39685 -0.66479 -0.6329
vn 0.66388 -0.16934 -0.72842
vn 0.96064 -0.09361 -0.26155
vn -0.01261 -0.19063 0.98158
vn 0.25046 -0.9595 -0.12892
vn -0.20152 -0.92562 0.32033
vn -0.86463 -0.029 -0.50157
vn -0.4899 0.32653 -0.80832
vn -0.35629 0.55299 -0.75317
vn -0.81756 0.42171 -0.39212
vn -0.61536 0.78809 -0.01535
vn -0.01262 -0.19063 0.98158
vn 0.61506 0.78832 -0.01583
vn 0.01346 -0.19063 0.98157
vn -0.46924 -0.58797 -0.65886
vn -0.30153 -0.57159 -0.76312
vn 0.98166 0.16997 -0.08633
vn 0.8685 -0.36479 -0.33562
vn -0.43964 -0.76872 -0.46452
vn 0.62039 -0.65679 -0.42864
vn 0.85574 0.47884 -0.19602
vn 0.97976 0.19984 0.01169
vn -0.81785 0.42177 -0.39144
vn -0.98144 0.05894 0.1825
vn -0.12545 0.74572 -0.65434
vn 0.39885 0.60539 -0.68879
vn 0.12466 0.74577 -0.65444
vn -0.39962 0.60524 -0.68847
vn 0.02606 -0.92149 0.38752
vn -0.50088 0.46404 0.73061
vn -0.87844 -0.21947 -0.42448
vn -0.84352 -0.50466 -0.18382
vn -0.51541 -0.62965 -0.58128
vn -0.17635 -0.73872 -0.65054
vn 0.88527 -0.43289 0.17
vn -0.05736 -0.43486 0.89867
vn 0.33459 -0.90168 -0.27391
vn 0.7776 -0.60909 -0.15603
vn -0.06231 -0.51714 0.85363
vn -0.40598 -0.33545 0.85009
vn 0.76894 -0.58128 -0.26618
vn -0.27672 -0.44354 0.85247
vn -0.80815 -0.3502 0.47355
vn -0.86201 0.38344 0.33154
vn -0.0467 -0.93271 -0.35759
vn 0.36912 -0.91241 -0.17679
vn -0.47905 0.43314 -0.76348
vn -0.73054 -0.11985 -0.67227
vn -0.83088 -0.52553 -0.18291
vn -0.24815 0.86299 0.44008
vn -0.24215 0.55739 -0.79415
vn -0.60971 0.10191 -0.78604
vn -0.93745 -0.32868 -0.1147
vn -0.94295 -0.31436 -0.10964
vn -0.14248 0.50849 -0.8492
vn 0.56056 -0.00749 -0.82808
vn 0.25152 -0.75108 -0.61043
vn -0.17849 -0.97362 -0.14216
vn -0.94737 -0.14761 -0.28409
vn -0.25882 0.87543 0.40822
vn 0.00149 0.42295 -0.90615
vn -0.95699 -0.28485 0.05499
vn -0.51541 -0.85002 -0.1087
vn -0.17635 -0.97318 -0.14773
vn 0.98156 0.0593 0.18172
vn 0.81739 0.42207 -0.39209
vn 0.1307 -0.99005 0.05218
vn 0.44624 -0.79191 0.41684
vn 0.1307 -0.59641 -0.79196
vn 0.44624 -0.18971 -0.87457
vn -0.17401 0.17279 -0.96947
vn 0.24783 0.45139 -0.85722
vn -0.91285 -0.3296 0.24096
vn 0.11674 -0.55078 0.82645
vn -0.86437 -0.27786 -0.41911
vn -0.995 0.0839 -0.0541
vn -0.21818 0.61053 -0.76135
vn -0.83472 0.42405 -0.35131
vn -0.39684 -0.84472 0.3591
vn -0.21818 -0.90487 0.36552
vn 0.7934 0.57403 0.20251
vn 0.77255 0.50476 -0.38521
vn 0.55402 0.41684 -0.72062
vn 0.57896 -0.18344 -0.79445
vn 0.39062 -0.70995 -0.58599
vn 0.10499 -0.9233 -0.36946
vn 0.00913 0.41782 -0.90848
vn 0.62128 -0.78306 -0.0287
vn 0.89331 0.14666 -0.42485
vn 0.91305 -0.30336 -0.27259
vn 0.55402 0.41684 -0.72062
vn -0.25882 0.87543 0.40822
vn 0.73758 0.67035 -0.08129
vn 0.14623 -0.55212 0.82084
vn -0.77765 -0.50418 0.37559
vn -0.25882 0.87543 0.40822
vn 0.12524 0.82886 -0.54526
vn 0.61215 0.75304 -0.24125
vn -0.1896 -0.4313 -0.88206
vn -0.42053 0.31585 -0.85053
vn 0.55707 -0.29621 0.77584
vn -0.25882 0.87543 0.40822
vn 0.55401 -0.40807 -0.72564
vn 0.62547 0.47893 -0.61597
vn 0.58931 -0.43382 -0.68155
vn -0.07285 -0.64266 -0.76268
vn -0.43617 -0.60045 0.67024
vn -0.1707 -0.9038 0.39243
vn 0.95223 0.17803 0.24811
vn 0.13679 -0.73547 0.66361
vn -0.57513 0.79764 0.18162
vn -0.97301 -0.22484 -0.05188
vn 0.21019 -0.44331 0.87137
vn 0.29948 -0.78825 0.53756
vn 0.92729 -0.33676 -0.16348
vn 0.83093 -0.52522 -0.18357
vn 0.94311 0.33248 -0.00345
vn -0.16874 0.34327 0.92396
vn 0.50175 0.47148 0.72522
vn 0.76943 -0.5834 -0.26004
vn 0.96625 0.07109 0.2476
vn 0.99441 -0.0342 0.09987
vn 0.87189 0.08914 0.48153
vn 0.7031 0.64781 -0.29326
vn 0.03621 0.99718 -0.06572
vn -0.89106 0.22051 -0.39673
vn -0.51995 0.84811 -0.10182
vn 0.89066 0.22084 -0.39743
vn 0.51955 0.8483 -0.10223
vn -0.45338 0.86122 0.22967
vn 0.67138 0.7251 0.15323
vn 0.59525 -0.72158 -0.35356
vn 0.81358 -0.54531 -0.20183
vn -0.39525 0.10066 -0.91304
vn 0.26008 -0.54044 -0.80018
vn -0.05173 0.68527 -0.72645
vn 0.50176 0.47148 0.72522
vn 0.98906 -0.11104 -0.09707
vn 0.50282 0.46989 0.72552
vn 0.21922 -0.00988 -0.97563
vn 0.42674 0.3648 -0.82753
vn 0.61527 0.68485 0.39042
vn 0.9097 -0.38862 0.14634
vn 0.66702 -0.26949 -0.69459
vn 0.79442 -0.44662 -0.41162
vn -0.18656 -0.91496 -0.35783
vn -0.65315 -0.75305 -0.07943
vn -0.80831 -0.45321 -0.37581
vn -0.50088 0.46403 0.73061
vn -0.1354 0.19429 -0.97156
vn 0.23452 0.28412 -0.92967
vn -0.35371 -0.90292 -0.24417
vn 0.16271 -0.92301 0.34868
vn -0.93529 0.24433 0.25599
vn -0.07359 -0.56214 0.82376
vn -0.78221 -0.02395 -0.62255
vn -0.52988 -0.44659 -0.72096
vn -0.77765 -0.50418 0.37559
vn -0.52988 -0.83935 0.12132
vn -0.71051 0.69985 -0.07342
vn 0.50176 0.47148 0.72522
vn -0.63084 -0.19392 -0.75129
vn -0.84998 -0.35533 -0.38893
vn -0.68899 0.71525 -0.11712
vn -0.56865 0.68305 -0.45834
vn 0.84651 -0.4645 0.26011
vn 0.91991 -0.28789 0.26625
vn -0.92677 -0.37425 0.03225
vn -0.92855 -0.37095 0.01359
vn 0.68499 0.69456 0.21993
vn -0.50089 0.46404 0.7306
vn -0.16633 -0.97947 -0.11388
vn -0.04397 -0.50219 -0.86364
vn 0.50176 0.47149 0.72521
vn -0.83839 -0.17179 0.51729
vn -0.17849 -0.73473 -0.65445
vn -0.00284 -0.41926 0.90786
vn -0.69556 -0.6552 -0.29481
vn -0.89649 -0.19013 -0.40019
vn -0.85419 0.07257 0.51487
vn -0.89668 -0.39563 -0.19859
vn -0.52038 0.8141 0.25778
vn -0.63269 0.76725 0.10503
vn 0.90323 -0.42227 0.07661
vn 0.84987 -0.52031 -0.08364
vn -0.94632 -0.26062 -0.19119
vn -0.90163 -0.39776 -0.16986
vn 0.01347 -0.19063 0.98157
vn -0.88255 0.46937 0.02817
vn -0.70357 0.64755 -0.2927
vn -0.03663 0.99717 -0.06569
vn -0.26309 0.89329 0.36443
vn 0.99643 -0.03283 -0.07775
vn 0.94691 -0.2422 -0.21142
vn 0.21207 0.46958 0.85704
vn 0.25985 -0.90861 -0.32696
vn -0.25882 0.87543 0.40822
vn -0.36842 -0.90788 -0.20005
vn -0.25882 0.87543 0.40822
vn 0.09427 -0.66512 -0.74076
vn -0.25882 0.87543 0.40822
vn 0.28442 -0.88286 -0.37372
vn -0.25882 0.87543 0.40822
vn 0.24447 -0.92392 -0.29427
vn -0.68729 -0.45331 -0.56758
vn 0.82628 -0.48037 -0.29412
vn -0.20013 -0.84136 0.50206
vn 0.13313 -0.39851 -0.90745
vn -0.25882 0.87542 0.40822
vn 0.9281 -0.14972 0.3409
vn -0.25882 0.87543 0.40822
vn 0.44735 0.75427 0.48057
vn 0.50733 -0.03 -0.86123
vn -0.22293 0.22867 0.94763
vn -0.14517 -0.98927 0.01636
vn 0.162 -0.2184 -0.96232
vn 0.89004 0.12374 -0.43876
vn -0.50505 -0.83799 -0.20661
vn -0.56233 -0.34073 -0.75345
vn 0.36734 -0.79931 0.47557
vn 0.33731 -0.8311 -0.44215
vn 0.05434 -0.64841 -0.75935
vn -0.25882 0.87543 0.40822
vn 0.88654 0.0151 0.4624
vn 0.48106 -0.67986 0.55351
vn -0.25882 0.87543 0.40822
vn -0.67232 -0.73835 0.05319
vn 0.44332 -0.83686 0.32114
vn -0.25882 0.87543 0.40822
vn 0.5551 -0.78275 -0.28137
vn 0.86077 -0.15087 -0.48611
f 1//1 2//1 3//1
f 1//2 4//2 5//2
f 6//3 7//3 8//3
f 9//4 10//4 11//4
f 12//5 13//5 14//5
f 15//6 16//6 17//6
f 18//7 19//7 20//7
f 21//8 22//8 23//8
f 24//9 25//9 26//9
f 27//10 28//10 29//10
f 30//11 31//11 32//11
f 33//12 5//12 4//12
f 34//13 35//13 36//13
f 37//14 38//14 39//14
f 40//15 41//15 42//15
f 41//16 43//16 44//16
f 45//17 46//17 47//17
f 48//18 49//18 50//18
f 51//19 52//19 53//19
f 54//20 55//20 56//20
f 20//21 19//21 57//21
f 58//22 59//22 60//22
f 61//23 62//23 63//23
f 64//24 7//24 6//24
f 65//25 66//25 67//25
f 68//26 69//26 70//26
f 71//27 72//27 73//27
f 74//28 75//28 76//28
f 77//29 78//29 79//29
f 80//30 81//30 82//30
f 83//31 84//31 85//31
f 86//32 5//32 33//32
f 11//33 10//33 87//33
f 72//34 88//34 89//34
f 90//35 91//35 92//35
f 93//36 1//36 85//36
f 94//37 95//37 96//37
f 94//38 97//38 98//38
f 99//39 100//39 34//39
f 101//40 37//40 39//40
f 102//41 101//41 103//41
f 37//42 104//42 105//42
f 13//43 70//43 14//43
f 106//44 107//44 108//44
f 109//45 22//45 110//45
f 111//46 55//46 54//46
f 112//47 56//47 23//47
f 113//48 114//48 115//48
f 89//49 116//49 117//49
f 72//50 118//50 73//50
f 26//51 25//51 119//51
f 27//52 120//52 28//52
f 106//53 121//53 12//53
f 122//54 123//54 124//54
f 15//55 125//55 16//55
f 126//56 45//56 66//56
f 127//57 128//57 129//57
f 130//58 131//58 132//58
f 133//59 134//59 135//59
f 44//60 136//60 134//60
f 137//61 76//61 62//61
f 61//62 137//62 62//62
f 83//63 138//63 84//63
f 138//64 91//64 84//64
f 139//65 140//65 41//65
f 141//66 142//66 143//66
f 57//67 144//67 145//67
f 146//68 51//68 147//68
f 148//69 68//69 149//69
f 150//70 65//70 151//70
f 50//71 49//71 152//71
f 107//72 70//72 153//72
f 57//73 154//73 155//73
f 78//74 77//74 156//74
f 157//75 158//75 159//75
f 30//76 160//76 31//76
f 109//77 110//77 161//77
f 21//78 113//78 115//78
f 162//79 163//79 120//79
f 96//80 162//80 164//80
f 165//81 166//81 167//81
f 11//82 166//82 168//82
f 45//83 47//83 169//83
f 69//84 68//84 148//84
f 170//85 22//85 111//85
f 22//86 170//86 23//86
f 171//87 32//87 136//87
f 172//88 173//88 4//88
f 88//89 11//89 168//89
f 71//90 73//90 174//90
f 57//91 146//91 144//91
f 175//92 80//92 82//92
f 132//93 131//93 176//93
f 64//94 177//94 7//94
f 178//95 35//95 105//95
f 105//96 104//96 178//96
f 106//97 50//97 107//97
f 50//98 152//98 179//98
f 42//99 91//99 40//99
f 180//100 133//100 135//100
f 151//101 149//101 68//101
f 125//102 181//102 16//102
f 103//103 182//103 183//103
f 182//104 184//104 185//104
f 124//105 123//105 12//105
f 47//106 186//106 169//106
f 167//107 74//107 76//107
f 117//108 116//108 187//108
f 104//109 102//109 103//109
f 188//110 189//110 178//110
f 125//111 15//111 46//111
f 48//112 46//112 49//112
f 129//113 6//113 118//113
f 6//114 129//114 64//114
f 31//115 159//115 32//115
f 134//116 2//116 135//116
f 119//117 25//117 190//117
f 191//118 28//118 192//118
f 90//119 92//119 193//119
f 135//120 2//120 1//120
f 97//121 94//121 96//121
f 27//122 29//122 194//122
f 195//123 196//123 122//123
f 106//124 48//124 50//124
f 1//125 3//125 4//125
f 172//126 197//126 160//126
f 56//127 156//127 77//127
f 58//128 60//128 81//128
f 198//129 193//129 199//129
f 84//130 199//130 85//130
f 167//131 76//131 187//131
f 187//132 200//132 129//132
f 155//133 156//133 201//133
f 155//134 78//134 156//134
f 99//135 202//135 100//135
f 182//136 185//136 183//136
f 21//137 115//137 19//137
f 19//138 59//138 203//138
f 127//139 137//139 61//139
f 127//140 204//140 130//140
f 34//141 100//141 35//141
f 38//142 205//142 39//142
f 22//143 109//143 111//143
f 18//144 155//144 201//144
f 168//145 166//145 165//145
f 89//146 88//146 206//146
f 85//147 1//147 142//147
f 85//148 142//148 141//148
f 95//149 207//149 208//149
f 208//150 207//150 98//150
f 209//151 117//151 118//151
f 209//152 89//152 117//152
f 59//153 58//153 203//153
f 203//154 80//154 146//154
f 7//155 9//155 210//155
f 177//156 9//156 7//156
f 211//157 189//157 188//157
f 211//158 99//158 34//158
f 212//159 52//159 145//159
f 154//160 78//160 155//160
f 140//161 213//161 41//161
f 41//162 213//162 43//162
f 98//163 191//163 192//163
f 98//164 194//164 29//164
f 119//165 190//165 214//165
f 96//166 95//166 162//166
f 113//167 215//167 114//167
f 215//168 81//168 60//168
f 179//169 152//169 216//169
f 16//170 216//170 17//170
f 71//171 174//171 210//171
f 8//172 7//172 210//172
f 6//173 217//173 118//173
f 6//174 8//174 217//174
f 136//175 32//175 218//175
f 159//176 218//176 32//176
f 158//177 157//177 160//177
f 4//178 219//178 160//178
f 86//179 33//179 43//179
f 43//180 33//180 171//180
f 220//181 125//181 46//181
f 150//182 220//182 65//182
f 51//183 79//183 52//183
f 221//184 222//184 51//184
f 30//185 32//185 171//185
f 172//186 160//186 30//186
f 170//187 111//187 112//187
f 223//188 112//188 23//188
f 138//189 139//189 91//189
f 224//190 140//190 139//190
f 131//191 61//191 176//191
f 225//192 61//192 204//192
f 121//193 153//193 12//193
f 108//194 107//194 153//194
f 45//195 67//195 66//195
f 169//196 226//196 45//196
f 14//197 169//197 186//197
f 169//198 69//198 148//198
f 67//199 149//199 65//199
f 65//200 227//200 151//200
f 140//201 83//201 213//201
f 140//202 224//202 83//202
f 11//203 87//203 166//203
f 166//204 74//204 167//204
f 228//205 76//205 75//205
f 63//206 228//206 10//206
f 46//207 48//207 122//207
f 46//208 122//208 47//208
f 103//209 101//209 182//209
f 101//210 184//210 182//210
f 229//211 161//211 18//211
f 229//212 18//212 111//212
f 214//213 190//213 163//213
f 120//214 230//214 28//214
f 23//215 215//215 113//215
f 21//216 23//216 113//216
f 212//217 145//217 144//217
f 147//218 51//218 53//218
f 68//219 216//219 16//219
f 181//220 68//220 16//220
f 110//221 21//221 19//221
f 110//222 22//222 21//222
f 195//223 106//223 196//223
f 106//224 12//224 123//224
f 4//225 160//225 197//225
f 197//226 172//226 4//226
f 84//227 91//227 198//227
f 84//228 198//228 199//228
f 88//229 71//229 210//229
f 72//230 71//230 88//230
f 148//231 149//231 67//231
f 169//232 148//232 226//232
f 105//233 205//233 38//233
f 37//234 231//234 38//234
f 15//235 49//235 46//235
f 49//236 15//236 17//236
f 52//237 79//237 78//237
f 52//238 78//238 145//238
f 179//239 216//239 107//239
f 50//240 179//240 107//240
f 42//241 133//241 180//241
f 42//242 41//242 44//242
f 97//243 96//243 27//243
f 27//244 96//244 164//244
f 200//245 137//245 129//245
f 127//246 129//246 137//246
f 80//247 175//247 146//247
f 221//248 51//248 146//248
f 116//249 167//249 187//249
f 165//250 167//250 116//250
f 55//251 156//251 56//251
f 201//252 156//252 55//252
f 180//253 135//253 92//253
f 92//254 135//254 1//254
f 170//255 112//255 223//255
f 170//256 223//256 23//256
f 138//257 224//257 139//257
f 224//258 138//258 83//258
f 218//259 159//259 2//259
f 159//260 158//260 2//260
f 122//261 124//261 47//261
f 47//262 124//262 186//262
f 14//263 70//263 69//263
f 14//264 69//264 169//264
f 104//265 37//265 102//265
f 37//266 101//266 102//266
f 92//267 1//267 193//267
f 93//268 193//268 1//268
f 91//269 180//269 92//269
f 42//270 180//270 91//270
f 111//271 18//271 201//271
f 201//272 55//272 111//272
f 121//273 108//273 153//273
f 106//274 108//274 121//274
f 87//275 75//275 74//275
f 87//276 74//276 166//276
f 39//277 205//277 100//277
f 39//278 100//278 202//278
f 213//279 86//279 43//279
f 143//280 5//280 86//280
f 12//281 14//281 186//281
f 124//282 12//282 186//282
f 119//283 208//283 26//283
f 208//284 24//284 26//284
f 128//285 64//285 129//285
f 130//286 177//286 64//286
f 168//287 165//287 232//287
f 88//288 168//288 206//288
f 53//289 52//289 212//289
f 147//290 53//290 212//290
f 149//291 227//291 65//291
f 227//292 149//292 151//292
f 79//293 51//293 222//293
f 222//294 175//294 82//294
f 189//295 36//295 178//295
f 36//296 35//296 178//296
f 77//297 79//297 81//297
f 215//298 77//298 81//298
f 20//299 155//299 18//299
f 57//300 155//300 20//300
f 163//301 230//301 120//301
f 163//302 28//302 230//302
f 105//303 38//303 231//303
f 37//304 105//304 231//304
f 28//305 191//305 29//305
f 29//306 191//306 98//306
f 190//307 192//307 28//307
f 190//308 28//308 163//308
f 110//309 19//309 161//309
f 18//310 161//310 19//310
f 214//311 163//311 162//311
f 95//312 214//312 162//312
f 183//313 202//313 99//313
f 211//314 183//314 99//314
f 226//315 148//315 67//315
f 45//316 226//316 67//316
f 114//317 215//317 60//317
f 59//318 114//318 60//318
f 3//319 2//319 219//319
f 3//320 219//320 4//320
f 61//321 63//321 176//321
f 9//322 63//322 10//322
f 83//323 141//323 213//323
f 85//324 141//324 83//324
f 220//325 46//325 126//325
f 126//326 46//326 45//326
f 103//327 211//327 188//327
f 103//328 183//328 211//328
f 185//329 202//329 183//329
f 185//330 184//330 202//330
f 27//331 164//331 120//331
f 162//332 120//332 164//332
f 19//333 203//333 57//333
f 203//334 146//334 57//334
f 103//335 188//335 104//335
f 104//336 188//336 178//336
f 220//337 150//337 125//337
f 125//338 150//338 181//338
f 98//339 25//339 24//339
f 208//340 98//340 24//340
f 220//341 66//341 65//341
f 220//342 126//342 66//342
f 62//343 76//343 228//343
f 62//344 228//344 63//344
f 94//345 207//345 95//345
f 207//346 94//346 98//346
f 127//347 61//347 225//347
f 204//348 127//348 225//348
f 57//349 145//349 154//349
f 145//350 78//350 154//350
f 89//351 232//351 165//351
f 89//352 165//352 116//352
f 115//353 59//353 19//353
f 115//354 114//354 59//354
f 152//355 49//355 17//355
f 17//356 216//356 152//356
f 95//357 208//357 119//357
f 119//358 214//358 95//358
f 173//359 172//359 171//359
f 171//360 172//360 30//360
f 58//361 80//361 203//361
f 80//362 58//362 81//362
f 128//363 127//363 130//363
f 128//364 130//364 64//364
f 194//365 97//365 27//365
f 97//38 194//38 98//38
f 122//366 196//366 123//366
f 196//367 106//367 123//367
f 109//368 161//368 229//368
f 109//369 229//369 111//369
f 54//370 56//370 112//370
f 112//371 111//371 54//371
f 40//372 139//372 41//372
f 139//373 40//373 91//373
f 174//374 8//374 210//374
f 174//375 73//375 8//375
f 147//376 212//376 144//376
f 144//377 146//377 147//377
f 134//378 218//378 2//378
f 136//379 218//379 134//379
f 204//380 61//380 131//380
f 130//381 204//381 131//381
f 72//382 209//382 118//382
f 72//383 89//383 209//383
f 44//384 134//384 133//384
f 42//385 44//385 133//385
f 73//386 217//386 8//386
f 217//387 73//387 118//387
f 44//388 43//388 136//388
f 43//389 171//389 136//389
f 31//390 157//390 159//390
f 160//391 157//391 31//391
f 151//392 68//392 181//392
f 150//393 151//393 181//393
f 34//394 36//394 189//394
f 211//395 34//395 189//395
f 153//396 70//396 13//396
f 153//397 13//397 12//397
f 1//398 5//398 142//398
f 143//399 142//399 5//399
f 105//400 35//400 205//400
f 100//401 205//401 35//401
f 98//402 192//402 25//402
f 25//403 192//403 190//403
f 132//404 9//404 177//404
f 130//405 132//405 177//405
f 228//406 75//406 10//406
f 10//407 75//407 87//407
f 132//408 176//408 9//408
f 176//409 63//409 9//409
f 141//410 143//410 213//410
f 143//411 86//411 213//411
f 23//412 56//412 215//412
f 56//413 77//413 215//413
f 195//414 122//414 48//414
f 195//415 48//415 106//415
f 187//416 76//416 200//416
f 137//417 200//417 76//417
f 89//418 206//418 232//418
f 206//419 168//419 232//419
f 39//420 202//420 184//420
f 101//421 39//421 184//421
f 219//422 158//422 160//422
f 2//423 158//423 219//423
f 68//424 70//424 216//424
f 216//425 70//425 107//425
f 11//426 210//426 9//426
f 88//427 210//427 11//427
f 129//428 118//428 187//428
f 118//429 117//429 187//429
f 81//430 79//430 82//430
f 82//431 79//431 222//431
f 199//432 93//432 85//432
f 199//433 193//433 93//433
f 198//434 90//434 193//434
f 198//435 91//435 90//435
f 221//436 175//436 222//436
f 175//437 221//437 146//437
f 33//438 173//438 171//438
f 33//439 4//439 173//439
f 233//440 234//440 235//440
f 236//441 237//441 238//441
f 239//442 240//442 241//442
f 242//443 243//443 239//443
f 235//444 234//444 244//444
f 236//445 245//445 244//445
f 246//446 240//446 247//446
f 248//447 249//447 250//447
f 251//448 234//448 233//448
f 237//449 234//449 238//449
f 248//450 246//450 247//450
f 252//451 239//451 241//451
f 247//452 240//452 250//452
f 248//453 250//453 243//453
f 248//454 242//454 246//454
f 242//455 248//455 243//455
f 236//456 253//456 245//456
f 245//457 235//457 244//457
f 236//458 254//458 251//458
f 251//459 254//459 234//459
f 247//460 250//460 249//460
f 249//461 248//461 247//461
f 239//462 243//462 240//462
f 240//463 243//463 250//463
f 242//464 241//464 246//464
f 241//465 240//465 246//465
f 244//466 234//466 237//466
f 236//467 244//467 237//467
f 253//468 236//468 233//468
f 236//469 251//469 233//469
f 236//470 238//470 254//470
f 254//471 238//471 234//471
f 252//472 241//472 242//472
f 252//473 242//473 239//473
f 233//474 235//474 253//474
f 245//475 253//475 235//475
# Vertices: 254, normals: 475, texture coordinates: 0, faces: 476

